<?xml version="1.0" encoding="utf-8"?>
<!-- Generator: Adobe Illustrator 23.0.3, SVG Export Plug-In . SVG Version: 6.00 Build 0)  -->
<svg version="1.1" id="圖層_1" xmlns="http://www.w3.org/2000/svg" xmlns:xlink="http://www.w3.org/1999/xlink" x="0px" y="0px"
	 viewBox="0 0 160 160" style="enable-background:new 0 0 160 160;" xml:space="preserve">
<style type="text/css">
	.st0{clip-path:url(#SVGID_2_);}
	.st1{fill:#847264;}
	.st2{fill:#6D5C51;}
	.st3{fill:#F0D6CD;}
	.st4{fill:#E19495;}
	.st5{fill:#D1B6A3;}
	.st6{opacity:0.25;fill:#020202;}
	.st7{fill:#F0D6C5;}
	.st8{fill:#3D3D3D;}
	.st9{fill:none;}
	.st10{fill:#F0D6C5;stroke:#3D3D3D;stroke-width:0.9818;stroke-miterlimit:10;}
	.st11{fill:#565656;stroke:#3D3D3D;stroke-width:1.3804;stroke-miterlimit:10;}
	.st12{fill:#8AA89E;}
	.st13{fill:#F0D6C5;stroke:#3D3D3D;stroke-width:0.8776;stroke-miterlimit:10;}
</style>
<g>
	<defs>
		<circle id="SVGID_1_" cx="80" cy="80" r="80"/>
	</defs>
	<use xlink:href="#SVGID_1_"  style="overflow:visible;fill:#E6EDEC;"/>
	<clipPath id="SVGID_2_">
		<use xlink:href="#SVGID_1_"  style="overflow:visible;"/>
	</clipPath>
	<g class="st0">
		<path class="st1" d="M109.2,31.8c0,0-11.1-14.2-32.2-10c-15.8,3.1-28.6,13.3-35.2,27.4c-6.3,13.5-5.9,19.9-6.6,44.6
			c-0.6,19.3-10.7,24-20.5,38.2c-7.1,10.2,1.3,25.8,6.8,30.5c4.3,3.7,8.6,7.8,16.1,12.6c8.9,5.8,27.4,7,28.6,5.7
			c1.3-1.4,65.3-2.4,65.3-2.4s4.9-0.9,11-9.1c10.7-14.3,14.9-26.3,3-45.1c-14.2-22.5-13.7-11.6-14.2-39.5
			C130.9,62.4,128.6,35.7,109.2,31.8z"/>
		<path class="st2" d="M45.2,114.1c-4.2,13.8-17.4,8.8-22.4,29c-3.2,13,25.4,33.2,25.4,33.2s79.2,1.2,88.3-10.3
			c9.1-11.5,0.8-24.7-12.2-35.8c-13-11.1-10.3-26.5-7.6-41.3c2.2-12.1,3.6-18-5.7-32.6c-9.8-15.5-64.8,28.6-67.3,33
			C41.2,93.7,48.6,103.1,45.2,114.1z"/>
		<path class="st3" d="M84.2,118.1c9-3.7,18.9-8.1,26.8-24.6c0,0,3.5,3.4,7.7-4.6c5.1-9.7-0.8-15.9-5.9-8c0,0,0.6-1.8,0.6-8.7
			c0-12.1-5.7-21.6-13.5-23c0,0-4-10-20.6-9.4c-8.4,0.3-14.1,3.6-18.8,7.3c-4.7,3.7-11.5,6.5-15.7,25.9c-1.5,6.9-0.2,16.2-0.2,16.2
			s0.3,9.2,4.4,15.2c5.6,8.2,14.4,14,14.4,14"/>
		<path class="st4" d="M35.5,130.4c0.4,5.1,9.6,2.9,6.2,20.8c-1.7,9-1.1,11.3-2,18.7c-1.6,12.7,5.9,16.5,4.6,10.5l68.4,1.2
			c0,0,7,7.1,17.5-0.4c8.1-5.8-3.9-50.8-9.9-52.8c-11.3-3.8-14.2-6.1-32.1-7.2c0,0,7.1,7.4-15.6,9.1c-15.6,1.2-8.8-9-8.8-9
			s-1.2,0.1-3,0.3c-0.4,0-1.6,0.6-2,0.6C50.7,123.1,35.1,125.5,35.5,130.4z"/>
		<path class="st5" d="M89,40.9c0,0-18.4,0.2-30.4,10.8c-9.6,8.6-13,18.2-14.3,30.2c0,0-0.5-15.2,7.3-26
			c6.8-9.4,14.7-13.3,21.6-15.1C81,38.6,89,40.9,89,40.9z"/>
		<path class="st5" d="M99.8,49.3c0,0,7.9,5.3,10,15.1c1.6,7.6,3.4,10.8,2.2,20.6c0,0,2.5-12.4,0.5-20.2c-2-7.7-5.3-11.5-7.6-13.3
			C102.6,49.7,99.8,49.3,99.8,49.3z"/>
		<path class="st6" d="M60.3,180.4c0,0,27.4,7.1,39,7.1s9.7-1.6,15.7,1c6,2.6,23.6-6.6,19.4-9.7s-50.2-1.4-50.2-1.4l-60-1.1l2.7,5.3
			L60.3,180.4z"/>
		<path class="st6" d="M18.5,182.5c0,0-3.9,2.8,3.4,9.6S43.7,203,50.6,206c6.9,2.9,16.9-0.9,16.8-7.8s-18.6-14.6-11.1-16
			S31.3,180.4,18.5,182.5z"/>
		<path class="st4" d="M11.4,169.5c-0.6,12.2,8.2,17.9,13.8,21.3c8.8,5.5,27.5,12.4,27.5,12.4s-0.2-8.7,5.1-9.9
			c0,0-20.5-14.8-24.4-21.5c-4-6.7,6.8-17.8,10.9-24.1c0,0-2.8-26.7-11.3-16.7C24.3,141,11.7,163.4,11.4,169.5z"/>
		<path class="st7" d="M62.7,117.7c0,0,2.5,6.1-1.7,8.2c-3.9,2,1.1,7.7,16.2,6.8c9.8-0.6,16.1-5.4,13.9-6.5c-1.4-0.7-1.4-0.6-3-3.5
			c-1.5-2.7,0.9-5.6,0.9-5.6"/>
		<path class="st5" d="M70,120c0,0,5.3-0.9,9.4-1.2c4.4-0.3,9.2-2.9,9.2-2.9s-1.1,4.2-0.7,6.4c0.4,2.8,4.4,4.4,4.4,4.4
			s-3.2,4.1-3.6,2.7c-1.2-4.2-4.8-4.4-8-5c-6.6-1.3-7.4-1-9.5-1.9c-2.8-1.1-5.2-3.5-5.2-3.5s3.2,1.5,7.7,1.6"/>
		<g>
			<path class="st8" d="M99.6,48.4c-1-1.3-2.2-2.5-3.6-3.5c-1.3-1-2.7-1.9-4.2-2.6c-3-1.4-6.3-2.1-9.6-2.2c-3.3-0.1-6.6,0.5-9.8,1.5
				c-3.1,1-6.2,2.4-9.1,4c-5.7,3.3-10.7,7.9-13.8,13.7c-3.1,5.8-4.4,12.4-4.6,19C45,85,45.2,91.8,44.5,98.5c-0.4,3.4-1,6.7-2.1,10
				c-1,3.3-2.7,6.4-4.8,9.1c-2.1,2.7-4.8,4.9-7.8,6.6c-2.9,1.6-5.7,3.5-7.9,6c-2.2,2.4-3.8,5.5-4,8.8c-0.2,3.3,0.8,6.7,2.6,9.5
				c-2-2.7-3.1-6.1-3-9.5c0.1-3.4,1.6-6.7,3.8-9.3c1.1-1.3,2.4-2.5,3.7-3.5c1.3-1.1,2.8-2,4.2-2.8c2.8-1.7,5.4-3.9,7.3-6.5
				c4-5.3,5.7-11.9,6.3-18.5c0.3-3.3,0.4-6.6,0.5-10l0-5c0-1.7-0.1-3.4,0-5.1c0.2-6.8,1.6-13.7,4.9-19.7c3.3-6.1,8.5-10.9,14.5-14.2
				c3-1.6,6.1-3,9.4-3.9c3.3-0.9,6.7-1.5,10.1-1.3C89.1,39.5,95.7,42.9,99.6,48.4z"/>
		</g>
		<g>
			<path class="st8" d="M120.1,88.9c0.5,3.7,0.1,7.6-0.1,11.3c-0.2,3.7-0.1,7.4,1.2,10.8c1.2,3.4,3.4,6.4,5.9,9.1
				c1.2,1.3,2.6,2.7,3.9,4c1.3,1.4,2.6,2.8,3.8,4.3c1.2,1.5,2.3,3,3.3,4.6c1,1.6,1.9,3.3,2.6,5.1c0.7,1.8,1.3,3.6,1.6,5.5
				c0.4,1.9,0.5,3.8,0.5,5.7c-0.1,3.8-0.4,7.6-1.6,11.2c-0.6,1.8-1.3,3.6-2.4,5.1c-1,1.6-2.4,3-4.1,3.8c1.7-0.9,2.9-2.4,3.9-3.9
				c1-1.6,1.7-3.3,2.2-5.1c1-3.6,1.3-7.4,1.2-11.1c0-0.9-0.1-1.9-0.2-2.8c-0.1-0.9-0.2-1.8-0.5-2.7c-0.4-1.8-1-3.6-1.7-5.2
				c-0.7-1.7-1.7-3.3-2.7-4.8c-1-1.5-2.2-3-3.4-4.4c-2.4-2.9-5-5.4-7.8-8.1c-1.3-1.4-2.6-2.9-3.7-4.5c-1.1-1.6-2-3.4-2.6-5.2
				c-0.7-1.8-1-3.8-1.1-5.7c-0.1-1.9,0.1-3.8,0.3-5.7C119.3,96.3,120.1,92.6,120.1,88.9z"/>
		</g>
		<g>
			<path class="st8" d="M100.3,49.2c3,0.9,5.8,2.7,7.9,5.1c1.1,1.2,1.9,2.6,2.6,4c0.3,0.7,0.6,1.5,0.9,2.3c0.3,0.8,0.5,1.5,0.8,2.3
				c0.9,3.1,1.5,6.2,1.5,9.5c0,1.6-0.1,3.2-0.3,4.8c-0.2,1.6-0.7,3.1-0.8,4.7c-0.2-0.8-0.2-1.6-0.2-2.4l0-2.4c0-1.6-0.1-3.1-0.2-4.7
				c-0.2-3.1-0.6-6.2-1.2-9.2c-0.2-0.8-0.3-1.5-0.4-2.3c-0.2-0.7-0.4-1.5-0.7-2.2c-0.6-1.4-1.4-2.8-2.3-4
				C105.8,52.2,103.2,50.3,100.3,49.2z"/>
		</g>
		<g>
			<path class="st8" d="M102.1,45.2c-0.2-1.1-0.1-2.2,0.2-3.3c0.2-1.1,0.6-2.1,1.1-3.1c0.6-1,1.2-1.9,2.2-2.6c0.9-0.7,2-1.2,3.1-1.2
				c-0.9,0.7-1.6,1.4-2.2,2.1c-0.6,0.8-1.1,1.6-1.6,2.5C103.9,41.4,103.1,43.3,102.1,45.2z"/>
		</g>
		<g>
			<path class="st8" d="M109.6,31.3c-5.5-6.3-13.8-9.9-22-10.3c-2.1-0.1-4.1,0-6.2,0.1c-2.1,0.2-4.1,0.6-6.1,1.1
				c-4,1-7.9,2.4-11.7,4.2c-3.7,1.8-7.4,3.8-10.7,6.3c-3.3,2.5-6.3,5.4-8.7,8.7c-2.4,3.3-4.3,7.1-5.5,11c-1.3,3.9-2.1,8-2.6,12.1
				c-0.5,4.1-0.8,8.3-1,12.5c-0.3,4.2-0.4,8.4-0.6,12.6c-0.2,4.2-0.5,8.4-1.4,12.6c-0.5,2.1-1,4.1-1.8,6.1c-0.8,2-1.6,3.9-2.7,5.8
				c-2,3.8-4.8,7.1-7.6,10.2c-2.8,3.1-5.9,6-8,9.6c-1.1,1.8-1.8,3.7-2,5.8c-0.2,2,0,4.2,0.3,6.2c0.3,2.1,0.8,4.1,1.4,6.1
				c0.3,1,0.7,2,1.1,2.9c0.4,0.9,0.9,1.9,1.6,2.7c-0.7-0.7-1.2-1.7-1.7-2.6c-0.5-0.9-0.9-1.9-1.2-2.9c-0.7-2-1.2-4-1.6-6.1
				c-0.4-2.1-0.6-4.2-0.5-6.3c0.1-2.1,0.8-4.2,1.9-6.1c2.1-3.8,5.1-6.8,7.8-9.9c2.8-3.1,5.3-6.4,7.2-10.1c1-1.8,1.8-3.7,2.6-5.6
				c0.7-1.9,1.3-3.9,1.7-5.9c0.8-4,1.1-8.2,1.3-12.4l0.6-12.6c0.2-4.2,0.5-8.4,1-12.6c0.5-4.2,1.4-8.4,2.7-12.4
				c1.4-4,3.3-7.9,5.8-11.4c2.5-3.5,5.6-6.5,9-9c3.4-2.6,7.2-4.5,11-6.3c3.9-1.7,7.9-3.2,12-4.1c2.1-0.5,4.2-0.8,6.3-1
				c2.1-0.1,4.2-0.2,6.4,0c2.1,0.2,4.2,0.5,6.3,1.1c2,0.6,4,1.3,5.9,2.3C103.6,25.4,107,28,109.6,31.3z"/>
		</g>
		<g>
			<path class="st8" d="M43.4,87.7c0.4,4,1.4,8,3,11.6c0.8,1.8,1.8,3.6,2.9,5.2c0.6,0.8,1.2,1.6,1.8,2.4c0.6,0.8,1.3,1.5,2,2.3
				c2.7,3,5.7,5.7,9.2,7.5c3.5,1.9,7.4,2.7,11.3,2.5c2-0.1,3.9-0.4,5.8-0.9c1.9-0.5,3.8-1.1,5.7-1.8c3.8-1.3,7.4-3,10.6-5.2
				c1.6-1.1,3.2-2.4,4.5-3.7c1.4-1.4,2.6-2.9,3.8-4.5c2.4-3.2,4.5-6.6,6.5-10.1l0.4-0.6l0.6,0.4c0.8,0.5,1.9,0.6,2.9,0.3
				c1-0.3,1.8-1.1,2.5-2c0.7-0.9,1.2-1.9,1.7-3c0.5-1.1,0.9-2.2,1.2-3.3c0.3-1.1,0.5-2.3,0.4-3.4c-0.1-1.1-0.4-2.3-1.2-3.1
				c-0.8-0.8-2.1-0.9-3.2-0.6c-1.1,0.4-2.1,1.1-3,1.9c0.8-0.9,1.7-1.7,2.9-2.1c1.1-0.5,2.6-0.4,3.5,0.5c1,0.9,1.4,2.1,1.5,3.3
				c0.1,1.2,0,2.5-0.3,3.6c-0.3,1.2-0.6,2.3-1.1,3.5c-0.5,1.1-1,2.2-1.7,3.2c-0.7,1-1.7,2-2.9,2.5c-1.3,0.5-2.7,0.5-4-0.2l0.9-0.2
				c-1.9,3.6-4,7-6.4,10.4c-2.4,3.3-5.3,6.4-8.7,8.7c-3.4,2.3-7.2,4-11,5.3c-1.9,0.7-3.8,1.3-5.9,1.7c-2,0.5-4.1,0.8-6.1,0.8
				c-2.1,0.1-4.2-0.1-6.2-0.6c-2-0.5-4-1.3-5.8-2.3c-3.6-2-6.6-4.9-9.2-8c-1.3-1.5-2.6-3.1-3.7-4.8c-1.1-1.7-2.1-3.5-2.8-5.4
				C44.4,95.8,43.6,91.7,43.4,87.7z"/>
		</g>
		<g>
			<path class="st8" d="M61.2,116.7c0.8,0.5,1.5,1.3,2,2.2c0.5,0.9,0.8,1.9,0.8,2.9c0,1-0.2,2.1-0.8,3c-0.6,0.9-1.5,1.6-2.5,1.6
				c0.8-0.6,1.2-1.4,1.5-2.1c0.3-0.8,0.4-1.6,0.5-2.5C62.6,120.1,62.1,118.4,61.2,116.7z"/>
		</g>
		<g>
			<path class="st8" d="M88.8,117.5c-0.8,1.5-0.8,3.2-0.4,4.8c0.2,0.8,0.5,1.5,0.9,2.2c0.4,0.7,0.9,1.3,1.7,1.7
				c-0.9,0-1.7-0.6-2.3-1.3c-0.6-0.7-0.9-1.6-1.1-2.4c-0.2-0.9-0.3-1.8-0.1-2.7C87.7,118.9,88.1,118.1,88.8,117.5z"/>
		</g>
		<g>
			<path class="st8" d="M61.5,121.5c-1.4,0.1-2.8,0.8-3.9,1.6c-1.1,0.8-2.1,2-2.2,3.4c-0.2,1.3,0.6,2.6,1.6,3.5
				c1,0.9,2.2,1.7,3.5,2.3c2.5,1.3,5.3,2,8.1,2.4c2.8,0.4,5.7,0.5,8.5,0.4c2.8-0.1,5.7-0.5,8.5-1.2c2.8-0.7,5.5-1.6,7.8-3.1
				c1.2-0.8,2.2-1.7,2.8-2.9c0.3-0.6,0.5-1.2,0.5-1.9c0-0.7-0.1-1.4-0.3-1.9c-0.5-1.2-1.9-1.9-3.2-2.3c-1.4-0.4-2.8-0.7-4.2-0.8
				c1.4-0.1,2.9,0,4.3,0.4c0.7,0.2,1.4,0.4,2.1,0.8c0.7,0.4,1.3,0.9,1.7,1.6c0.3,0.7,0.5,1.5,0.5,2.3c0,0.8-0.2,1.6-0.5,2.3
				c-0.7,1.4-1.8,2.5-3,3.4c-2.5,1.7-5.3,2.7-8.1,3.5c-2.9,0.7-5.8,1.1-8.7,1.2c-2.9,0.1-5.9,0-8.8-0.5c-2.9-0.5-5.8-1.3-8.4-2.7
				c-1.3-0.7-2.5-1.5-3.6-2.6c-0.5-0.6-1-1.2-1.3-1.9c-0.3-0.7-0.4-1.5-0.3-2.3c0.3-1.6,1.4-2.7,2.6-3.5
				C58.7,122.1,60.1,121.5,61.5,121.5z"/>
		</g>
		<g>
			<path class="st8" d="M56,122.2c-5.2,0.7-10.5,1.8-15.3,3.8c-2.4,1-4.8,2.2-6.5,4.1c-1.7,2-3.3,4.1-4.8,6.2
				c-3.1,4.3-5.9,8.7-8.4,13.3c-1.3,2.3-2.4,4.7-3.5,7c-1.1,2.4-2.1,4.8-3.3,7.2c-1.2,2.4-2.2,4.7-2.5,7.2c-0.1,1.2,0,2.5,0.2,3.7
				c0.3,1.2,0.7,2.4,1.3,3.5c1.2,2.2,2.9,4.2,4.7,6c1.8,1.8,3.9,3.4,6,5c4.3,3.1,8.8,5.7,13.6,8c4.7,2.3,9.6,4.3,14.7,6
				c-10.2-2.8-20.1-6.9-29-12.9c-1.1-0.7-2.2-1.6-3.3-2.3c-1-0.8-2.1-1.7-3.1-2.6c-2-1.9-3.8-3.9-5.1-6.4c-0.7-1.2-1.2-2.5-1.5-3.9
				c-0.3-1.4-0.4-2.8-0.3-4.2c0.3-2.8,1.4-5.4,2.6-7.8c2.2-4.8,4.3-9.7,6.9-14.3c2.6-4.6,5.5-9.1,8.8-13.3c1.6-2.1,3.3-4.1,5.1-6.1
				c1.9-2,4.4-3.2,6.9-4.1c2.5-0.9,5.1-1.6,7.7-2.1C50.7,122.8,53.4,122.4,56,122.2z"/>
		</g>
		<g>
			<path class="st8" d="M53.7,189.9c-3.7-2.1-7.3-4.4-10.8-7c-3.4-2.6-6.8-5.4-9.4-9c-0.6-0.9-1.2-1.9-1.6-3l-0.3-0.9
				c-0.1-0.4-0.1-0.8,0-1.1c0.1-0.6,0.2-1.2,0.4-1.7c0.8-2.1,1.8-4,2.8-5.9c2.1-3.7,4.5-7.3,7.2-10.7l-5.9,11.4
				c-0.9,1.9-1.9,3.8-2.6,5.7c-0.2,0.5-0.3,1-0.4,1.4c0,0.2,0,0.4,0,0.5l0.2,0.7c0.3,0.9,0.8,1.8,1.4,2.6c1.2,1.7,2.6,3.2,4.1,4.7
				c1.5,1.5,3.1,2.9,4.7,4.3C46.9,184.8,50.2,187.4,53.7,189.9z"/>
		</g>
		<g>
			<path class="st9" d="M39.4,173.3"/>
		</g>
		<g>
			<path class="st8" d="M37.4,123.9c1.8-0.4,3.6-1.2,5.1-2.1c1.6-1,3-2.2,4.2-3.6c1.2-1.4,2.1-3,2.6-4.7c0.4-1.8,0.5-3.7-0.1-5.5
				c0.9,1.7,1.1,3.7,0.7,5.6c-0.4,1.9-1.4,3.7-2.6,5.1c-1.3,1.4-2.8,2.7-4.5,3.6C41.2,123.3,39.3,123.9,37.4,123.9z"/>
		</g>
		<g>
			<path class="st8" d="M101.6,123.1c1.9,0.2,3.9,0.5,5.8,0.9c1.9,0.3,3.9,0.8,5.8,1.3c1.9,0.5,3.8,1.1,5.6,1.9
				c0.5,0.2,0.9,0.4,1.4,0.6c0.4,0.3,0.9,0.4,1.4,0.9c0.8,0.8,1.4,1.6,1.9,2.5c2,3.5,3.3,7.2,4.6,10.9c1.2,3.7,2.2,7.5,3.1,11.4
				c0.8,3.8,1.5,7.7,1.9,11.7c0.2,2,0.3,4,0.3,5.9c0,2-0.2,4-0.7,6c-0.2,1-0.6,2-1.1,2.9c-0.5,0.9-1.3,1.8-2.3,2.4
				c-1.8,1-3.7,1.8-5.7,2.1c-2,0.4-4.1,0.3-6.1-0.4c-1.9-0.7-3.6-2.1-4.5-3.8c1.3,1.5,3,2.5,4.8,3c1.8,0.5,3.7,0.4,5.5-0.1
				c1.8-0.4,3.5-1.3,5.2-2.2c1.4-0.8,2.2-2.6,2.6-4.4c0.8-3.6,0.7-7.6,0.3-11.4c-0.4-3.8-1-7.7-1.8-11.5c-0.8-3.8-1.8-7.6-3-11.3
				c-1.2-3.7-2.5-7.4-4.3-10.7c-0.5-0.8-1-1.6-1.6-2.2c-0.2-0.2-0.7-0.5-1.1-0.7c-0.4-0.3-0.8-0.4-1.2-0.7c-1.7-0.8-3.5-1.5-5.4-2.1
				c-1.8-0.6-3.7-1.1-5.6-1.7C105.4,124,103.5,123.5,101.6,123.1z"/>
		</g>
		<g>
			<path class="st9" d="M105.1,127.2"/>
		</g>
		<g>
			<path class="st8" d="M111.6,176.9c-3.1,0.2-6.3,0.2-9.4,0.3l-9.4,0.2c-6.3,0.1-12.5,0.1-18.8,0.2c-6.3,0-12.5,0-18.8-0.1
				l-9.4-0.2c-3.1-0.1-6.3-0.2-9.4-0.3c3.1-0.2,6.3-0.2,9.4-0.3l9.4-0.2c6.3-0.1,12.5-0.1,18.8-0.2c6.3,0,12.5,0,18.8,0.1l9.4,0.2
				C105.3,176.7,108.5,176.8,111.6,176.9z"/>
		</g>
		<g>
			<path class="st8" d="M111.7,33.2c2.8,1.1,5.2,2.9,7.3,4.9c2.1,2.1,4,4.4,5.5,7c3.1,5.1,4.9,10.9,5.9,16.7c1,5.9,1.3,11.9,1,17.8
				c-0.2,5.9-0.1,11.7,0.7,17.5c0.4,2.9,1,5.7,2,8.4c1,2.7,2.4,5.2,4.1,7.5c1.7,2.3,3.7,4.5,5.4,7c1.7,2.4,3.3,5,4.6,7.7
				c2.6,5.4,4.3,11.3,4.2,17.3c-0.1,6-1.9,11.8-4.9,16.9c1.3-2.6,2.4-5.4,3.1-8.2c0.7-2.8,1-5.8,1-8.7c-0.1-5.8-1.9-11.5-4.5-16.7
				c-1.3-2.6-2.9-5.1-4.6-7.4c-1.7-2.3-3.7-4.5-5.5-6.9c-1.8-2.4-3.3-5.1-4.4-7.9c-1.1-2.8-1.7-5.8-2.1-8.8
				c-0.8-5.9-0.8-11.9-0.5-17.8l0.2-4.4c0-1.5,0-2.9,0-4.4c-0.1-2.9-0.3-5.8-0.8-8.7c-0.9-5.8-2.5-11.5-5.4-16.6
				c-1.4-2.6-3.1-5-5.2-7.1c-1-1.1-2.1-2-3.3-2.9C114.3,34.6,113,33.8,111.7,33.2z"/>
		</g>
		<g>
			<path class="st8" d="M61.5,124.1c-0.7,0.5-1.2,1.3-1.4,2.1c-0.2,0.8,0,1.7,0.5,2.4c1.1,1.3,2.8,1.9,4.4,2.4
				c3.4,0.8,6.9,1.1,10.4,1.1c3.5,0,7-0.4,10.3-1.4c1.7-0.5,3.3-1.2,4.7-2.2c0.7-0.5,1.3-1.2,1.5-2c0.2-0.8-0.4-1.7-1.1-2.1
				c0.4,0.2,0.8,0.5,1,0.8c0.3,0.4,0.4,0.9,0.3,1.3c-0.1,0.9-0.8,1.7-1.4,2.3c-1.4,1.2-3,1.9-4.7,2.5c-3.4,1.1-7,1.6-10.5,1.6
				c-1.8,0-3.6-0.1-5.3-0.3c-1.8-0.2-3.5-0.5-5.2-1c-0.9-0.3-1.7-0.6-2.5-1c-0.8-0.4-1.6-1-2.1-1.7c-0.5-0.8-0.7-1.8-0.4-2.6
				C60.1,125.3,60.7,124.6,61.5,124.1z"/>
		</g>
		<g>
			<path class="st8" d="M112.6,181.8c-2.2,0.1-4.3,0.2-6.5,0.3l-6.5,0.2c-4.3,0.1-8.6,0.1-12.9,0.1c-4.3,0-8.6,0-12.9-0.2l-6.5-0.2
				c-2.2-0.1-4.3-0.2-6.5-0.3c2.2-0.1,4.3-0.2,6.5-0.3l6.5-0.2c4.3-0.1,8.6-0.1,12.9-0.1c4.3,0,8.6,0,12.9,0.2l6.5,0.2
				C108.3,181.6,110.4,181.6,112.6,181.8z"/>
		</g>
		<g>
			<path class="st8" d="M42.2,150.8c-0.9,4.4-1.7,8.6-2,13l-0.1,1.6l0,1.6c-0.1,1.1,0,2.2,0,3.2c0.1,2.2,0.4,4.3,0.7,6.5
				c-1-2-1.6-4.2-1.9-6.4c-0.3-2.2-0.4-4.5-0.2-6.7c0.2-2.2,0.6-4.5,1.2-6.6C40.3,154.8,41.1,152.7,42.2,150.8z"/>
		</g>
		<path class="st2" d="M107.7,42c0,0,8.9,1.6,13.9,11.9c5.8,12,3.9,20.7,2.2,23.5c0,0,3.6-11.6-6.1-26.5
			C113.8,44.9,107.7,42,107.7,42z"/>
		<path class="st2" d="M99.8,36.9c0,0-4.5-5.7-14.6-6c-11.7-0.4-18,3.6-19.6,5.6c0,0,7.9-6,23.4-3.8C95.2,33.6,99.8,36.9,99.8,36.9z
			"/>
		<path class="st2" d="M99.5,34.3c0,0-0.5-3.8-5.1-6.6c-5.3-3.2-9.3-3-10.5-2.4c0,0,5.3-0.8,11.8,4.3C98.3,31.6,99.5,34.3,99.5,34.3
			z"/>
		<g>
			<g>
				<path class="st8" d="M55.3,187.8c0.8,0,0.8-1.3,0-1.3C54.4,186.5,54.4,187.8,55.3,187.8L55.3,187.8z"/>
			</g>
		</g>
		<path class="st10" d="M64.6,193c0,0,1.2,4.2,4.1,4.6c5,0.8,2-6.7-2.5-7.3c-2.9-0.4-9.3-1.6-12,2.1c0,0-4.2,4.2-2.7,7.8"/>
		<path class="st11" d="M68.3,205.9L44,175.1c0,0,0.6-4.5,4.7-3.3l24.5,30.8l1.5,6.7L68.3,205.9z"/>
		<path class="st7" d="M57.2,193.3c1.2,1.6,0.3,2.9,6.9,5.1c4.4,1.4,7.8-2,7.4,2.3c-0.2,2.2-3.8,2.5-3.8,2.5s-3.1,4.3-5.1,4.6
			c-2.2,0.3-6.7,1.1-8.8-1.8c-2.7-3.7-3.5-13.7,2-14.8"/>
		<g>
			<path class="st8" d="M58,194c0.4,2.1,2.5,2.4,4.3,3l2.7,0.8c0.9,0.2,1.7,0.3,2.6,0.2c0.9,0,1.8-0.2,2.9-0.2c0.5,0,1.2,0,1.9,0.6
				c0.6,0.6,0.6,1.3,0.7,1.8c0,0.3,0,0.5,0,0.8c0,0.3-0.1,0.7-0.2,1c-0.3,0.6-0.7,1.1-1.1,1.4c-0.9,0.7-1.8,1.1-2.9,1.4l0.4-0.2
				c-1,1-2,2-3.2,2.9c-0.6,0.4-1.2,0.9-1.9,1.2c-0.3,0.2-0.7,0.3-1.1,0.5c-0.5,0.1-0.9,0.1-1.3,0.1c-1.5,0-3-0.2-4.4-0.7
				c-1.4-0.5-2.8-1.3-3.8-2.4c-1-1.2-1.6-2.5-2.1-3.9c-0.5-1.4-0.7-2.9-0.6-4.3c0.1-1.5,0.5-2.9,1.3-4.1c0.8-1.2,1.9-2.2,3.1-2.9
				c-1.1,0.8-2.1,1.9-2.8,3.1c-0.7,1.2-1,2.6-0.9,3.9c0,1.4,0.4,2.7,0.9,3.9c0.5,1.2,1.2,2.5,2.1,3.4c1.8,1.8,4.7,2.5,7.2,2.4
				c0.3,0,0.6,0,0.8-0.1c0.2-0.1,0.5-0.2,0.8-0.4c0.5-0.3,1.1-0.7,1.6-1.1c1-0.9,2.1-1.8,3.1-2.7l0.2-0.2l0.2-0.1
				c0.8-0.2,1.6-0.5,2.2-1c0.3-0.2,0.5-0.5,0.7-0.8c0.1-0.1,0.1-0.3,0.1-0.4c0-0.2,0-0.4,0-0.6c0-0.4-0.1-0.7-0.2-0.8
				c-0.1-0.1-0.4-0.2-0.8-0.2c-0.8,0-1.8,0.1-2.8,0c-1,0-2-0.2-3-0.5c-0.9-0.3-1.8-0.7-2.7-1.1c-0.9-0.4-1.8-0.8-2.6-1.3
				c-0.4-0.3-0.8-0.6-1-1.1C58.3,194.9,58.2,194.5,58,194z"/>
		</g>
		<path class="st12" d="M16.1,180.5"/>
		<path class="st13" d="M50.1,191"/>
		<g>
			<path class="st8" d="M68.6,203.6c-1.5,0-2.9-0.2-4.4-0.4c-0.7-0.1-1.5-0.3-2.2-0.5c-0.7-0.2-1.5-0.4-2.1-0.8
				c0.3,0.2,0.7,0.2,1.1,0.3c0.4,0.1,0.7,0.1,1.1,0.2l2.2,0.4C65.7,203,67.1,203.2,68.6,203.6z"/>
		</g>
		<g>
			<path class="st8" d="M64.9,206.2c-0.9,0.2-1.8,0.1-2.7,0c-0.5-0.1-0.9-0.2-1.3-0.3c-0.4-0.2-0.9-0.4-1.2-0.7
				c0.4,0.2,0.9,0.3,1.3,0.3c0.4,0.1,0.9,0.2,1.3,0.2C63.2,205.8,64,205.9,64.9,206.2z"/>
		</g>
		<g>
			<g>
				<path class="st8" d="M46.6,73.2c1-1.1,2.5-1.7,4-2c1.5-0.3,3-0.3,4.5,0c1.5,0.3,2.9,0.8,4.2,1.4c0.7,0.3,1.3,0.7,1.9,1.1
					c0.6,0.4,1.2,0.9,1.7,1.4c-0.7-0.2-1.4-0.5-2-0.8l-2-0.8c-1.4-0.4-2.7-0.9-4.1-1.1c-1.4-0.3-2.7-0.4-4.1-0.3
					C49.3,72.4,47.9,72.7,46.6,73.2z"/>
			</g>
			<path d="M59,81.7c0.1,2.6-1.1,4.8-2.7,4.9c-1.6,0.1-3-2-3.1-4.6c-0.1-2.6,1.1-4.8,2.7-4.9C57.6,77,58.9,79.1,59,81.7z"/>
		</g>
		<g>
			<g>
				<path class="st8" d="M81.1,76c1.3-0.7,2.8-1.2,4.2-1.5c1.5-0.4,2.9-0.6,4.5-0.6c1.5,0,3.1,0.1,4.5,0.7c1.4,0.6,2.8,1.7,3.1,3.2
					c-0.9-1.2-2.1-1.9-3.5-2.3c-1.3-0.3-2.8-0.4-4.2-0.4c-1.4,0-2.9,0.1-4.3,0.3L81.1,76z"/>
			</g>
			<path d="M90.8,84.3c0.1,2.6-1.1,4.8-2.7,4.9c-1.6,0.1-3-2-3.1-4.6c-0.1-2.6,1.1-4.8,2.7-4.9C89.3,79.6,90.7,81.6,90.8,84.3z"/>
		</g>
		<g>
			<path class="st8" d="M60.5,99.7c0.7,0.6,1.6,0.9,2.5,1.2c0.9,0.3,1.8,0.5,2.6,0.7c1.8,0.4,3.6,0.6,5.4,0.7
				c1.8,0.1,3.7,0.1,5.5-0.1c1.8-0.2,3.6-0.6,5.3-1.5c-1.3,1.4-3.2,2.1-5.1,2.5c-1.9,0.4-3.8,0.5-5.7,0.4c-1.9-0.1-3.8-0.4-5.6-1
				c-0.9-0.3-1.8-0.7-2.6-1.1C61.9,101,61.1,100.5,60.5,99.7z"/>
		</g>
	</g>
</g>
</svg>
