<?xml version="1.0" encoding="utf-8"?>
<!-- Generator: Adobe Illustrator 27.5.0, SVG Export Plug-In . SVG Version: 6.00 Build 0)  -->
<svg version="1.1" id="Layer_1" xmlns="http://www.w3.org/2000/svg" xmlns:xlink="http://www.w3.org/1999/xlink" x="0px" y="0px"
	 viewBox="0 0 600 600" style="enable-background:new 0 0 600 600;" xml:space="preserve">
<style type="text/css">
	.st0{fill:#847264;}
	.st1{fill:#6D5C51;}
	.st2{fill:#F0D4C8;}
	.st3{fill:#E19495;}
	.st4{fill:#D1B6A3;}
	.st5{fill:#B3B3B3;}
	.st6{fill:#707070;}
	.st7{opacity:0.25;fill:#020202;enable-background:new    ;}
	.st8{fill:#C67C7F;}
	.st9{fill:#3D3D3D;}
	.st10{fill:none;}
	.st11{fill:#F0D4C8;stroke:#000000;stroke-width:2.2374;stroke-miterlimit:10;}
	.st12{fill:#565656;stroke:#3D3D3D;stroke-width:3.1458;stroke-miterlimit:10;}
	.st13{fill:#F0D4C8;stroke:#000000;stroke-width:2;stroke-miterlimit:10;}
</style>
<g>
	<path class="st0" d="M416.5,79.7c0,0-18.7-37-66.7-36.6c-36.1,0.3-68.5,18.1-89,47.4c-19.6,28-21.2,42.7-33.1,98.6
		c-9.3,43.7-33.5,50-61.1,78.1c-19.9,20.2-7.8,59.4,2.3,72.2c8,10.2,15.8,21.4,30.2,35.6c17.2,16.9,57.4,27.7,60.8,25.1
		s145,22.4,145,22.4s20.3-7.6,42.7-12.8c31.4-7.4,49.2-60.6,28.2-100.7c-28.4-54.3-42.9-35.9-32.5-99.7
		C451.6,158.6,457.7,96.8,416.5,79.7z"/>
	<path class="st1" d="M241.2,239.6c-15,29.5-41.9,12.5-61.4,56.5c-12.4,28.1,42.2,86.4,42.2,86.4s191.8,40.4,216.5,18.2
		s16.5-59-7.5-89.8s-33.9-65.2-21.8-97.8c9.9-26.7,15.3-39.5,1-76.5C395,97.3,255.4,174,248.1,182.8
		C240.8,191.6,253.2,216,241.2,239.6z"/>
	<path class="st2" d="M325.5,265.4c21.4-4.6,49.1-7.1,70.8-44.6c0,0,4.9,9.3,17.4-7.1c15.2-19.9,4.9-36.5-9.8-20.7
		c0,0,2.1-3.9,4.9-19.5c4.9-27.6-3.6-51.5-20.2-58.1c0,0-4.6-24.5-41.4-30.1c-18.7-2.8-32.5,2.1-44.4,8.6s-28,9.8-45.4,52.2
		c-6.2,15.1-7.2,36.8-7.2,36.8s-3.1,21.2,3.5,36.5c9,21,26,38,26,38"/>
	<path class="st3" d="M218.6,282.3c0.1,11.8,21,8.4,10.3,49.2c-5.4,20.6-4.5,25.9-7.8,42.9c-5.7,29.1,10.3,39.2,8.5,25.2l152.8,14.6
		c0,0,14.5,17.7,39.2,2.1c19-12,0-118-13-123.7c-24.7-10.7-30.6-16.6-70.5-22.3c0,0,14.6,18.3-36.4,18.3
		c-35.1,0.1-18.1-22.4-18.1-22.4s-2.6,0-6.8,0.1c-0.8,0-3.7,1-4.7,1.1C254,268.1,218.5,270.8,218.6,282.3z"/>
	<path class="st4" d="M368.1,91.7c0,0-40.7-7.4-71.4,11.6c-24.8,15.4-36.2,35.8-44.1,62.6c0,0,5.2-34.8,26.9-56.1
		c18.9-18.5,37.9-24,53.9-25.2C351.4,83.2,368.1,91.7,368.1,91.7z"/>
	<path class="st4" d="M388.4,115.4c0,0,15.2,15.4,15.8,38.6c0.4,18,3.1,26.1-3.6,47.9c0,0,10.8-27.2,9.5-45.7
		c-1.2-18.4-7-28.3-11.3-33.4S388.4,115.4,388.4,115.4z"/>
	<path class="st5" d="M429.8,409.3c0,0,4.5-0.5,21.9,2.5s5.9,19.8,3.6,31.2c-2.3,11.4-44.1,100.5-54,103.6
		c-9.9,3-334.2-34.1-333.5-51.5c0.8-17.4,93.5-107,93.5-107L429.8,409.3z"/>
	<path class="st6" d="M410,417.4c0,0,6.9-0.8,22.1,1.2s5.1,19.5,3.1,27S400,523,391.4,525s-293.7-33.6-293-45.1
		C99.1,468.4,179,396,179,396L410,417.4z"/>
	<path class="st7" d="M265.6,402.1c0,0,60,21.2,86,23.2s22-2,35,5s54-11,45-19s-112-12-112-12l-134.2-13l5.1,12.6L265.6,402.1z"/>
	<path class="st7" d="M171.7,399.6c0,0-9.1,5.8,5.9,22.8s47,29,62,37s38,1,39-15s-39-37-22-39S200.8,396.8,171.7,399.6z"/>
	<path class="st3" d="M158.1,368.2c-3.5,27.9,15.4,42.7,27.1,51.6c18.7,14.3,59.4,33.5,59.4,33.5s1-20.2,13-22c0,0-43.3-37.9-51-54
		s18.2-40,28.4-53.8c0,0-1.7-62.1-22.4-40.5S159.8,354.3,158.1,368.2z"/>
	<path class="st2" d="M281.7,257.6c0,0,4.5,14.5-5.1,18.7c-9,4,1,18,35.1,18.6c21.9,0.4,36.9-9.6,32.1-12.5c-3.1-1.8-3-1.6-6.2-8.6
		c-3-6.5,2.9-12.7,2.9-12.7"/>
	<path class="st8" d="M234.5,321.3c0,0-9.7,49.1,2,62c6,6.5,95.8,31.1,119,4c8-9.4,10-40-7-77c-3.4-7.5-15-19.5-9-21c4-1,9-7,2-7
		c-2,0-9-13.5-1-13c15,1,54,17,66,23c12.6,6.3,35.4,91.6,16,111c-10,10-96-4.1-103-4s-97-8-98-12
		C218.3,374.3,223.5,340.3,234.5,321.3z"/>
	<path class="st4" d="M297.5,264.3c0,0,11.8,2,21,2c10,0,21-5,21-5s-2.9,6.4-2.5,11.5c0.5,6.5,9,11,9,11s-7.8,9-8.5,5.5
		c-2-10-10-11-17-13c-14.6-4.2-16.4-3.7-21-6c-6-3-11-9-11-9s7,4,17,5"/>
	<g>
		<path class="st9" d="M388.4,113.4c-1.7-3.4-3.9-6.6-6.4-9.5s-5.2-5.5-8.3-7.8c-6-4.6-13.1-7.7-20.5-9.2c-7.4-1.6-15-1.6-22.5-0.6
			s-14.8,2.9-21.9,5.5s-13.8,6.1-19.9,10.4c-6.1,4.4-11.5,9.7-16,15.6c-4.5,6-8.2,12.6-11,19.5c-2.9,7-4.9,14.2-6.5,21.7
			c-0.8,3.7-1.4,7.5-2.1,11.2c-0.7,3.8-1.3,7.6-2.1,11.3c-1.5,7.5-3.1,15.1-5.4,22.5c-2.2,7.4-5,14.7-8.7,21.6
			c-3.7,6.9-8.4,13.3-14.3,18.5c-5.8,5.3-12.8,9.3-20.2,11.8c-7.2,2.4-14.1,5.7-20,10.4c-2.9,2.4-5.5,5.1-7.6,8.2s-3.6,6.6-4.5,10.3
			c-0.9,3.7-1.1,7.5-0.7,11.3c0.4,3.8,1.2,7.6,2.7,11.1c-3.2-6.9-4.4-15-2.8-22.6c0.8-3.8,2.2-7.5,4.3-10.8s4.7-6.3,7.7-8.8
			c5.9-5.1,13.1-8.6,20.3-11.3c7-2.7,13.6-6.6,19-11.7c5.5-5.1,9.8-11.3,13.3-18s6.1-13.8,8.2-21.1s3.7-14.7,5.2-22.2
			c0.7-3.7,1.4-7.5,2-11.3c0.7-3.8,1.2-7.6,2.1-11.4c1.6-7.6,3.8-15.1,6.8-22.3c3-7.2,6.8-14.1,11.6-20.3
			c4.8-6.2,10.5-11.7,16.9-16.2c3.2-2.3,6.6-4.2,10.1-6s7.1-3.3,10.7-4.6c7.3-2.6,14.9-4.4,22.7-5.3c7.7-0.8,15.6-0.5,23.2,1.3
			C369,88.5,382.3,99.3,388.4,113.4z"/>
	</g>
	<g>
		<path class="st9" d="M422.7,215.5c-0.5,8.9-2,17.8-2.6,26.6s0.1,17.6,2.7,25.9c1.2,4.2,2.9,8.2,4.8,12.1s4.1,7.8,6.4,11.5
			s4.9,7.4,7.4,11.1s5,7.4,7.4,11.2c4.8,7.6,9.4,15.4,12.8,23.8c1.7,4.2,3,8.6,3.7,13.1s0.9,9.1,0.4,13.6c-0.3,2.3-0.8,4.5-1.3,6.7
			s-1.1,4.4-1.7,6.5c-1.3,4.3-2.9,8.5-4.8,12.6c-2,4-4.4,7.9-7.4,11.2c-1.5,1.7-3.2,3.2-5,4.5s-3.8,2.4-6,2.9
			c2.2-0.6,4.1-1.8,5.8-3.1c1.8-1.4,3.3-2.9,4.8-4.6c2.9-3.4,5.1-7.3,6.9-11.3s3.3-8.2,4.4-12.5c0.6-2.1,1.1-4.3,1.5-6.5
			c0.5-2.2,0.8-4.3,1-6.5s0.2-4.4,0.1-6.5c-0.1-2.2-0.4-4.3-0.8-6.5c-0.9-4.3-2.3-8.5-4-12.5c-3.4-8.1-8.1-15.7-13-23
			c-4.9-7.4-10.1-14.6-15.2-22.1c-2.5-3.8-4.8-7.7-6.8-11.8c-2-4.1-3.7-8.4-4.9-12.8c-1.3-4.4-2-9-2.3-13.5c-0.3-4.6,0-9.1,0.5-13.6
			C418.7,232.9,420.9,224.3,422.7,215.5z"/>
	</g>
	<g>
		<path class="st9" d="M389.6,115.4c6.4,3.5,11.8,8.9,15.5,15.2c1.8,3.2,3.2,6.7,4.1,10.3c0.5,1.8,0.7,3.6,0.9,5.5l0.4,2.7
			c0.1,0.9,0.2,1.8,0.3,2.7c0.8,7.3,0.6,14.8-0.6,22.1c-0.3,1.8-0.7,3.6-1.1,5.4c-0.5,1.8-1,3.6-1.5,5.3c-0.6,1.7-1.2,3.5-1.9,5.2
			c-0.6,1.7-1.4,3.3-1.9,5.1c-0.1-0.9,0-1.9,0.1-2.8c0.1-0.9,0.2-1.8,0.4-2.7l0.9-5.4c0.3-1.8,0.6-3.5,0.8-5.3
			c0.3-1.8,0.5-3.5,0.7-5.3c0.8-7.1,1.2-14.2,1.3-21.4l0.1-5.4c-0.1-1.8-0.3-3.5-0.7-5.3c-0.7-3.5-1.8-6.9-3.4-10.1
			c-1.6-3.2-3.7-6.2-6.1-8.8C395.4,119.8,392.7,117.3,389.6,115.4z"/>
	</g>
	<g>
		<path class="st9" d="M395.2,107.2c0.1-2.5,0.7-5,1.6-7.3s2.2-4.5,3.8-6.5c1.6-2,3.5-3.8,5.8-5c2.3-1.3,5-1.9,7.5-1.4
			c-2.3,1.1-4.2,2.3-5.8,3.9c-1.7,1.5-3.1,3.2-4.6,5c-1.4,1.8-2.8,3.7-4.1,5.6C398.1,103.2,396.7,105.2,395.2,107.2z"/>
	</g>
	<g>
		<path class="st9" d="M417.5,78.7c-2.2-4.2-5.2-8.1-8.4-11.6c-3.2-3.5-6.8-6.7-10.6-9.5c-7.7-5.6-16.4-9.6-25.6-11.9
			c-9.2-2.4-18.7-3-28.2-2.5c-9.5,0.6-18.8,2.3-28,4.9c-9.1,2.6-18.1,5.7-26.4,10.2c-8.3,4.4-15.9,10.1-22.5,16.8
			s-12,14.5-16.3,22.9c-4.4,8.4-7.6,17.3-10.4,26.3c-2.8,9.1-5,18.4-7.3,27.7c-2.2,9.3-4.3,18.6-6.5,28c-2.3,9.3-4.7,18.7-8.4,27.7
			s-8.7,17.5-14.8,25c-3,3.8-6.4,7.3-10,10.6s-7.3,6.3-11.1,9.2s-7.6,5.8-11.3,8.8s-7.2,6.1-10.2,9.8c-3,3.6-5.3,7.7-6.6,12.3
			c-0.6,2.3-1,4.6-1.3,7s-0.5,4.7-0.5,7.1c-0.1,4.8,0.1,9.5,0.7,14.3c0.3,2.4,0.7,4.7,1.2,7.1c0.3,1.2,0.6,2.3,0.9,3.5
			c0.4,1.1,0.8,2.3,1.5,3.3c-0.7-1-1.2-2.1-1.6-3.2c-0.4-1.1-0.8-2.3-1.1-3.4c-0.6-2.3-1.1-4.7-1.5-7c-0.8-4.7-1.1-9.6-1.1-14.4
			s0.4-9.6,1.4-14.4c1.1-4.8,3.4-9.2,6.4-13.1s6.6-7.2,10.2-10.3c3.7-3.1,7.5-6.1,11.2-9.1s7.3-6.1,10.7-9.4
			c3.4-3.3,6.6-6.8,9.5-10.5c5.9-7.4,10.7-15.6,14.2-24.3s5.9-18,8.1-27.3c2.2-9.3,4.2-18.7,6.4-28s4.4-18.7,7.2-27.9
			s6.2-18.3,10.7-27c4.5-8.6,10.1-16.7,17-23.7c6.9-6.9,14.9-12.8,23.5-17.2c8.6-4.5,17.9-7.7,27.2-10.1c9.3-2.4,18.9-4.1,28.6-4.5
			s19.4,0.5,28.8,3.1c9.3,2.6,18.2,7,25.8,12.9C406.8,62.7,413.3,70.1,417.5,78.7z"/>
	</g>
	<g>
		<path class="st9" d="M248.2,178.8c-0.5,4.6-0.5,9.2-0.2,13.8s0.9,9.1,1.8,13.6c1,4.5,2.3,8.8,4.2,13c0.9,2.1,2,4.1,3.1,6.1
			s2.2,4,3.3,6c4.6,7.9,10.1,15.3,17,21.1c6.8,5.8,15.2,9.6,24.1,10.9c4.4,0.7,8.9,0.8,13.4,0.5s9-0.9,13.5-1.7
			c9-1.6,17.8-4,26.3-7.3c4.2-1.6,8.4-3.5,12.3-5.6c4-2.2,7.7-4.6,11-7.6s6.3-6.3,8.9-10c2.6-3.6,5-7.6,6.9-11.6l1-2l1.5,1.5
			c0.1,0.1,0.4,0.3,0.6,0.5s0.5,0.3,0.7,0.5c0.5,0.3,1,0.5,1.6,0.7c1.1,0.3,2.2,0.4,3.4,0.2c2.3-0.4,4.5-1.8,6.4-3.5
			c0.9-0.9,1.8-1.8,2.7-2.9c0.8-1,1.6-2.1,2.4-3.2c1.5-2.2,2.9-4.5,4-6.9s1.9-4.9,2.3-7.5c0.3-2.6,0.1-5.3-1.3-7.5
			c-0.7-1.1-1.7-1.9-2.9-2.4c-1.2-0.5-2.5-0.6-3.8-0.4c-2.6,0.3-5.1,1.6-7.4,3.1c2.1-1.6,4.6-3,7.3-3.6c1.4-0.2,2.8-0.2,4.2,0.2
			c1.4,0.5,2.6,1.4,3.4,2.5c1.7,2.4,2,5.4,1.8,8.1c-0.2,2.8-1,5.5-2,8.1s-2.3,5-3.8,7.3c-0.7,1.2-1.5,2.3-2.3,3.4
			c-0.8,1.1-1.7,2.2-2.7,3.2c-2,2-4.4,3.9-7.5,4.5c-1.5,0.3-3.1,0.3-4.7-0.1c-0.8-0.2-1.5-0.5-2.2-0.8c-0.7-0.4-1.3-0.7-2-1.4
			l2.5-0.5c-1,2.2-2,4.3-3.2,6.3s-2.4,4-3.8,6c-2.7,3.9-5.7,7.6-9.2,10.8s-7.5,5.9-11.7,8.1c-4.1,2.3-8.4,4.2-12.8,5.9
			c-8.7,3.3-17.8,5.7-27,7.3c-4.6,0.8-9.2,1.4-13.9,1.7c-4.7,0.2-9.5,0-14.1-0.8c-4.7-0.8-9.3-2.2-13.6-4.2c-2.1-1-4.2-2.2-6.2-3.5
			s-3.8-2.8-5.6-4.3c-7.1-6.3-12.5-14.1-16.9-22.2c-2.2-4.1-4.3-8.2-6.1-12.5s-3-8.8-3.8-13.4C247.1,197.3,246.9,187.9,248.2,178.8z
			"/>
	</g>
	<g>
		<path class="st9" d="M278.5,255c1.8,1.4,3.1,3.3,4.1,5.4c0.9,2.1,1.4,4.5,1.2,6.8c-0.2,2.4-0.8,4.7-2.3,6.7
			c-1.4,1.9-3.6,3.4-6,3.4c1.8-1.3,3-2.9,3.8-4.7c0.8-1.7,1.3-3.7,1.4-5.6c0.2-1.9,0-3.9-0.4-5.9C280,259.1,279.3,257.1,278.5,255z"
			/>
	</g>
	<g>
		<path class="st9" d="M340,261.8c-1,1.7-1.6,3.5-1.8,5.4c-0.3,1.8-0.1,3.7,0.2,5.5c0.4,1.8,0.9,3.6,1.7,5.3
			c0.8,1.7,1.8,3.2,3.5,4.3c-1,0-2-0.5-2.9-1.1c-0.8-0.6-1.6-1.4-2.1-2.3c-1.2-1.8-1.7-3.8-2.1-5.8c-0.3-2-0.2-4.2,0.3-6.1
			C337.4,265,338.5,263.1,340,261.8z"/>
	</g>
	<g>
		<path class="st9" d="M278.4,266.3c-1.6,0-3.2,0.4-4.8,0.9c-1.5,0.6-3,1.3-4.3,2.2c-2.6,1.8-4.9,4.3-5.5,7.3
			c-0.3,1.5-0.1,3,0.4,4.4s1.4,2.7,2.4,3.9c2,2.4,4.6,4.3,7.3,6c2.7,1.7,5.6,3.1,8.6,4.2c3,1.2,6.1,2.1,9.2,2.8
			c6.3,1.4,12.7,2.2,19.1,2.4c6.4,0.2,12.9-0.1,19.3-1.2c6.3-1.1,12.6-2.7,18.1-5.9c2.7-1.6,5.2-3.6,6.7-6.2
			c0.7-1.3,1.2-2.7,1.4-4.2c0.2-1.5,0-3.1-0.4-4.5s-1.4-2.6-2.6-3.5c-1.2-1-2.6-1.7-4.1-2.4c-1.5-0.6-3-1.1-4.6-1.5s-3.2-0.8-4.8-1
			c3.3,0.1,6.6,0.6,9.7,1.7c1.6,0.5,3.1,1.2,4.6,2.2c1.4,1,2.7,2.3,3.4,4c0.6,1.7,0.8,3.4,0.8,5.2c-0.1,1.8-0.6,3.5-1.4,5.1
			c-1.7,3.2-4.4,5.5-7.2,7.3c-2.9,1.8-6,3.1-9.2,4.2s-6.4,1.9-9.7,2.4c-6.6,1.1-13.2,1.6-19.8,1.3c-6.6-0.3-13.2-1-19.7-2.7
			c-6.4-1.6-12.8-4-18.3-7.8c-2.8-1.9-5.4-4-7.5-6.7c-1-1.4-1.9-2.9-2.5-4.5c-0.5-1.7-0.7-3.5-0.2-5.2c0.4-1.7,1.4-3.2,2.5-4.5
			s2.5-2.3,3.9-3.1C271.8,267.2,275.1,266.1,278.4,266.3z"/>
	</g>
	<g>
		<path class="st9" d="M265.9,267c-3,0.1-6,0.4-9,0.7c-3,0.3-6,0.7-8.9,1.2c-5.9,1-11.8,2.3-17.4,4.2c-2.8,1-5.6,2.1-8.1,3.5
			c-2.6,1.4-5,3.1-7,5.1c-4,4.4-8,8.9-11.8,13.6c-3.8,4.6-7.4,9.4-10.9,14.2c-3.5,4.9-6.8,9.9-10,14.9c-3.2,5.1-6.2,10.3-9,15.5
			c-2.9,5.3-5.5,10.6-8.5,16c-1.5,2.6-2.9,5.2-4.1,7.9c-1.2,2.6-2.1,5.4-2.6,8.2c-0.5,2.8-0.5,5.6-0.2,8.4c0.4,2.8,1.2,5.6,2.2,8.2
			c1.1,2.7,2.5,5.2,4.1,7.7c0.8,1.2,1.7,2.4,2.5,3.6c0.9,1.2,1.8,2.3,2.8,3.4c3.8,4.5,8.1,8.7,12.6,12.6s9.2,7.6,14.1,11.1
			c4.9,3.5,9.9,6.8,15,9.9c10.3,6.3,21,11.8,32,16.6c-2.8-1-5.7-2.1-8.5-3.2c-2.8-1.2-5.6-2.4-8.3-3.6c-5.5-2.5-10.9-5.2-16.2-8.1
			c-10.6-5.8-20.8-12.5-30.1-20.3c-4.7-3.9-9.1-8.1-13.2-12.7c-1-1.1-2-2.4-2.9-3.6s-1.9-2.5-2.7-3.8c-1.7-2.6-3.3-5.3-4.5-8.2
			c-1.2-2.9-2.2-6-2.6-9.1c-0.4-3.2-0.4-6.4,0.2-9.6c1.1-6.3,4.1-12,7-17.2s5.6-10.6,8.5-15.9s6-10.5,9.2-15.7
			c6.6-10.2,13.8-20,21.7-29.1c2-2.3,4-4.5,6.1-6.8c2-2.2,4.2-4.4,6.3-6.5c2.3-2.2,4.9-3.9,7.7-5.3s5.6-2.5,8.6-3.3
			c5.8-1.7,11.8-2.8,17.8-3.5C253.9,267.3,259.9,266.9,265.9,267z"/>
	</g>
	<g>
		<path class="st9" d="M249.2,422.8c-8.1-5.5-15.8-11.6-23.1-18.2c-3.6-3.3-7.2-6.8-10.5-10.4c-3.3-3.7-6.5-7.6-9-12
			c-1.2-2.2-2.4-4.6-3-7.2c-0.1-0.3-0.2-0.7-0.2-1l-0.1-0.5c0-0.2-0.1-0.3-0.1-0.6c-0.1-0.9,0.1-1.7,0.2-2.4
			c0.3-1.4,0.8-2.6,1.3-3.8c2.1-4.7,4.6-8.9,7.3-13c1.3-2.1,2.7-4.1,4.2-6.1c1.4-2,2.9-4,4.4-5.9c3-3.9,6.1-7.7,9.4-11.3
			c-4.9,8.5-10.2,16.7-15.1,25.1c-1.2,2.1-2.4,4.2-3.6,6.3c-1.1,2.1-2.2,4.2-3.1,6.4c-0.4,1.1-0.8,2.2-1.1,3.1
			c-0.1,0.5-0.2,1-0.2,1.2c0,0,0,0.2,0,0.3l0.1,0.4c0,0.3,0.1,0.5,0.2,0.8c0.5,2.1,1.5,4.2,2.6,6.3c2.3,4.1,5.2,8,8.3,11.6
			c3.1,3.7,6.4,7.3,9.8,10.7C234.7,409.8,241.9,416.4,249.2,422.8z"/>
	</g>
	<g>
		<path class="st9" d="M218.8,264.6c2.1,0,4.3-0.3,6.3-0.8c2.1-0.5,4.1-1.1,6-1.9s3.8-1.7,5.6-2.8c1.8-1,3.5-2.3,5.1-3.6
			c0.8-0.6,1.5-1.4,2.3-2.1c0.7-0.8,1.4-1.5,2-2.3c1.3-1.6,2.3-3.4,3.3-5.2c0.9-1.9,1.5-3.9,1.8-5.9c0.4-2.1,0.5-4.2,0.2-6.3
			c0.7,2.1,0.8,4.3,0.7,6.4c-0.1,2.2-0.6,4.4-1.4,6.4c-1.6,4.1-4.4,7.8-7.8,10.6s-7.3,5-11.4,6.3c-2.1,0.7-4.2,1.1-6.4,1.4
			C223.1,265,221,265,218.8,264.6z"/>
	</g>
	<g>
		<path class="st9" d="M367.8,277c4.4,0.9,8.8,1.9,13.1,3.1c4.3,1.2,8.6,2.5,12.9,4.1c4.2,1.5,8.4,3.3,12.4,5.5c1,0.6,2,1.2,3,1.8
			c0.5,0.3,0.9,0.7,1.4,1c0.6,0.5,1,0.9,1.4,1.4c1.6,2,2.6,4.1,3.6,6.1c1.9,4.2,3.4,8.5,4.7,12.8c1.3,4.3,2.5,8.7,3.5,13.1
			c2.1,8.8,3.7,17.6,4.9,26.5c1.2,8.9,2.1,17.9,2.3,26.9c0.1,4.5,0,9.1-0.4,13.6s-1,9.1-2.4,13.6c-0.7,2.2-1.6,4.5-2.8,6.6
			c-1.2,2.1-2.9,4.1-5.3,5.4c-0.3,0.2-0.6,0.3-0.9,0.4l-0.8,0.4l-1.6,0.7c-1.1,0.4-2.2,0.8-3.3,1.2c-2.2,0.7-4.5,1.3-6.8,1.6
			c-2.3,0.3-4.7,0.3-7,0s-4.6-1-6.8-2c-4.2-2-7.7-5.5-9.5-9.6c2.6,3.6,6.3,6.3,10.3,7.7c4,1.4,8.4,1.5,12.5,0.7
			c2.1-0.4,4.2-0.9,6.2-1.7c1-0.3,2-0.8,3-1.2l1.5-0.7l0.7-0.3c0.2-0.1,0.4-0.2,0.6-0.3c1.6-0.9,2.9-2.4,3.9-4.1s1.8-3.7,2.4-5.8
			c1.2-4.1,1.8-8.4,2.2-12.8c0.4-4.4,0.4-8.8,0.4-13.2c-0.2-8.8-1-17.7-2.1-26.5c-1.2-8.8-2.8-17.6-4.7-26.2
			c-1-4.3-2.1-8.6-3.3-12.9c-1.3-4.2-2.6-8.4-4.4-12.4c-0.9-2-1.9-3.9-3.1-5.5c-0.3-0.4-0.6-0.7-0.9-1l-1.2-1
			c-0.9-0.6-1.8-1.2-2.7-1.8c-3.7-2.3-7.7-4.2-11.8-6C384.8,282.8,376.3,279.7,367.8,277z"/>
	</g>
	<g>
		<path class="st9" d="M153.5,393.2c-9.8,9.7-19.5,19.5-29.1,29.4s-19,20-28.1,30.3c-4.6,5.2-9,10.4-13.4,15.7
			c-4.3,5.4-8.5,10.8-12,16.7c-0.8,1.5-1.6,3-2.3,4.5c-0.3,0.8-0.6,1.5-0.7,2.3c-0.1,0.4-0.1,0.8-0.1,1c0,0.1,0.1,0.4,0.3,0.6
			c0.4,0.5,1.1,1,1.7,1.4c0.7,0.4,1.4,0.8,2.2,1.2c1.5,0.7,3.1,1.3,4.7,1.9c6.4,2.3,13.1,4,19.8,5.6c13.4,3.2,26.9,5.8,40.4,8.3
			c13.5,2.5,27.1,4.8,40.7,7.1c27.2,4.5,54.4,8.6,81.7,12.5c27.3,3.8,54.6,7.6,81.9,11c13.7,1.7,27.3,3.4,41,4.8
			c6.8,0.7,13.7,1.4,20.5,1.7c0.8,0,1.7,0,2.4,0c0.2,0,0.4,0,0.5,0c0.2,0,0.1,0,0.2,0c0.2-0.1,0.4-0.3,0.7-0.5
			c1.1-0.9,2.1-2.3,3.1-3.7c1.9-2.7,3.7-5.7,5.4-8.6c6.7-11.9,12.7-24.4,18.5-36.8c5.8-12.5,11.4-25.1,16.8-37.7
			c2.7-6.3,5.4-12.7,7.9-19.1c1.3-3.2,2.5-6.4,3.7-9.6c0.6-1.6,1.1-3.2,1.5-4.9c0.4-1.7,0.8-3.4,1.2-5c0.4-1.7,0.8-3.4,0.5-4.9
			c-0.1-0.8-0.5-1.4-1.1-2c-0.6-0.5-1.3-1-2-1.3c-1.5-0.7-3.2-1.2-4.8-1.6c-1.7-0.4-3.3-0.7-5-1.1c-3.4-0.6-6.8-1.2-10.2-1.8
			c-1.7-0.3-3.4-0.5-5.1-0.7s-3.4-0.4-5.1-0.4c1.7-0.1,3.4,0.1,5.2,0.2c1.7,0.2,3.4,0.4,5.1,0.6c3.4,0.4,6.8,1,10.2,1.5
			c1.7,0.3,3.4,0.6,5.1,1s3.4,0.8,5,1.5c0.8,0.4,1.6,0.8,2.3,1.4c0.7,0.6,1.2,1.5,1.4,2.5c0.3,1.9-0.1,3.6-0.4,5.3
			c-0.4,1.7-0.7,3.4-1.1,5c-0.3,1.8-0.9,3.4-1.4,5c-1.1,3.3-2.3,6.5-3.5,9.8c-2.4,6.5-4.9,12.9-7.5,19.3
			c-5.2,12.8-10.6,25.5-16.3,38c-5.7,12.6-11.5,25.1-18.1,37.3c-1.7,3-3.4,6-5.4,9c-1,1.5-2.1,2.9-3.6,4.3c-0.4,0.3-0.8,0.7-1.5,1
			c-0.3,0.1-0.8,0.3-1.1,0.3c-0.3,0-0.5,0.1-0.8,0.1c-1,0-1.8,0-2.7,0c-7-0.3-13.8-1-20.7-1.6c-13.7-1.4-27.4-2.9-41.1-4.6
			c-27.4-3.3-54.7-6.9-82-10.9s-54.5-8.2-81.7-12.8c-13.6-2.3-27.2-4.7-40.7-7.4s-27-5.5-40.4-8.9c-6.7-1.7-13.4-3.5-19.9-5.9
			c-1.6-0.6-3.3-1.3-4.9-2c-0.8-0.4-1.6-0.8-2.4-1.3s-1.5-1-2.2-1.9c-0.3-0.4-0.7-1-0.7-1.7c0-0.2,0-0.3,0-0.4s0-0.3,0-0.4
			c0-0.2,0.1-0.5,0.1-0.7c0.2-0.9,0.5-1.8,0.8-2.6c0.7-1.7,1.5-3.2,2.4-4.7c3.6-6,8-11.4,12.3-16.7c4.4-5.3,9-10.5,13.6-15.6
			C113.9,431.7,133.5,412.2,153.5,393.2z"/>
	</g>
	<g>
		<path class="st9" d="M161.3,406.1c-8.1,8-16.1,16.2-24,24.4c-7.9,8.3-15.7,16.6-23.1,25.3c-3.7,4.3-7.3,8.7-10.7,13.3
			c-1.7,2.3-3.3,4.6-4.7,7.1c-0.7,1.2-1.3,2.5-1.8,3.7c-0.2,0.6-0.4,1.3-0.5,1.8v0.2c0,0.1,0,0,0,0s0,0.1,0.1,0.1
			c0.1,0.1,0.3,0.3,0.5,0.5c1,0.7,2.3,1.3,3.6,1.8c1.3,0.5,2.6,1,4,1.4c2.7,0.8,5.4,1.5,8.2,2.2c5.5,1.3,11.1,2.5,16.7,3.6
			c11.2,2.2,22.4,4,33.7,5.8c11.3,1.7,22.5,3.5,33.8,5.1c22.6,3.2,45.2,6.3,67.9,9.2c22.6,2.8,45.3,5.7,68,8.2
			c11.3,1.3,22.7,2.5,34,3.6c5.7,0.5,11.4,1.1,17,1.5c1.4,0.1,2.8,0.2,4.2,0.2c0.7,0,1.4,0,2,0h0.2l0,0c0,0,0.1,0,0.2-0.1
			c0.2-0.1,0.4-0.3,0.6-0.4c0.9-0.8,1.8-1.8,2.7-2.9c0.9-1.1,1.7-2.2,2.5-3.4c3.2-4.6,6.1-9.5,8.9-14.5c2.8-4.9,5.6-9.9,8.2-15
			c5.4-10.1,10.5-20.2,15.5-30.5c2.5-5.1,5-10.3,7.3-15.5c1.2-2.6,2.3-5.2,3.4-7.8c0.5-1.3,1.1-2.6,1.4-4l1.1-4.1
			c0.3-1.3,0.7-2.8,0.1-3.9s-1.9-1.7-3.2-2.2c-2.7-0.9-5.5-1.4-8.3-1.9s-5.6-0.9-8.5-1.1c-1.4-0.1-2.8-0.1-4.3,0
			c-0.7,0-1.4,0.1-2.1,0.3c-0.7,0.2-1.4,0.3-1.9,0.9c0.5-0.6,1.2-0.8,1.9-1c0.7-0.2,1.4-0.3,2.1-0.4c1.4-0.1,2.9-0.2,4.3-0.1
			c2.9,0.1,5.7,0.4,8.6,0.8c2.8,0.4,5.7,0.8,8.5,1.7c0.7,0.2,1.4,0.5,2,0.9c0.7,0.4,1.3,0.9,1.7,1.6c0.4,0.7,0.5,1.6,0.4,2.3
			c0,0.8-0.2,1.5-0.3,2.2l-1,4.2c-0.3,1.4-0.8,2.8-1.3,4.2c-1,2.7-2.1,5.3-3.2,8c-2.2,5.3-4.6,10.5-6.9,15.7
			c-4.8,10.4-9.8,20.7-15,30.8c-2.6,5.1-5.3,10.2-8,15.2c-2.8,5-5.6,10-8.8,14.8c-0.8,1.2-1.6,2.4-2.5,3.6c-0.9,1.2-1.8,2.3-3.1,3.4
			c-0.3,0.3-0.7,0.5-1.1,0.8c-0.2,0.1-0.5,0.3-0.8,0.4c-0.1,0-0.4,0.1-0.5,0.1s-0.3,0-0.4,0.1c-0.9,0.1-1.6,0.1-2.3,0.1
			c-1.5,0-2.9-0.1-4.3-0.2c-5.7-0.3-11.4-0.8-17.1-1.3c-11.4-1-22.8-2.2-34.1-3.4c-22.7-2.5-45.4-5.1-68.1-8.1
			c-22.7-2.9-45.3-6-67.9-9.5c-22.6-3.4-45.1-7.2-67.5-11.8c-5.6-1.2-11.2-2.4-16.7-3.9c-2.8-0.7-5.5-1.5-8.3-2.4
			c-1.4-0.5-2.7-0.9-4.1-1.5s-2.7-1.2-4-2.2c-0.3-0.3-0.7-0.6-0.9-1c-0.1-0.2-0.3-0.5-0.3-0.8c0-0.1,0-0.4,0-0.5v-0.3
			c0.1-0.8,0.3-1.6,0.6-2.3c0.5-1.4,1.3-2.7,2-4c1.5-2.5,3.2-4.8,4.9-7.1c3.5-4.6,7.2-8.9,11-13.2c7.6-8.5,15.5-16.8,23.6-24.9
			C144.8,421.9,153,414,161.3,406.1z"/>
	</g>
	<g>
		<path class="st9" d="M380.9,403c-14.1-0.5-28.1-1.2-42.2-2.1c-7-0.4-14-0.9-21.1-1.4l-21.1-1.5l-21-1.7c-7-0.6-14-1.2-21-1.9
			c-14-1.3-28-2.7-42-4.4c14.1,0.5,28.1,1.2,42.2,2.1c7,0.4,14,0.9,21.1,1.4l21.1,1.5l21,1.7c7,0.6,14,1.2,21,1.9
			C352.9,399.8,366.9,401.3,380.9,403z"/>
	</g>
	<g>
		<path class="st9" d="M421.3,83.9c3,1.8,5.6,4.1,8.1,6.6s4.7,5.2,6.7,8c2,2.9,3.8,5.9,5.4,9c0.7,1.6,1.6,3.1,2.2,4.8
			c0.3,0.8,0.7,1.6,1,2.4l0.9,2.5c2.4,6.6,4,13.5,4.9,20.4c0.9,7,1.2,14,0.9,21c-0.3,7-1,14-2.1,20.9c-0.2,1.7-0.6,3.4-0.9,5.2
			c-0.3,1.7-0.6,3.4-1,5.1c-0.8,3.4-1.6,6.8-2.4,10.2c-1.6,6.7-2.8,13.5-3.7,20.3c-0.9,6.8-1.4,13.7-1.1,20.4
			c0.2,3.4,0.5,6.8,1.2,10.1c0.6,3.3,1.6,6.5,2.8,9.6c2.5,6.2,6.4,11.7,11.2,16.6c4.7,4.9,10,9.5,14.7,14.9c1.2,1.4,2.3,2.8,3.3,4.2
			c1,1.4,2,2.9,3,4.4c1.9,2.9,3.7,6,5.4,9.1c3.2,6.3,5.9,12.9,7.5,19.7c1.6,6.9,2.2,14,1.5,21c-0.6,7-2.5,13.9-5.2,20.3
			c-1.4,3.2-2.9,6.3-4.6,9.4c-1.8,3-3.7,5.9-5.7,8.7c3.7-5.9,7-12,9.4-18.5s3.9-13.3,4.2-20.1c0.4-6.8-0.4-13.7-2.1-20.3
			c-1.7-6.6-4.4-12.9-7.7-18.9c-1.6-3-3.5-5.9-5.4-8.7c-0.9-1.4-2-2.8-3-4.2c-1-1.4-2.1-2.7-3.2-3.9c-4.5-5.1-9.8-9.5-14.7-14.6
			c-2.4-2.6-4.8-5.3-6.8-8.2c-2-3-3.8-6.1-5.2-9.5c-2.8-6.7-4-13.9-4.3-20.9c-0.3-7.1,0.2-14.1,1.2-21.1c0.9-7,2.4-13.8,4-20.6
			c0.9-3.4,1.7-6.7,2.5-10.1c0.4-1.7,0.7-3.4,1.1-5c0.3-1.7,0.7-3.4,1-5.1c1.2-6.8,2-13.6,2.4-20.5c0.8-13.7-0.4-27.6-4.6-40.7
			l-0.8-2.4c-0.3-0.8-0.6-1.6-0.9-2.4c-0.6-1.6-1.3-3.2-2-4.8c-1.5-3.1-3.1-6.1-5-9s-4-5.6-6.3-8.2
			C426.7,88.3,424.1,85.9,421.3,83.9z"/>
	</g>
	<g>
		<path class="st9" d="M277.9,272.3c-1.7,1.1-3,2.7-3.6,4.6c-0.6,1.8-0.3,3.9,0.7,5.5s2.5,2.9,4.2,3.9s3.4,1.8,5.3,2.5
			c1.8,0.7,3.7,1.2,5.6,1.7s3.8,0.9,5.8,1.3c3.9,0.7,7.8,1.2,11.8,1.5c3.9,0.3,7.9,0.4,11.8,0.2c3.9-0.2,7.9-0.7,11.7-1.6
			c1.9-0.4,3.8-1,5.6-1.7c1.8-0.7,3.6-1.5,5.2-2.7c1.6-1.1,3.1-2.5,3.6-4.3c0.2-0.9,0.1-1.9-0.3-2.8s-1.1-1.6-1.9-2.2
			c0.8,0.5,1.6,1.2,2.2,2.1c0.5,0.9,0.8,2,0.6,3c-0.2,1-0.7,2-1.3,2.8c-0.6,0.8-1.4,1.6-2.2,2.2c-3.3,2.5-7.1,4-11,5.1
			c-7.8,2.1-16,2.4-24.1,1.8c-4-0.3-8-0.9-12-1.7c-3.9-0.8-7.9-1.8-11.6-3.4c-1.9-0.8-3.7-1.7-5.4-2.9c-1.7-1.2-3.3-2.6-4.3-4.5
			c-0.5-0.9-0.8-2-0.9-3s0.1-2.1,0.5-3.1C274.6,274.8,276.1,273.2,277.9,272.3z"/>
	</g>
	<g>
		<path class="st9" d="M382.3,414.5c-9.7-0.2-19.3-0.6-29-1.2c-4.8-0.2-9.6-0.6-14.4-0.9l-14.4-1.1l-14.4-1.2
			c-4.8-0.5-9.6-0.9-14.4-1.4c-9.6-1-19.2-2.1-28.8-3.5c9.7,0.1,19.3,0.6,29,1.2c4.8,0.2,9.6,0.6,14.4,0.9l14.4,1.1l14.4,1.2
			c4.8,0.5,9.6,0.9,14.4,1.4C363.1,412,372.7,413.1,382.3,414.5z"/>
	</g>
	<g>
		<path class="st9" d="M230.2,330.4c-1.4,5-2.7,9.9-3.9,14.8c-1.1,4.9-2.1,9.8-2.9,14.8c-0.8,4.9-1.2,9.9-1.5,14.9
			c0,1.3,0,2.5-0.1,3.8c0,1.3,0.1,2.5,0.1,3.8v1.9c0,0.6,0.1,1.3,0.1,1.9c0.1,1.3,0.2,2.5,0.2,3.9c-0.4-1.2-0.9-2.4-1.2-3.7
			c-0.2-0.6-0.4-1.2-0.6-1.9l-0.4-1.9c-0.2-1.3-0.5-2.6-0.7-3.8c-0.2-1.3-0.2-2.6-0.4-3.9s-0.1-2.6-0.1-3.9s0-2.6,0.1-3.9l0.3-3.9
			l0.5-3.9c0.8-5.1,2.1-10.2,3.8-15.1C225.2,339.4,227.3,334.7,230.2,330.4z"/>
	</g>
	<path class="st1" d="M408.9,102.2c0,0,18.9,7.3,25.7,33c7.8,29.8,0,48.9-4.9,54.4c0,0,12.8-24.7-2.4-62.9
		C421.1,111.4,408.9,102.2,408.9,102.2z"/>
	<path class="st1" d="M393.6,87.4c0,0-7.6-14.9-29.7-19.9c-25.7-5.9-41.2,0.4-45.4,4.3c0,0,19.9-10.3,53.2,1.4
		C384.9,77.8,393.6,87.4,393.6,87.4z"/>
	<path class="st1" d="M393.9,81.3c0,0,0.4-8.9-8.5-17.1c-10.3-9.6-19.2-10.7-22.2-10.1c0,0,12,0.5,24.3,14.8
		C392.4,74.6,393.9,81.3,393.9,81.3z"/>
	<g>
		<g>
			<path class="st9" d="M253.2,418.1c1.9,0,1.9-3,0-3S251.3,418.1,253.2,418.1L253.2,418.1z"/>
		</g>
	</g>
	<path class="st2" d="M349,266.6c-2.3-4.3,2.4-21,21.4-22.6c17.6-1.5,20,2.4,22.1,8.1c3.2,8.4,0.7,29-9.3,30.9s-22.1,8.8-24.4-9.1
		C358,266.8,352.9,273.7,349,266.6z"/>
	<path class="st3" d="M390.1,277.2c-7.2,12.7-26.6,6-26.6,6s0.8,88.7,13.8,117.4c13,28.8,37.7,24.7,46.2,9.6
		C432.1,395.2,390.1,277.2,390.1,277.2z"/>
	<g>
		<path class="st9" d="M421.5,404.9c2.4-10.7,1.9-21.8,0.3-32.5c-1.7-10.8-4.4-21.3-7.7-31.7c-3.3-10.4-7.2-20.6-11.5-30.6
			s-8.9-20-14-29.5l2.8,0.5c-1.9,1.8-4.1,3.3-6.4,4.6c-2.4,1.2-4.9,2.1-7.6,2.5s-5.4,0.4-8-0.1c-1.3-0.2-2.6-0.6-3.9-1
			c-0.6-0.2-1.3-0.5-1.9-0.7c-0.6-0.3-1.2-0.5-1.9-0.9l2.8-1.7c0.8,14,1.7,28,2.9,42c1.2,14,2.4,28,4.2,41.9c2,13.8,3.6,28,11,39.8
			c1.8,2.9,4,5.6,6.5,7.9s5.5,4.2,8.7,5.3c3.2,1.1,6.8,1.5,10.2,0.8c3.4-0.6,6.6-2.2,9.3-4.5c-2.6,2.4-5.7,4.2-9.2,5.1
			s-7.2,0.7-10.6-0.4c-3.5-1-6.6-2.9-9.4-5.2c-2.8-2.3-5.2-5-7.2-8s-3.7-6.2-5.1-9.4c-1.4-3.3-2.5-6.7-3.4-10.2
			c-1.7-6.9-2.9-13.9-3.9-20.8c-2-14-3.5-28-4.8-42c-1.2-14-2.3-28-3-42.1l-0.2-3.5l3,1.8c0.4,0.2,0.9,0.5,1.4,0.7s1.1,0.4,1.6,0.6
			c1.1,0.4,2.2,0.7,3.3,0.9c2.3,0.4,4.6,0.5,6.8,0.1c2.3-0.3,4.4-1,6.5-2.1c2-1,3.9-2.4,5.7-4l1.7-1.6l1,2c5.1,9.8,9.6,19.8,13.7,30
			s7.8,20.5,10.9,31.1s5.6,21.3,6.8,32.3c0.6,5.5,0.9,11,0.7,16.5C423.8,394.2,423.1,399.7,421.5,404.9z"/>
	</g>
	<path class="st11" d="M273.1,431.9c0,0,2,9.9,8.3,11.5c11,2.6,5.7-15-4.3-17.4c-6.3-1.5-20.4-5.3-27.3,2.8c0,0-10,9-7.4,17.6"/>
	<path class="st12" d="M279.1,462.2l-49-75.3c0,0,2-10.3,11.1-6.9l49.6,75.5l2.2,15.8L279.1,462.2z"/>
	<path class="st2" d="M256.5,431.3c2.3,3.8,0.1,6.8,14.7,13c9.5,4,17.7-3.3,16.2,6.6c-0.8,4.9-8.9,5.2-8.9,5.2s-7.6,9.4-12.2,9.7
		c-4.9,0.3-15.2,1.4-19.4-5.6c-5.4-9-5.5-32.3,6.9-33.9"/>
	<g>
		<path class="st9" d="M258.2,433.1c0.4,1,0.7,2.1,1.1,3c0.5,0.9,1.3,1.5,2.1,2.1c1.8,1,3.8,1.8,5.7,2.6l3,1.1c1,0.4,2,0.8,3,1.1
			c1.9,0.6,3.9,0.9,5.9,1c2.1,0.1,4.1-0.2,6.5,0c0.6,0.1,1.3,0.2,2,0.4c0.7,0.3,1.5,0.8,2.1,1.5c0.5,0.7,0.8,1.5,0.9,2.2
			s0.1,1.4,0.1,2s-0.1,1.2-0.2,1.8c-0.1,0.7-0.3,1.4-0.7,2.1c-0.7,1.3-1.7,2.3-2.7,3.1c-1,0.8-2.1,1.3-3.2,1.8s-2.2,0.8-3.5,1l1-0.5
			c-2.5,2.2-4.9,4.3-7.7,6.2c-1.4,0.9-2.8,1.8-4.5,2.5c-0.8,0.4-1.7,0.7-2.7,0.9c-1.2,0.2-2,0.1-2.9,0.1c-3.5-0.2-6.8-1.2-9.9-2.6
			c-3.1-1.5-6-3.5-8.1-6.4c-1-1.5-1.7-3-2.4-4.5c-0.6-1.5-1.2-3.1-1.6-4.7c-0.8-3.2-1.1-6.6-0.6-9.9c0.4-3.3,1.7-6.5,3.6-9.1
			c2-2.7,4.6-4.7,7.5-6.1c-2.7,1.8-5.1,4-6.7,6.6c-1.6,2.7-2.5,5.7-2.7,8.8c-0.2,3.1,0.3,6.2,1.2,9.1c0.5,1.5,1,2.9,1.7,4.3
			s1.4,2.8,2.3,3.9c1.8,2.3,4.3,3.9,7.1,5.1c2.8,1.1,5.8,1.8,8.7,2c0.7,0,1.5,0,1.9-0.1c0.5-0.1,1.2-0.4,1.8-0.8
			c1.3-0.7,2.6-1.5,3.8-2.4c2.5-1.8,5-3.7,7.4-5.7l0.4-0.4l0.6-0.1c1.7-0.3,3.7-1,5.1-1.9c0.7-0.5,1.3-1,1.6-1.6
			c0.2-0.3,0.3-0.6,0.3-0.9c0.1-0.5,0.1-0.9,0.2-1.4c0.1-0.9-0.1-1.7-0.2-1.9c-0.1-0.1-0.2-0.3-0.5-0.4s-0.7-0.2-1.1-0.3
			c-1.8-0.3-4.1-0.2-6.3-0.4c-2.2-0.2-4.5-0.7-6.6-1.7c-2-0.9-3.9-1.9-5.8-2.9s-3.8-2-5.6-3.4c-0.9-0.7-1.7-1.6-2.1-2.7
			C258.5,435.2,258.4,434.1,258.2,433.1z"/>
	</g>
	<g>
		<path class="st9" d="M361.7,281.6c-1-0.6-1.7-1.6-2.1-2.7c-0.5-1.1-0.8-2.2-1.2-3.3c-0.3-1.1-0.6-2.2-1.1-3.1
			c-0.2-0.5-0.5-0.8-0.7-0.9c-0.5-0.2-0.9-0.3-1.5-0.4c-1-0.2-2.2-0.3-3.4-0.6c-0.6-0.2-1.3-0.4-1.9-0.8s-1.2-1-1.6-1.6
			c-0.8-1.4-0.8-2.8-0.7-4c0-0.6,0.1-1.3,0.2-1.8l0.2-1.7c0.1-1.1,0.3-2.3,0.6-3.5c0.3-1.2,0.8-2.4,1.4-3.6c1.3-2.3,3.3-4,5.3-5.3
			s4.2-2.4,6.3-3.3c2.2-0.9,4.3-1.6,6.6-2.3c4.5-1.2,9.3-2,14.3-1.1c2.4,0.5,4.9,1.5,6.9,3c2.1,1.6,3.6,3.7,4.6,6s1.5,4.7,1.7,7
			s0.5,4.5,0.4,6.9c0,1.2-0.1,2.4-0.4,3.6s-0.7,2.3-1.2,3.4c-1.1,2.1-2.5,3.9-4.1,5.6c1.1-2,2.2-4,2.9-6.1c0.7-2.1,0.8-4.2,0.6-6.3
			c-0.2-2.2-0.7-4.4-1-6.6s-0.9-4.2-1.8-6s-2.1-3.4-3.7-4.6c-1.6-1.2-3.5-1.9-5.5-2.2c-4-0.7-8.4,0-12.6,1.2s-8.5,2.7-12,5
			c-1.8,1.1-3.3,2.4-4.4,4.1c-1.1,1.6-1.5,3.6-1.9,5.8l-0.3,1.7c-0.1,0.6-0.2,1-0.3,1.6c-0.1,1-0.1,1.9,0.2,2.6
			c0.3,0.7,0.9,1.2,1.9,1.5c0.9,0.4,2.1,0.6,3.2,0.9c0.6,0.2,1.2,0.4,1.7,0.7c0.8,0.5,1.1,1.2,1.3,1.8c0.4,1.2,0.5,2.3,0.7,3.4
			s0.4,2.2,0.7,3.3C360.4,279.8,360.8,280.8,361.7,281.6z"/>
	</g>
	<g>
		<path class="st9" d="M357.1,251.3c0.9-0.2,1.9-0.2,2.8-0.1c0.9,0.1,1.9,0.3,2.8,0.6s1.8,0.7,2.5,1.3s1.4,1.4,1.6,2.3
			c-1.2-1.4-2.8-2.2-4.4-2.7C360.6,252.1,358.9,251.8,357.1,251.3z"/>
	</g>
	<g>
		<path class="st9" d="M366.1,247.5c0.9-0.2,1.9-0.2,2.8-0.1c0.9,0.1,1.9,0.3,2.8,0.6s1.8,0.7,2.5,1.3s1.4,1.4,1.6,2.3
			c-1.2-1.4-2.8-2.2-4.4-2.7C369.7,248.3,367.9,247.9,366.1,247.5z"/>
	</g>
	<g>
		<path class="st9" d="M374.2,244.6c0.9-0.2,1.9-0.2,2.8-0.1c0.9,0.1,1.9,0.3,2.8,0.6s1.8,0.7,2.5,1.3s1.4,1.4,1.6,2.3
			c-1.2-1.4-2.8-2.2-4.4-2.7C377.7,245.4,376,245.1,374.2,244.6z"/>
	</g>
	<g>
		<path class="st9" d="M280.1,457.1c-3.3-0.3-6.6-0.9-9.8-1.8c-1.6-0.4-3.2-0.9-4.8-1.5c-0.8-0.3-1.6-0.6-2.3-0.9
			c-0.4-0.2-0.8-0.4-1.1-0.6l-0.5-0.3l-0.5-0.4c0.7,0.4,1.5,0.6,2.3,0.8l2.4,0.6l4.8,1.2C273.8,455.1,277,455.9,280.1,457.1z"/>
	</g>
	<g>
		<path class="st9" d="M271.5,462.3c-1,0.1-2.1,0.1-3.1,0s-2-0.3-3-0.5c-1-0.3-2-0.6-2.9-1s-1.9-1-2.5-1.8c0.9,0.4,1.9,0.7,2.8,1
			c1,0.3,1.9,0.5,2.9,0.8C267.6,461.2,269.6,461.6,271.5,462.3z"/>
	</g>
	<g>
		<path class="st9" d="M361,280.8c-1.1-1.9-1.9-4-2.4-6.1c-0.6-2.1-0.9-4.3-0.9-6.6c0-1.1,0.1-2.3,0.5-3.4c0.1-0.5,0.5-1.2,0.6-1.5
			c0.1-0.4,0.1-0.8-0.2-1.1c-0.2-0.3-0.7-0.6-1.1-0.7c-0.2-0.1-0.5-0.1-0.5-0.1c-0.2,0-0.4,0.2-0.6,0.3c-0.4,0.3-0.8,0.7-1.2,1.1
			c-0.4,0.4-0.8,0.8-1.2,1.2c0.5-1,1-2,1.8-2.8c0.2-0.2,0.4-0.4,0.8-0.6c0.5-0.2,0.8,0,1.1,0c0.6,0.2,1.2,0.5,1.6,1
			c0.4,0.6,0.5,1.4,0.3,2c-0.2,0.7-0.4,1-0.6,1.5c-0.3,1-0.4,2-0.5,3.1c-0.1,2.1,0.2,4.3,0.6,6.4C359.7,276.7,360.2,278.8,361,280.8
			z"/>
	</g>
	<g>
		<g>
			<path class="st9" d="M261.2,147.2c2.7-1.9,6.2-2.7,9.6-2.7c3.4-0.1,6.8,0.7,10,2c3.2,1.2,6,3.1,8.7,5.1c1.3,1.1,2.5,2.2,3.7,3.4
				c1.1,1.3,2.2,2.5,3.2,3.8c-1.4-0.8-2.8-1.8-4.1-2.7c-1.4-0.9-2.7-1.7-4.1-2.6c-2.8-1.5-5.5-3.1-8.5-4.2c-2.9-1.2-5.9-2-9-2.4
				C267.6,146.5,264.4,146.4,261.2,147.2z"/>
		</g>
		<path class="st9" d="M285.1,171.7c-0.9,6-4.5,10.5-8,9.9c-3.6-0.5-5.7-5.8-4.8-11.8c0.9-6,4.5-10.5,8-9.9
			C283.8,160.4,286,165.7,285.1,171.7z"/>
	</g>
	<g>
		<g>
			<path class="st9" d="M336.1,168.2c3.2-1,6.6-1.4,10-1.6c3.4-0.2,6.8,0,10.2,0.6c1.7,0.3,3.4,0.7,5,1.3s3.2,1.3,4.7,2.4
				c1.5,1,2.8,2.2,3.8,3.7s1.6,3.2,1.7,4.9c-1.4-3.1-3.9-5.2-6.6-6.6c-2.8-1.4-5.9-2.2-9-2.8c-3.2-0.6-6.4-0.9-9.7-1.2L336.1,168.2z
				"/>
		</g>
		<ellipse transform="matrix(0.1412 -0.99 0.99 0.1412 110.168 507.8686)" class="st9" cx="347.8" cy="190.4" rx="11" ry="6.5"/>
	</g>
	<g>
		<path class="st9" d="M281,213.4c0.7,0.8,1.5,1.5,2.3,2.1s1.7,1.2,2.6,1.7c1.8,1.1,3.6,1.9,5.5,2.8c1.9,0.8,3.8,1.5,5.8,2.2
			s3.9,1.3,5.9,1.7c4,1,8,1.8,12.1,2.2c4.1,0.3,8.2,0.2,12.2-1.2c-1.7,1.3-3.8,2.1-5.9,2.7c-2.1,0.5-4.3,0.8-6.4,0.9
			c-4.3,0.1-8.7-0.5-12.8-1.6c-4.2-1.1-8.2-2.6-12-4.7c-1.9-1.1-3.7-2.3-5.3-3.7c-0.8-0.7-1.6-1.5-2.3-2.3
			C282,215.3,281.3,214.4,281,213.4z"/>
	</g>
</g>
</svg>
