<?xml version="1.0" encoding="utf-8"?>
<!-- Generator: Adobe Illustrator 27.5.0, SVG Export Plug-In . SVG Version: 6.00 Build 0)  -->
<svg version="1.1" id="Layer_1" xmlns="http://www.w3.org/2000/svg" xmlns:xlink="http://www.w3.org/1999/xlink" x="0px" y="0px"
	 viewBox="0 0 600 600" style="enable-background:new 0 0 600 600;" xml:space="preserve">
<style type="text/css">
	.st0{fill:#FCE0B7;}
	.st1{fill:#BCBCBC;}
	.st2{fill:#3D3D3D;}
	.st3{fill:#AAAAAA;}
	.st4{fill:none;stroke:#000000;stroke-miterlimit:10;}
</style>
<g>
	<path class="st0" d="M152.1,165.3c0,0-6-19.1-15.7-23.4c-9.7-4.3-26-29.6-14-44.9s26.4-18,40.1-12.5c13.2,5.3,21.6,25.7,13.1,42
		s2.3,30.7,2.3,30.7L152.1,165.3z"/>
	<path class="st1" d="M150.8,167.8c0,0-0.1,3.2,5.6,4.5c5.3,1.3,21.5-1.5,22.6-8.1c1.7-10.7-6.7-6.4-6.7-6.4L150.8,167.8z"/>
	<g>
		<path class="st2" d="M149.1,157.4c-0.9-1.8-2-3.5-3.2-5.1s-2.5-3.1-3.9-4.5s-3-2.6-4.7-3.6c-0.8-0.5-1.7-0.9-2.6-1.4
			c-0.9-0.5-1.8-1.1-2.6-1.7c-3.3-2.5-6.1-5.7-8.4-9.1c-2.3-3.4-4.1-7.2-5.2-11.2c-1.2-4-1.7-8.2-1.3-12.4c0.5-4.2,1.9-8.3,4.2-11.9
			s5.5-6.5,9-8.8c3.5-2.3,7.5-3.9,11.5-4.9c4.1-1,8.3-1.3,12.5-0.9c4.2,0.5,8.4,1.8,12,4.2c7.2,4.7,11.9,12.5,13.4,20.8
			c0.8,4.1,0.7,8.4-0.2,12.6c-0.5,2.1-1.1,4.1-2,6c-0.9,2-1.9,3.6-2.6,5.4c-1.5,3.6-2.4,7.5-2.4,11.4c0,1.9,0.3,3.9,0.8,5.8
			c0.5,1.9,1.3,3.7,2.3,5.3l0.6,1l-1.1,0.1L149.1,157.4z M149.1,157.4l25.9-4.6l-0.4,1.1c-1.3-1.8-2.1-3.7-2.7-5.7
			c-0.6-2-1-4.1-1.1-6.2c-0.2-4.2,0.7-8.4,2.1-12.3c0.7-1.9,1.7-3.8,2.5-5.6c0.8-1.8,1.3-3.6,1.7-5.5c0.8-3.8,0.8-7.7,0-11.5
			c-1.5-7.5-5.9-14.7-12.3-18.8c-3.2-2.1-6.9-3.2-10.7-3.7c-3.8-0.4-7.7-0.2-11.5,0.7c-7.5,1.8-14.6,6-18.9,12.4
			c-2.1,3.2-3.5,6.8-4,10.7c-0.5,3.8-0.1,7.8,0.9,11.5c1,3.8,2.6,7.4,4.7,10.8c2.1,3.3,4.6,6.5,7.7,8.9c0.8,0.6,1.6,1.2,2.4,1.7
			c0.8,0.5,1.8,1,2.6,1.6c1.7,1.2,3.2,2.6,4.6,4.1C145.4,150.1,147.6,153.6,149.1,157.4z"/>
	</g>
	<path class="st3" d="M149.2,167.8c0,0,1.4,5,6.2,6.4c3.5,1,20.7-1.6,23.3-9.4c2.6-7.7-4.9-3.9-4.9-3.9L149.2,167.8z"/>
	<g>
		<g>
			<path class="st2" d="M149.2,167.8c0.7,1.7,1.8,3.3,3.3,4.5c0.7,0.6,1.5,1,2.4,1.3l0.6,0.2c0.2,0,0.4,0.1,0.6,0.1
				c0.4,0,0.9,0,1.3,0c3.7-0.2,7.4-1.1,10.9-2.3c1.7-0.6,3.4-1.4,5-2.3c1.5-0.9,3-2.1,3.8-3.5c0.2-0.4,0.4-0.7,0.5-1.1
				c0.2-0.4,0.3-0.8,0.4-1.2c0.2-0.8,0.3-1.7,0.1-2.1c-0.1-0.2-0.2-0.3-0.5-0.3c-0.3-0.1-0.6-0.1-1,0c-0.8,0.1-1.7,0.4-2.4,0.7h-0.1
				H174c-4,1-8,2-12.2,3L149.2,167.8z M149.2,167.8l11.9-3.9c4.1-1.3,8.2-2.6,12.4-3.8l-0.2,0.1c0.9-0.5,1.9-0.8,2.9-1
				c0.5-0.1,1.1-0.1,1.8,0s1.4,0.6,1.7,1.3s0.4,1.3,0.4,1.9c0,0.6-0.1,1.1-0.2,1.6c-0.1,0.5-0.2,1-0.4,1.5s-0.4,1-0.7,1.5
				c-1.2,1.8-2.8,3.1-4.5,4.1s-3.5,1.7-5.4,2.3c-1.8,0.6-3.7,1-5.6,1.3c-1.9,0.3-3.8,0.5-5.8,0.4c-0.5,0-1-0.1-1.5-0.1
				c-0.2,0-0.5-0.1-0.8-0.2l-0.7-0.3c-0.9-0.4-1.7-1-2.4-1.7C150.7,171.4,149.7,169.7,149.2,167.8z"/>
		</g>
	</g>
	<g>
		<path class="st3" d="M171.7,146.1c-6.4,2-18.5,7.7-24.6,8.4c-4.1,0.5-4.9,10.9,4.3,7.7c4.5-1.6,19.1-4.3,23.5-7
			C179.5,152.4,176.5,144.6,171.7,146.1z"/>
		<path class="st2" d="M171.7,146.2c-3.2,1-6.1,2.5-9.1,4s-6,2.7-9.3,3.7c-1.6,0.4-3.3,0.8-4.9,1.1l-1.3,0.1c-0.3,0-0.7,0.1-1,0.3
			c-0.6,0.4-1.1,1-1.3,1.8c-0.5,1.4-0.4,3.2,0.6,4.3c1.1,1.1,2.8,1.1,4.3,0.7c0.8-0.2,1.5-0.5,2.3-0.8s1.6-0.5,2.4-0.8
			c1.6-0.5,3.2-0.9,4.8-1.4c3.2-0.9,6.4-1.7,9.5-2.7c1.6-0.4,3.1-1,4.6-1.5c0.4-0.1,0.7-0.3,1-0.5s0.6-0.3,0.9-0.6
			c0.5-0.4,0.9-1,1.2-1.7c0.2-0.7,0.3-1.4,0.2-2.2s-0.3-1.5-0.8-2.2c-0.4-0.7-1-1.2-1.8-1.5C173.3,146,172.5,146,171.7,146.2z
			 M171.7,146c0.8-0.2,1.7-0.3,2.5,0s1.5,0.8,2.1,1.5s1,1.5,1.2,2.3c0.2,0.9,0.3,1.8,0.1,2.7s-0.6,1.8-1.3,2.5
			c-0.3,0.3-0.7,0.7-1.1,0.9c-0.4,0.2-0.8,0.5-1.2,0.6c-1.6,0.8-3.2,1.3-4.7,1.8c-3.2,1-6.4,1.7-9.7,2.5l-4.8,1.1l-2.4,0.5
			c-0.8,0.2-1.6,0.5-2.5,0.6s-1.8,0.2-2.6,0c-0.9-0.2-1.7-0.6-2.4-1.3c-1.2-1.4-1.3-3.4-0.8-5c0.3-0.8,0.7-1.6,1.5-2.2
			c0.4-0.3,0.8-0.5,1.3-0.6l1.2-0.3c1.6-0.4,3.1-1,4.6-1.6c3.1-1.1,6.1-2.3,9.3-3.2C165.4,148.1,168.5,147.1,171.7,146z"/>
	</g>
	<g>
		<path class="st3" d="M175.8,153.6c-5.6,1.7-18.8,6.8-24.8,7.5c-7.4,0.9-4.9,10.9,4.3,7.7c4.5-1.6,16.7-3.6,21.1-6.3
			C180.9,159.7,180.6,152.1,175.8,153.6z"/>
		<path class="st2" d="M175.8,153.7c-3.1,1-6.1,2.4-9.1,3.7s-6.1,2.4-9.3,3.2c-1.6,0.4-3.2,0.7-4.9,0.9c-0.8,0.1-1.7,0.1-2.4,0.3
			c-0.8,0.1-1.5,0.5-2.1,0.9c-1.1,1-1.5,2.8-0.7,4.1c0.3,0.7,0.9,1.2,1.6,1.5c0.4,0.1,0.7,0.3,1,0.4c0.4,0,0.7,0.2,1.1,0.2
			c0.4,0,0.8,0,1.1,0l1.1-0.2c0.4-0.1,0.7-0.2,1.1-0.4c0.4-0.1,0.7-0.2,1.1-0.4c1.6-0.6,3.2-1,4.7-1.4c3.2-0.8,6.3-1.7,9.4-2.5
			c1.6-0.4,3.1-0.9,4.5-1.5c1.5-0.6,2.7-1.2,3.6-2.4c0.9-1.2,1.5-2.7,1.3-4.3c-0.1-0.8-0.5-1.5-1.1-1.9
			C177.4,153.5,176.6,153.5,175.8,153.7z M175.8,153.5c0.8-0.2,1.7-0.3,2.5,0.1c0.8,0.4,1.3,1.2,1.5,2s0.2,1.7,0.1,2.6
			c-0.1,0.9-0.4,1.7-0.8,2.5c-0.8,1.6-2.4,2.8-4,3.5c-1.5,0.7-3.1,1.2-4.7,1.7c-3.2,0.9-6.4,1.6-9.6,2.3c-1.6,0.4-3.2,0.7-4.7,1.1
			c-0.7,0.2-1.6,0.4-2.5,0.6l-1.3,0.1c-0.4,0-0.9-0.1-1.3-0.1c-0.4,0-0.9-0.2-1.3-0.3c-0.4-0.1-0.8-0.4-1.2-0.6
			c-0.7-0.5-1.4-1.2-1.7-2c-0.9-1.6-0.4-3.7,0.9-4.9c1.3-1.2,3.2-1.5,4.7-1.8c1.6-0.4,3.1-0.9,4.6-1.4c3.1-1,6.2-2,9.3-2.8
			C169.5,155.4,172.7,154.6,175.8,153.5z"/>
	</g>
	<g>
		<path class="st2" d="M106.9,99.3c-1.8-0.4-3.6-1-5.3-1.7c-1.7-0.7-3.4-1.4-5-2.2c-1.6-0.8-3.3-1.7-4.8-2.6
			c-1.6-0.9-3.1-1.9-4.6-3.1c1.8,0.4,3.6,1,5.3,1.7c1.7,0.7,3.4,1.4,5,2.2c1.6,0.8,3.3,1.7,4.8,2.6
			C103.9,97.2,105.4,98.2,106.9,99.3z"/>
	</g>
	<g>
		<path class="st2" d="M140.3,73.6c-0.7-1.7-1.2-3.5-1.7-5.3s-0.8-3.6-1.2-5.4c-0.3-1.8-0.6-3.6-0.7-5.4c-0.2-1.8-0.3-3.7-0.2-5.5
			c0.7,1.7,1.3,3.5,1.7,5.3c0.5,1.8,0.8,3.6,1.2,5.4c0.3,1.8,0.6,3.6,0.7,5.4C140.3,69.9,140.4,71.7,140.3,73.6z"/>
	</g>
	<g>
		<path class="st2" d="M177.5,80.3c0.8-1.7,1.7-3.3,2.7-4.8s2-3,3.1-4.5s2.3-2.9,3.5-4.2c1.2-1.4,2.5-2.7,3.9-3.9
			c-0.8,1.7-1.7,3.3-2.7,4.8s-2,3-3.1,4.5s-2.3,2.9-3.5,4.2S178.9,79.1,177.5,80.3z"/>
	</g>
	<g>
		<path class="st2" d="M157.1,151.7c-1-2.8-2.1-5.5-3.3-8.2s-2.4-5.4-4-7.7c-1.6-2.4-3.4-4.7-5.5-6.6c-1.1-0.9-2.2-1.7-3.5-2.2
			c-0.6-0.2-1.3-0.4-1.9-0.4c-0.6,0-0.9,0.2-1.1,0.5c-0.2,0.4-0.1,1,0.1,1.6c0.2,0.6,0.6,1.2,1,1.6c0.9,1,2.1,1.5,3.5,1.6
			c2.7,0.2,5.6-0.9,7.8-2.7c1.1-0.9,2-2.1,2.3-3.4c0.4-1.4,0.6-2.9,0.5-4.3s-0.4-2.9-1-4.2c-0.6-1.2-1.2-2.9-2.4-3.1
			c-0.6-0.1-1.1,0.3-1.5,0.8s-0.6,1.2-0.7,1.8c-0.2,1.4,0.1,2.7,0.7,4.1c0.5,1.3,1.1,2.7,1.8,3.9s1.6,2.3,2.7,3
			c0.5,0.4,1.1,0.6,1.7,0.7c0.6,0.1,1.2,0,1.8-0.2c1.3-0.4,2.5-1.1,3.6-2s2.1-1.9,2.8-3c0.4-0.5,0.7-1.1,0.7-1.6c0-0.1,0-0.2,0-0.4
			c0-0.2,0-0.3,0-0.5c0-0.3-0.1-0.6-0.2-0.9c-0.1-0.6-0.5-1.1-0.7-1.1c-0.1,0-0.2,0-0.4,0c-0.2,0.1-0.5,0.3-0.7,0.4
			c-0.4,0.3-0.7,1-1,1.6s-0.5,1.3-0.7,2c-0.4,1.4-0.7,2.8-0.8,4.2s-0.1,2.8,0.2,4.1c0.8,2.9,1.2,5.8,1.8,8.7c0.5,2.9,1,5.8,1.4,8.7
			h-0.2l-2.1-8.6c-0.7-2.9-1.4-5.7-2.2-8.5c-0.5-1.5-0.5-3.1-0.5-4.6c0.1-1.5,0.4-3,0.8-4.5c0.2-0.7,0.4-1.5,0.8-2.2
			c0.3-0.7,0.7-1.4,1.4-2.1c0.4-0.3,0.7-0.6,1.2-0.8c0.5-0.2,1.1-0.3,1.7-0.1c0.6,0.2,1,0.7,1.3,1.1s0.4,0.8,0.5,1.3
			c0.1,0.4,0.2,0.8,0.2,1.2c0,0.2,0,0.4,0,0.6s0,0.5,0,0.7c-0.2,1-0.6,1.7-1,2.4c-0.9,1.3-2,2.4-3.3,3.4c-1.2,0.9-2.6,1.7-4.2,2.2
			c-0.8,0.2-1.7,0.3-2.5,0.2c-0.9-0.1-1.7-0.5-2.3-1c-1.4-1-2.3-2.3-3-3.6c-0.7-1.4-1.3-2.8-1.7-4.2c-0.5-1.4-0.8-3-0.5-4.6
			c0.2-0.8,0.4-1.6,1-2.2c0.5-0.6,1.3-1.2,2.3-1c0.9,0.2,1.5,0.9,1.9,1.6s0.7,1.3,0.9,2c0.5,1.4,0.9,2.9,0.9,4.4
			c0.1,1.5-0.1,3-0.5,4.5c-0.3,1.5-1.3,2.8-2.4,3.8c-2.3,2-5.2,3.4-8.4,3.3c-0.8,0-1.6-0.2-2.4-0.4c-0.8-0.3-1.5-0.8-2.1-1.4
			c-0.6-0.6-1-1.3-1.4-2.1c-0.3-0.8-0.5-1.7-0.2-2.7c0.2-0.5,0.6-1,1.1-1.2s1-0.3,1.4-0.3c0.9,0,1.6,0.3,2.4,0.5
			c1.5,0.6,2.8,1.5,3.9,2.5c2.3,2.1,4,4.5,5.6,7s2.7,5.3,3.8,8.1c1,2.8,1.9,5.6,2.6,8.5L157.1,151.7z"/>
	</g>
</g>
</svg>
