<?xml version="1.0" encoding="utf-8"?>
<!-- Generator: Adobe Illustrator 23.0.3, SVG Export Plug-In . SVG Version: 6.00 Build 0)  -->
<svg version="1.1" xmlns="http://www.w3.org/2000/svg" xmlns:xlink="http://www.w3.org/1999/xlink" x="0px" y="0px"
	 viewBox="0 0 600 600" style="enable-background:new 0 0 600 600;" xml:space="preserve">
<style type="text/css">
	.st0{fill:#ABD3D0;}
	.st1{fill:#DAF2EE;}
	.st2{fill:#CFE8E1;}
	.st3{fill:#847264;}
	.st4{fill:#6D5C51;}
	.st5{fill:#F0D6C5;}
	.st6{fill:#8CB2AE;}
	.st7{fill:#D1B6A3;}
	.st8{fill:#B3B3B3;}
	.st9{fill:#707070;}
	.st10{opacity:0.25;fill:#020202;}
	.st11{fill:#709C9A;}
	.st12{fill:none;}
	.st13{fill:#F0D6C5;stroke:#000000;stroke-width:2.2374;stroke-miterlimit:10;}
	.st14{fill:#565656;stroke:#000000;stroke-width:3.1458;stroke-miterlimit:10;}
	.st15{fill:#F0D6C5;stroke:#000000;stroke-width:2;stroke-miterlimit:10;}
	.st16{fill:#FCE9B9;}
	.st17{fill:#BCBCBC;}
	.st18{fill:#AAAAAA;}
	.st19{fill:none;stroke:#000000;stroke-miterlimit:10;}
</style>
<g id="圖層_2">
	<polygon class="st0" points="130.4,232.2 361.1,36 277.9,36 47.2,232.2 	"/>
	<circle class="st1" cx="347.4" cy="341.8" r="236.7"/>
	<polygon class="st2" points="439.8,586 575.3,470.8 526.5,470.8 391,586 	"/>
</g>
<g id="圖層_1">
	<path class="st3" d="M438.1,83.4c0,0-18.7-37-66.7-36.6c-36.1,0.3-68.5,18.1-89,47.4c-19.6,28-21.2,42.7-33.1,98.6
		c-9.3,43.7-33.5,50-61.1,78.1c-19.9,20.2-7.8,59.4,2.3,72.2c8,10.2,15.8,21.4,30.2,35.6c17.2,16.9,57.4,27.7,60.8,25.1
		c3.4-2.6,145,22.4,145,22.4s20.3-7.6,42.7-12.8c31.4-7.4,49.2-60.6,28.2-100.7c-28.4-54.3-42.9-35.9-32.5-99.7
		C473.2,162.3,479.3,100.5,438.1,83.4z"/>
	<path class="st4" d="M262.8,243.3c-15,29.5-41.9,12.5-61.4,56.5c-12.4,28.1,42.2,86.4,42.2,86.4s191.8,40.4,216.5,18.2
		s16.5-59-7.5-89.8c-24-30.8-33.9-65.2-21.8-97.8c9.9-26.7,15.3-39.5,1-76.5C416.6,101,277,177.7,269.7,186.5
		C262.4,195.3,274.8,219.7,262.8,243.3z"/>
	<path class="st5" d="M347.1,269.1c21.4-4.6,49.1-7.1,70.8-44.6c0,0,4.9,9.3,17.4-7.1c15.2-19.9,4.9-36.5-9.8-20.7
		c0,0,2.1-3.9,4.9-19.5c4.9-27.6-3.6-51.5-20.2-58.1c0,0-4.6-24.5-41.4-30.1c-18.7-2.8-32.5,2.1-44.4,8.6
		c-11.9,6.5-28,9.8-45.4,52.2c-6.2,15.1-7.2,36.8-7.2,36.8s-3.1,21.2,3.5,36.5c9,21,26,38,26,38"/>
	<path class="st6" d="M240.2,286c0.1,11.8,21,8.4,10.3,49.2c-5.4,20.6-4.5,25.9-7.8,42.9c-5.7,29.1,10.3,39.2,8.5,25.2L404,417.9
		c0,0,14.5,17.7,39.2,2.1c19-12,0-118-13-123.7c-24.7-10.7-30.6-16.6-70.5-22.3c0,0,14.6,18.3-36.4,18.3
		c-35.1,0.1-18.1-22.4-18.1-22.4s-2.6,0-6.8,0.1c-0.8,0-3.7,1-4.7,1.1C275.6,271.8,240.1,274.5,240.2,286z"/>
	<path class="st7" d="M389.7,95.4c0,0-40.7-7.4-71.4,11.6c-24.8,15.4-36.2,35.8-44.1,62.6c0,0,5.2-34.8,26.9-56.1
		C320,95,339,89.5,355,88.3C373,86.9,389.7,95.4,389.7,95.4z"/>
	<path class="st7" d="M410,119.1c0,0,15.2,15.4,15.8,38.6c0.4,18,3.1,26.1-3.6,47.9c0,0,10.8-27.2,9.5-45.7
		c-1.2-18.4-7-28.3-11.3-33.4S410,119.1,410,119.1z"/>
	<path class="st8" d="M451.4,413c0,0,4.5-0.5,21.9,2.5c17.4,3,5.9,19.8,3.6,31.2c-2.3,11.4-44.1,100.5-54,103.6
		c-9.9,3-334.2-34.1-333.5-51.5c0.8-17.4,93.5-107,93.5-107L451.4,413z"/>
	<path class="st9" d="M431.6,421.1c0,0,6.9-0.8,22.1,1.2c15.2,2,5.1,19.5,3.1,27c-2,7.5-35.2,77.4-43.8,79.4
		c-8.6,2-293.7-33.6-293-45.1c0.7-11.5,80.6-83.9,80.6-83.9L431.6,421.1z"/>
	<path class="st10" d="M287.2,405.8c0,0,60,21.2,86,23.2s22-2,35,5s54-11,45-19s-112-12-112-12L207,390l5.1,12.6L287.2,405.8z"/>
	<path class="st10" d="M193.3,403.3c0,0-9.1,5.8,5.9,22.8s47,29,62,37c15,8,38,1,39-15s-39-37-22-39S222.4,400.5,193.3,403.3z"/>
	<path class="st6" d="M179.7,371.9c-3.5,27.9,15.4,42.7,27.1,51.6c18.7,14.3,59.4,33.5,59.4,33.5s1-20.2,13-22c0,0-43.3-37.9-51-54
		s18.2-40,28.4-53.8c0,0-1.7-62.1-22.4-40.5S181.4,358,179.7,371.9z"/>
	<path class="st5" d="M303.3,261.3c0,0,4.5,14.5-5.1,18.7c-9,4,1,18,35.1,18.6c21.9,0.4,36.9-9.6,32.1-12.5c-3.1-1.8-3-1.6-6.2-8.6
		c-3-6.5,2.9-12.7,2.9-12.7"/>
	<path class="st11" d="M256.1,325c0,0-9.7,49.1,2,62c6,6.5,95.8,31.1,119,4c8-9.4,10-40-7-77c-3.4-7.5-15-19.5-9-21c4-1,9-7,2-7
		c-2,0-9-13.5-1-13c15,1,54,17,66,23c12.6,6.3,35.4,91.6,16,111c-10,10-96-4.1-103-4c-7,0.1-97-8-98-12
		C239.9,378,245.1,344,256.1,325z"/>
	<path class="st7" d="M319.1,268c0,0,11.8,2,21,2c10,0,21-5,21-5s-2.9,6.4-2.5,11.5c0.5,6.5,9,11,9,11s-7.8,9-8.5,5.5
		c-2-10-10-11-17-13c-14.6-4.2-16.4-3.7-21-6c-6-3-11-9-11-9s7,4,17,5"/>
	<g>
		<path d="M410,117.1c-1.7-3.4-3.9-6.6-6.4-9.5c-2.5-2.9-5.2-5.5-8.3-7.8c-6-4.6-13.1-7.7-20.5-9.2c-7.4-1.6-15-1.6-22.5-0.6
			c-7.5,1-14.8,2.9-21.9,5.5c-7.1,2.6-13.8,6.1-19.9,10.4c-6.1,4.4-11.5,9.7-16,15.6c-4.5,6-8.2,12.6-11,19.5
			c-2.9,7-4.9,14.2-6.5,21.7c-0.8,3.7-1.4,7.5-2.1,11.2c-0.7,3.8-1.3,7.6-2.1,11.3c-1.5,7.5-3.1,15.1-5.4,22.5
			c-2.2,7.4-5,14.7-8.7,21.6c-3.7,6.9-8.4,13.3-14.3,18.5c-5.8,5.3-12.8,9.3-20.2,11.8c-7.2,2.4-14.1,5.7-20,10.4
			c-2.9,2.4-5.5,5.1-7.6,8.2c-2.1,3.1-3.6,6.6-4.5,10.3c-0.9,3.7-1.1,7.5-0.7,11.3c0.4,3.8,1.2,7.6,2.7,11.1
			c-3.2-6.9-4.4-15-2.8-22.6c0.8-3.8,2.2-7.5,4.3-10.8c2.1-3.3,4.7-6.3,7.7-8.8c5.9-5.1,13.1-8.6,20.3-11.3c7-2.7,13.6-6.6,19-11.7
			c5.5-5.1,9.8-11.3,13.3-18c3.5-6.7,6.1-13.8,8.2-21.1c2.1-7.3,3.7-14.7,5.2-22.2c0.7-3.7,1.4-7.5,2-11.3c0.7-3.8,1.2-7.6,2.1-11.4
			c1.6-7.6,3.8-15.1,6.8-22.3c3-7.2,6.8-14.1,11.6-20.3c4.8-6.2,10.5-11.7,16.9-16.2c3.2-2.3,6.6-4.2,10.1-6
			c3.5-1.8,7.1-3.3,10.7-4.6c7.3-2.6,14.9-4.4,22.7-5.3c7.7-0.8,15.6-0.5,23.2,1.3C390.6,92.2,403.9,103,410,117.1z"/>
	</g>
	<g>
		<path d="M444.3,219.2c-0.5,8.9-2,17.8-2.6,26.6c-0.6,8.8,0.1,17.6,2.7,25.9c1.2,4.2,2.9,8.2,4.8,12.1c1.9,3.9,4.1,7.8,6.4,11.5
			c2.3,3.7,4.9,7.4,7.4,11.1c2.5,3.7,5,7.4,7.4,11.2c4.8,7.6,9.4,15.4,12.8,23.8c1.7,4.2,3,8.6,3.7,13.1c0.7,4.5,0.9,9.1,0.4,13.6
			c-0.3,2.3-0.8,4.5-1.3,6.7c-0.5,2.2-1.1,4.4-1.7,6.5c-1.3,4.3-2.9,8.5-4.8,12.6c-2,4-4.4,7.9-7.4,11.2c-1.5,1.7-3.2,3.2-5,4.5
			c-1.8,1.3-3.8,2.4-6,2.9c2.2-0.6,4.1-1.8,5.8-3.1c1.8-1.4,3.3-2.9,4.8-4.6c2.9-3.4,5.1-7.3,6.9-11.3c1.8-4,3.3-8.2,4.4-12.5
			c0.6-2.1,1.1-4.3,1.5-6.5c0.5-2.2,0.8-4.3,1-6.5c0.2-2.2,0.2-4.4,0.1-6.5c-0.1-2.2-0.4-4.3-0.8-6.5c-0.9-4.3-2.3-8.5-4-12.5
			c-3.4-8.1-8.1-15.7-13-23c-4.9-7.4-10.1-14.6-15.2-22.1c-2.5-3.8-4.8-7.7-6.8-11.8c-2-4.1-3.7-8.4-4.9-12.8c-1.3-4.4-2-9-2.3-13.5
			c-0.3-4.6,0-9.1,0.5-13.6C440.3,236.6,442.5,228,444.3,219.2z"/>
	</g>
	<g>
		<path d="M411.2,119.1c6.4,3.5,11.8,8.9,15.5,15.2c1.8,3.2,3.2,6.7,4.1,10.3c0.5,1.8,0.7,3.6,0.9,5.5l0.4,2.7
			c0.1,0.9,0.2,1.8,0.3,2.7c0.8,7.3,0.6,14.8-0.6,22.1c-0.3,1.8-0.7,3.6-1.1,5.4c-0.5,1.8-1,3.6-1.5,5.3c-0.6,1.7-1.2,3.5-1.9,5.2
			c-0.6,1.7-1.4,3.3-1.9,5.1c-0.1-0.9,0-1.9,0.1-2.8c0.1-0.9,0.2-1.8,0.4-2.7l0.9-5.4c0.3-1.8,0.6-3.5,0.8-5.3
			c0.3-1.8,0.5-3.5,0.7-5.3c0.8-7.1,1.2-14.2,1.3-21.4l0.1-5.4c-0.1-1.8-0.3-3.5-0.7-5.3c-0.7-3.5-1.8-6.9-3.4-10.1
			c-1.6-3.2-3.7-6.2-6.1-8.8C417,123.5,414.3,121,411.2,119.1z"/>
	</g>
	<g>
		<path d="M416.8,110.9c0.1-2.5,0.7-5,1.6-7.3c0.9-2.3,2.2-4.5,3.8-6.5c1.6-2,3.5-3.8,5.8-5c2.3-1.3,5-1.9,7.5-1.4
			c-2.3,1.1-4.2,2.3-5.8,3.9c-1.7,1.5-3.1,3.2-4.6,5c-1.4,1.8-2.8,3.7-4.1,5.6C419.7,106.9,418.3,108.9,416.8,110.9z"/>
	</g>
	<g>
		<path d="M439.1,82.4c-2.2-4.2-5.2-8.1-8.4-11.6c-3.2-3.5-6.8-6.7-10.6-9.5c-7.7-5.6-16.4-9.6-25.6-11.9c-9.2-2.4-18.7-3-28.2-2.5
			c-9.5,0.6-18.8,2.3-28,4.9c-9.1,2.6-18.1,5.7-26.4,10.2c-8.3,4.4-15.9,10.1-22.5,16.8c-6.6,6.7-12,14.5-16.3,22.9
			c-4.4,8.4-7.6,17.3-10.4,26.3c-2.8,9.1-5,18.4-7.3,27.7c-2.2,9.3-4.3,18.6-6.5,28c-2.3,9.3-4.7,18.7-8.4,27.7
			c-3.7,9-8.7,17.5-14.8,25c-3,3.8-6.4,7.3-10,10.6c-3.6,3.3-7.3,6.3-11.1,9.2c-3.8,2.9-7.6,5.8-11.3,8.8c-3.7,3-7.2,6.1-10.2,9.8
			c-3,3.6-5.3,7.7-6.6,12.3c-0.6,2.3-1,4.6-1.3,7c-0.3,2.4-0.5,4.7-0.5,7.1c-0.1,4.8,0.1,9.5,0.7,14.3c0.3,2.4,0.7,4.7,1.2,7.1
			c0.3,1.2,0.6,2.3,0.9,3.5c0.4,1.1,0.8,2.3,1.5,3.3c-0.7-1-1.2-2.1-1.6-3.2c-0.4-1.1-0.8-2.3-1.1-3.4c-0.6-2.3-1.1-4.7-1.5-7
			c-0.8-4.7-1.1-9.6-1.1-14.4c0-4.8,0.4-9.6,1.4-14.4c1.1-4.8,3.4-9.2,6.4-13.1c3-3.9,6.6-7.2,10.2-10.3c3.7-3.1,7.5-6.1,11.2-9.1
			c3.7-3,7.3-6.1,10.7-9.4c3.4-3.3,6.6-6.8,9.5-10.5c5.9-7.4,10.7-15.6,14.2-24.3c3.5-8.7,5.9-18,8.1-27.3c2.2-9.3,4.2-18.7,6.4-28
			c2.2-9.3,4.4-18.7,7.2-27.9c2.8-9.2,6.2-18.3,10.7-27c4.5-8.6,10.1-16.7,17-23.7c6.9-6.9,14.9-12.8,23.5-17.2
			c8.6-4.5,17.9-7.7,27.2-10.1c9.3-2.4,18.9-4.1,28.6-4.5c9.7-0.4,19.4,0.5,28.8,3.1c9.3,2.6,18.2,7,25.8,12.9
			C428.4,66.4,434.9,73.8,439.1,82.4z"/>
	</g>
	<g>
		<path d="M269.8,182.5c-0.5,4.6-0.5,9.2-0.2,13.8c0.3,4.6,0.9,9.1,1.8,13.6c1,4.5,2.3,8.8,4.2,13c0.9,2.1,2,4.1,3.1,6.1
			c1.1,2,2.2,4,3.3,6c4.6,7.9,10.1,15.3,17,21.1c6.8,5.8,15.2,9.6,24.1,10.9c4.4,0.7,8.9,0.8,13.4,0.5c4.5-0.3,9-0.9,13.5-1.7
			c9-1.6,17.8-4,26.3-7.3c4.2-1.6,8.4-3.5,12.3-5.6c4-2.2,7.7-4.6,11-7.6c3.3-3,6.3-6.3,8.9-10c2.6-3.6,5-7.6,6.9-11.6l1-2l1.5,1.5
			c0.1,0.1,0.4,0.3,0.6,0.5c0.2,0.2,0.5,0.3,0.7,0.5c0.5,0.3,1,0.5,1.6,0.7c1.1,0.3,2.2,0.4,3.4,0.2c2.3-0.4,4.5-1.8,6.4-3.5
			c0.9-0.9,1.8-1.8,2.7-2.9c0.8-1,1.6-2.1,2.4-3.2c1.5-2.2,2.9-4.5,4-6.9c1.1-2.4,1.9-4.9,2.3-7.5c0.3-2.6,0.1-5.3-1.3-7.5
			c-0.7-1.1-1.7-1.9-2.9-2.4c-1.2-0.5-2.5-0.6-3.8-0.4c-2.6,0.3-5.1,1.6-7.4,3.1c2.1-1.6,4.6-3,7.3-3.6c1.4-0.2,2.8-0.2,4.2,0.2
			c1.4,0.5,2.6,1.4,3.4,2.5c1.7,2.4,2,5.4,1.8,8.1c-0.2,2.8-1,5.5-2,8.1c-1,2.6-2.3,5-3.8,7.3c-0.7,1.2-1.5,2.3-2.3,3.4
			c-0.8,1.1-1.7,2.2-2.7,3.2c-2,2-4.4,3.9-7.5,4.5c-1.5,0.3-3.1,0.3-4.7-0.1c-0.8-0.2-1.5-0.5-2.2-0.8c-0.7-0.4-1.3-0.7-2-1.4
			l2.5-0.5c-1,2.2-2,4.3-3.2,6.3c-1.2,2-2.4,4-3.8,6c-2.7,3.9-5.7,7.6-9.2,10.8c-3.5,3.2-7.5,5.9-11.7,8.1
			c-4.1,2.3-8.4,4.2-12.8,5.9c-8.7,3.3-17.8,5.7-27,7.3c-4.6,0.8-9.2,1.4-13.9,1.7c-4.7,0.2-9.5,0-14.1-0.8
			c-4.7-0.8-9.3-2.2-13.6-4.2c-2.1-1-4.2-2.2-6.2-3.5c-2-1.3-3.8-2.8-5.6-4.3c-7.1-6.3-12.5-14.1-16.9-22.2
			c-2.2-4.1-4.3-8.2-6.1-12.5c-1.8-4.3-3-8.8-3.8-13.4C268.7,201,268.5,191.6,269.8,182.5z"/>
	</g>
	<g>
		<path d="M300.1,258.7c1.8,1.4,3.1,3.3,4.1,5.4c0.9,2.1,1.4,4.5,1.2,6.8c-0.2,2.4-0.8,4.7-2.3,6.7c-1.4,1.9-3.6,3.4-6,3.4
			c1.8-1.3,3-2.9,3.8-4.7c0.8-1.7,1.3-3.7,1.4-5.6c0.2-1.9,0-3.9-0.4-5.9C301.6,262.8,300.9,260.8,300.1,258.7z"/>
	</g>
	<g>
		<path d="M361.6,265.5c-1,1.7-1.6,3.5-1.8,5.4c-0.3,1.8-0.1,3.7,0.2,5.5c0.4,1.8,0.9,3.6,1.7,5.3c0.8,1.7,1.8,3.2,3.5,4.3
			c-1,0-2-0.5-2.9-1.1c-0.8-0.6-1.6-1.4-2.1-2.3c-1.2-1.8-1.7-3.8-2.1-5.8c-0.3-2-0.2-4.2,0.3-6.1
			C359,268.7,360.1,266.8,361.6,265.5z"/>
	</g>
	<g>
		<path d="M300,270c-1.6,0-3.2,0.4-4.8,0.9c-1.5,0.6-3,1.3-4.3,2.2c-2.6,1.8-4.9,4.3-5.5,7.3c-0.3,1.5-0.1,3,0.4,4.4
			c0.5,1.4,1.4,2.7,2.4,3.9c2,2.4,4.6,4.3,7.3,6c2.7,1.7,5.6,3.1,8.6,4.2c3,1.2,6.1,2.1,9.2,2.8c6.3,1.4,12.7,2.2,19.1,2.4
			c6.4,0.2,12.9-0.1,19.3-1.2c6.3-1.1,12.6-2.7,18.1-5.9c2.7-1.6,5.2-3.6,6.7-6.2c0.7-1.3,1.2-2.7,1.4-4.2c0.2-1.5,0-3.1-0.4-4.5
			c-0.4-1.4-1.4-2.6-2.6-3.5c-1.2-1-2.6-1.7-4.1-2.4c-1.5-0.6-3-1.1-4.6-1.5c-1.6-0.4-3.2-0.8-4.8-1c3.3,0.1,6.6,0.6,9.7,1.7
			c1.6,0.5,3.1,1.2,4.6,2.2c1.4,1,2.7,2.3,3.4,4c0.6,1.7,0.8,3.4,0.8,5.2c-0.1,1.8-0.6,3.5-1.4,5.1c-1.7,3.2-4.4,5.5-7.2,7.3
			c-2.9,1.8-6,3.1-9.2,4.2c-3.2,1.1-6.4,1.9-9.7,2.4c-6.6,1.1-13.2,1.6-19.8,1.3c-6.6-0.3-13.2-1-19.7-2.7c-6.4-1.6-12.8-4-18.3-7.8
			c-2.8-1.9-5.4-4-7.5-6.7c-1-1.4-1.9-2.9-2.5-4.5c-0.5-1.7-0.7-3.5-0.2-5.2c0.4-1.7,1.4-3.2,2.5-4.5c1.1-1.3,2.5-2.3,3.9-3.1
			C293.4,270.9,296.7,269.8,300,270z"/>
	</g>
	<g>
		<path d="M287.5,270.7c-3,0.1-6,0.4-9,0.7c-3,0.3-6,0.7-8.9,1.2c-5.9,1-11.8,2.3-17.4,4.2c-2.8,1-5.6,2.1-8.1,3.5
			c-2.6,1.4-5,3.1-7,5.1c-4,4.4-8,8.9-11.8,13.6c-3.8,4.6-7.4,9.4-10.9,14.2c-3.5,4.9-6.8,9.9-10,14.9c-3.2,5.1-6.2,10.3-9,15.5
			c-2.9,5.3-5.5,10.6-8.5,16c-1.5,2.6-2.9,5.2-4.1,7.9c-1.2,2.6-2.1,5.4-2.6,8.2c-0.5,2.8-0.5,5.6-0.2,8.4c0.4,2.8,1.2,5.6,2.2,8.2
			c1.1,2.7,2.5,5.2,4.1,7.7c0.8,1.2,1.7,2.4,2.5,3.6c0.9,1.2,1.8,2.3,2.8,3.4c3.8,4.5,8.1,8.7,12.6,12.6c4.5,3.9,9.2,7.6,14.1,11.1
			c4.9,3.5,9.9,6.8,15,9.9c10.3,6.3,21,11.8,32,16.6c-2.8-1-5.7-2.1-8.5-3.2c-2.8-1.2-5.6-2.4-8.3-3.6c-5.5-2.5-10.9-5.2-16.2-8.1
			c-10.6-5.8-20.8-12.5-30.1-20.3c-4.7-3.9-9.1-8.1-13.2-12.7c-1-1.1-2-2.4-2.9-3.6c-0.9-1.2-1.9-2.5-2.7-3.8
			c-1.7-2.6-3.3-5.3-4.5-8.2c-1.2-2.9-2.2-6-2.6-9.1c-0.4-3.2-0.4-6.4,0.2-9.6c1.1-6.3,4.1-12,7-17.2c2.9-5.2,5.6-10.6,8.5-15.9
			c2.9-5.3,6-10.5,9.2-15.7c6.6-10.2,13.8-20,21.7-29.1c2-2.3,4-4.5,6.1-6.8c2-2.2,4.2-4.4,6.3-6.5c2.3-2.2,4.9-3.9,7.7-5.3
			c2.8-1.4,5.6-2.5,8.6-3.3c5.8-1.7,11.8-2.8,17.8-3.5C275.5,271,281.5,270.6,287.5,270.7z"/>
	</g>
	<g>
		<path d="M270.8,426.5c-8.1-5.5-15.8-11.6-23.1-18.2c-3.6-3.3-7.2-6.8-10.5-10.4c-3.3-3.7-6.5-7.6-9-12c-1.2-2.2-2.4-4.6-3-7.2
			c-0.1-0.3-0.2-0.7-0.2-1l-0.1-0.5c0-0.2-0.1-0.3-0.1-0.6c-0.1-0.9,0.1-1.7,0.2-2.4c0.3-1.4,0.8-2.6,1.3-3.8
			c2.1-4.7,4.6-8.9,7.3-13c1.3-2.1,2.7-4.1,4.2-6.1c1.4-2,2.9-4,4.4-5.9c3-3.9,6.1-7.7,9.4-11.3c-4.9,8.5-10.2,16.7-15.1,25.1
			c-1.2,2.1-2.4,4.2-3.6,6.3c-1.1,2.1-2.2,4.2-3.1,6.4c-0.4,1.1-0.8,2.2-1.1,3.1c-0.1,0.5-0.2,1-0.2,1.2c0,0,0,0.2,0,0.3l0.1,0.4
			c0,0.3,0.1,0.5,0.2,0.8c0.5,2.1,1.5,4.2,2.6,6.3c2.3,4.1,5.2,8,8.3,11.6c3.1,3.7,6.4,7.3,9.8,10.7
			C256.3,413.5,263.5,420.1,270.8,426.5z"/>
	</g>
	<g>
		<path class="st12" d="M241.6,385.7"/>
	</g>
	<g>
		<path d="M240.4,268.3c2.1,0,4.3-0.3,6.3-0.8c2.1-0.5,4.1-1.1,6-1.9c1.9-0.8,3.8-1.7,5.6-2.8c1.8-1,3.5-2.3,5.1-3.6
			c0.8-0.6,1.5-1.4,2.3-2.1c0.7-0.8,1.4-1.5,2-2.3c1.3-1.6,2.3-3.4,3.3-5.2c0.9-1.9,1.5-3.9,1.8-5.9c0.4-2.1,0.5-4.2,0.2-6.3
			c0.7,2.1,0.8,4.3,0.7,6.4c-0.1,2.2-0.6,4.4-1.4,6.4c-1.6,4.1-4.4,7.8-7.8,10.6c-3.4,2.8-7.3,5-11.4,6.3c-2.1,0.7-4.2,1.1-6.4,1.4
			C244.7,268.7,242.6,268.7,240.4,268.3z"/>
	</g>
	<g>
		<path d="M389.4,280.7c4.4,0.9,8.8,1.9,13.1,3.1c4.3,1.2,8.6,2.5,12.9,4.1c4.2,1.5,8.4,3.3,12.4,5.5c1,0.6,2,1.2,3,1.8
			c0.5,0.3,0.9,0.7,1.4,1c0.6,0.5,1,0.9,1.4,1.4c1.6,2,2.6,4.1,3.6,6.1c1.9,4.2,3.4,8.5,4.7,12.8c1.3,4.3,2.5,8.7,3.5,13.1
			c2.1,8.8,3.7,17.6,4.9,26.5c1.2,8.9,2.1,17.9,2.3,26.9c0.1,4.5,0,9.1-0.4,13.6c-0.4,4.5-1,9.1-2.4,13.6c-0.7,2.2-1.6,4.5-2.8,6.6
			c-1.2,2.1-2.9,4.1-5.3,5.4c-0.3,0.2-0.6,0.3-0.9,0.4l-0.8,0.4l-1.6,0.7c-1.1,0.4-2.2,0.8-3.3,1.2c-2.2,0.7-4.5,1.3-6.8,1.6
			c-2.3,0.3-4.7,0.3-7,0c-2.3-0.3-4.6-1-6.8-2c-4.2-2-7.7-5.5-9.5-9.6c2.6,3.6,6.3,6.3,10.3,7.7c4,1.4,8.4,1.5,12.5,0.7
			c2.1-0.4,4.2-0.9,6.2-1.7c1-0.3,2-0.8,3-1.2l1.5-0.7l0.7-0.3c0.2-0.1,0.4-0.2,0.6-0.3c1.6-0.9,2.9-2.4,3.9-4.1
			c1-1.7,1.8-3.7,2.4-5.8c1.2-4.1,1.8-8.4,2.2-12.8c0.4-4.4,0.4-8.8,0.4-13.2c-0.2-8.8-1-17.7-2.1-26.5c-1.2-8.8-2.8-17.6-4.7-26.2
			c-1-4.3-2.1-8.6-3.3-12.9c-1.3-4.2-2.6-8.4-4.4-12.4c-0.9-2-1.9-3.9-3.1-5.5c-0.3-0.4-0.6-0.7-0.9-1l-1.2-1
			c-0.9-0.6-1.8-1.2-2.7-1.8c-3.7-2.3-7.7-4.2-11.8-6C406.4,286.5,397.9,283.4,389.4,280.7z"/>
	</g>
	<g>
		<path class="st12" d="M396.5,290.7"/>
	</g>
	<g>
		<path d="M175.1,396.9c-9.8,9.7-19.5,19.5-29.1,29.4c-9.6,9.9-19,20-28.1,30.3c-4.6,5.2-9,10.4-13.4,15.7
			c-4.3,5.4-8.5,10.8-12,16.7c-0.8,1.5-1.6,3-2.3,4.5c-0.3,0.8-0.6,1.5-0.7,2.3c-0.1,0.4-0.1,0.8-0.1,1c0,0.1,0.1,0.4,0.3,0.6
			c0.4,0.5,1.1,1,1.7,1.4c0.7,0.4,1.4,0.8,2.2,1.2c1.5,0.7,3.1,1.3,4.7,1.9c6.4,2.3,13.1,4,19.8,5.6c13.4,3.2,26.9,5.8,40.4,8.3
			c13.5,2.5,27.1,4.8,40.7,7.1c27.2,4.5,54.4,8.6,81.7,12.5c27.3,3.8,54.6,7.6,81.9,11c13.7,1.7,27.3,3.4,41,4.8
			c6.8,0.7,13.7,1.4,20.5,1.7c0.8,0,1.7,0,2.4,0c0.2,0,0.4,0,0.5,0c0.2,0,0.1,0,0.2,0c0.2-0.1,0.4-0.3,0.7-0.5
			c1.1-0.9,2.1-2.3,3.1-3.7c1.9-2.7,3.7-5.7,5.4-8.6c6.7-11.9,12.7-24.4,18.5-36.8c5.8-12.5,11.4-25.1,16.8-37.7
			c2.7-6.3,5.4-12.7,7.9-19.1c1.3-3.2,2.5-6.4,3.7-9.6c0.6-1.6,1.1-3.2,1.5-4.9c0.4-1.7,0.8-3.4,1.2-5c0.4-1.7,0.8-3.4,0.5-4.9
			c-0.1-0.8-0.5-1.4-1.1-2c-0.6-0.5-1.3-1-2-1.3c-1.5-0.7-3.2-1.2-4.8-1.6c-1.7-0.4-3.3-0.7-5-1.1c-3.4-0.6-6.8-1.2-10.2-1.8
			c-1.7-0.3-3.4-0.5-5.1-0.7c-1.7-0.2-3.4-0.4-5.1-0.4c1.7-0.1,3.4,0.1,5.2,0.2c1.7,0.2,3.4,0.4,5.1,0.6c3.4,0.4,6.8,1,10.2,1.5
			c1.7,0.3,3.4,0.6,5.1,1c1.7,0.4,3.4,0.8,5,1.5c0.8,0.4,1.6,0.8,2.3,1.4c0.7,0.6,1.2,1.5,1.4,2.5c0.3,1.9-0.1,3.6-0.4,5.3
			c-0.4,1.7-0.7,3.4-1.1,5c-0.3,1.8-0.9,3.4-1.4,5c-1.1,3.3-2.3,6.5-3.5,9.8c-2.4,6.5-4.9,12.9-7.5,19.3
			c-5.2,12.8-10.6,25.5-16.3,38c-5.7,12.6-11.5,25.1-18.1,37.3c-1.7,3-3.4,6-5.4,9c-1,1.5-2.1,2.9-3.6,4.3c-0.4,0.3-0.8,0.7-1.5,1
			c-0.3,0.1-0.8,0.3-1.1,0.3c-0.3,0-0.5,0.1-0.8,0.1c-1,0-1.8,0-2.7,0c-7-0.3-13.8-1-20.7-1.6c-13.7-1.4-27.4-2.9-41.1-4.6
			c-27.4-3.3-54.7-6.9-82-10.9c-27.3-4-54.5-8.2-81.7-12.8c-13.6-2.3-27.2-4.7-40.7-7.4c-13.5-2.7-27-5.5-40.4-8.9
			c-6.7-1.7-13.4-3.5-19.9-5.9c-1.6-0.6-3.3-1.3-4.9-2c-0.8-0.4-1.6-0.8-2.4-1.3c-0.8-0.5-1.5-1-2.2-1.9c-0.3-0.4-0.7-1-0.7-1.7
			c0-0.2,0-0.3,0-0.4c0-0.1,0-0.3,0-0.4c0-0.2,0.1-0.5,0.1-0.7c0.2-0.9,0.5-1.8,0.8-2.6c0.7-1.7,1.5-3.2,2.4-4.7
			c3.6-6,8-11.4,12.3-16.7c4.4-5.3,9-10.5,13.6-15.6C135.5,435.4,155.1,415.9,175.1,396.9z"/>
	</g>
	<g>
		<path d="M182.9,409.8c-8.1,8-16.1,16.2-24,24.4c-7.9,8.3-15.7,16.6-23.1,25.3c-3.7,4.3-7.3,8.7-10.7,13.3
			c-1.7,2.3-3.3,4.6-4.7,7.1c-0.7,1.2-1.3,2.5-1.8,3.7c-0.2,0.6-0.4,1.3-0.5,1.8l0,0.2c0,0.1,0,0,0,0c0,0,0,0.1,0.1,0.1
			c0.1,0.1,0.3,0.3,0.5,0.5c1,0.7,2.3,1.3,3.6,1.8c1.3,0.5,2.6,1,4,1.4c2.7,0.8,5.4,1.5,8.2,2.2c5.5,1.3,11.1,2.5,16.7,3.6
			c11.2,2.2,22.4,4,33.7,5.8c11.3,1.7,22.5,3.5,33.8,5.1c22.6,3.2,45.2,6.3,67.9,9.2c22.6,2.8,45.3,5.7,68,8.2
			c11.3,1.3,22.7,2.5,34,3.6c5.7,0.5,11.4,1.1,17,1.5c1.4,0.1,2.8,0.2,4.2,0.2c0.7,0,1.4,0,2,0l0.2,0c0,0,0,0,0,0c0,0,0.1,0,0.2-0.1
			c0.2-0.1,0.4-0.3,0.6-0.4c0.9-0.8,1.8-1.8,2.7-2.9c0.9-1.1,1.7-2.2,2.5-3.4c3.2-4.6,6.1-9.5,8.9-14.5c2.8-4.9,5.6-9.9,8.2-15
			c5.4-10.1,10.5-20.2,15.5-30.5c2.5-5.1,5-10.3,7.3-15.5c1.2-2.6,2.3-5.2,3.4-7.8c0.5-1.3,1.1-2.6,1.4-4l1.1-4.1
			c0.3-1.3,0.7-2.8,0.1-3.9c-0.6-1.1-1.9-1.7-3.2-2.2c-2.7-0.9-5.5-1.4-8.3-1.9c-2.8-0.5-5.6-0.9-8.5-1.1c-1.4-0.1-2.8-0.1-4.3,0
			c-0.7,0-1.4,0.1-2.1,0.3c-0.7,0.2-1.4,0.3-1.9,0.9c0.5-0.6,1.2-0.8,1.9-1c0.7-0.2,1.4-0.3,2.1-0.4c1.4-0.1,2.9-0.2,4.3-0.1
			c2.9,0.1,5.7,0.4,8.6,0.8c2.8,0.4,5.7,0.8,8.5,1.7c0.7,0.2,1.4,0.5,2,0.9c0.7,0.4,1.3,0.9,1.7,1.6c0.4,0.7,0.5,1.6,0.4,2.3
			c0,0.8-0.2,1.5-0.3,2.2l-1,4.2c-0.3,1.4-0.8,2.8-1.3,4.2c-1,2.7-2.1,5.3-3.2,8c-2.2,5.3-4.6,10.5-6.9,15.7
			c-4.8,10.4-9.8,20.7-15,30.8c-2.6,5.1-5.3,10.2-8,15.2c-2.8,5-5.6,10-8.8,14.8c-0.8,1.2-1.6,2.4-2.5,3.6c-0.9,1.2-1.8,2.3-3.1,3.4
			c-0.3,0.3-0.7,0.5-1.1,0.8c-0.2,0.1-0.5,0.3-0.8,0.4c-0.1,0-0.4,0.1-0.5,0.1c-0.1,0-0.3,0-0.4,0.1c-0.9,0.1-1.6,0.1-2.3,0.1
			c-1.5,0-2.9-0.1-4.3-0.2c-5.7-0.3-11.4-0.8-17.1-1.3c-11.4-1-22.8-2.2-34.1-3.4c-22.7-2.5-45.4-5.1-68.1-8.1
			c-22.7-2.9-45.3-6-67.9-9.5c-22.6-3.4-45.1-7.2-67.5-11.8c-5.6-1.2-11.2-2.4-16.7-3.9c-2.8-0.7-5.5-1.5-8.3-2.4
			c-1.4-0.5-2.7-0.9-4.1-1.5c-1.4-0.6-2.7-1.2-4-2.2c-0.3-0.3-0.7-0.6-0.9-1c-0.1-0.2-0.3-0.5-0.3-0.8c0-0.1,0-0.4,0-0.5l0-0.3
			c0.1-0.8,0.3-1.6,0.6-2.3c0.5-1.4,1.3-2.7,2-4c1.5-2.5,3.2-4.8,4.9-7.1c3.5-4.6,7.2-8.9,11-13.2c7.6-8.5,15.5-16.8,23.6-24.9
			C166.4,425.6,174.6,417.7,182.9,409.8z"/>
	</g>
	<g>
		<path d="M402.5,406.7c-14.1-0.5-28.1-1.2-42.2-2.1c-7-0.4-14-0.9-21.1-1.4l-21.1-1.5l-21-1.7c-7-0.6-14-1.2-21-1.9
			c-14-1.3-28-2.7-42-4.4c14.1,0.5,28.1,1.2,42.2,2.1c7,0.4,14,0.9,21.1,1.4l21.1,1.5l21,1.7c7,0.6,14,1.2,21,1.9
			C374.5,403.5,388.5,405,402.5,406.7z"/>
	</g>
	<g>
		<path d="M442.9,87.6c3,1.8,5.6,4.1,8.1,6.6c2.5,2.5,4.7,5.2,6.7,8c2,2.9,3.8,5.9,5.4,9c0.7,1.6,1.6,3.1,2.2,4.8
			c0.3,0.8,0.7,1.6,1,2.4l0.9,2.5c2.4,6.6,4,13.5,4.9,20.4c0.9,7,1.2,14,0.9,21c-0.3,7-1,14-2.1,20.9c-0.2,1.7-0.6,3.4-0.9,5.2
			c-0.3,1.7-0.6,3.4-1,5.1c-0.8,3.4-1.6,6.8-2.4,10.2c-1.6,6.7-2.8,13.5-3.7,20.3c-0.9,6.8-1.4,13.7-1.1,20.4
			c0.2,3.4,0.5,6.8,1.2,10.1c0.6,3.3,1.6,6.5,2.8,9.6c2.5,6.2,6.4,11.7,11.2,16.6c4.7,4.9,10,9.5,14.7,14.9c1.2,1.4,2.3,2.8,3.3,4.2
			c1,1.4,2,2.9,3,4.4c1.9,2.9,3.7,6,5.4,9.1c3.2,6.3,5.9,12.9,7.5,19.7c1.6,6.9,2.2,14,1.5,21c-0.6,7-2.5,13.9-5.2,20.3
			c-1.4,3.2-2.9,6.3-4.6,9.4c-1.8,3-3.7,5.9-5.7,8.7c3.7-5.9,7-12,9.4-18.5c2.4-6.5,3.9-13.3,4.2-20.1c0.4-6.8-0.4-13.7-2.1-20.3
			c-1.7-6.6-4.4-12.9-7.7-18.9c-1.6-3-3.5-5.9-5.4-8.7c-0.9-1.4-2-2.8-3-4.2c-1-1.4-2.1-2.7-3.2-3.9c-4.5-5.1-9.8-9.5-14.7-14.6
			c-2.4-2.6-4.8-5.3-6.8-8.2c-2-3-3.8-6.1-5.2-9.5c-2.8-6.7-4-13.9-4.3-20.9c-0.3-7.1,0.2-14.1,1.2-21.1c0.9-7,2.4-13.8,4-20.6
			c0.9-3.4,1.7-6.7,2.5-10.1c0.4-1.7,0.7-3.4,1.1-5c0.3-1.7,0.7-3.4,1-5.1c1.2-6.8,2-13.6,2.4-20.5c0.8-13.7-0.4-27.6-4.6-40.7
			l-0.8-2.4c-0.3-0.8-0.6-1.6-0.9-2.4c-0.6-1.6-1.3-3.2-2-4.8c-1.5-3.1-3.1-6.1-5-9c-1.9-2.9-4-5.6-6.3-8.2
			C448.3,92,445.7,89.6,442.9,87.6z"/>
	</g>
	<g>
		<path d="M299.5,276c-1.7,1.1-3,2.7-3.6,4.6c-0.6,1.8-0.3,3.9,0.7,5.5c1,1.6,2.5,2.9,4.2,3.9c1.7,1,3.4,1.8,5.3,2.5
			c1.8,0.7,3.7,1.2,5.6,1.7c1.9,0.5,3.8,0.9,5.8,1.3c3.9,0.7,7.8,1.2,11.8,1.5c3.9,0.3,7.9,0.4,11.8,0.2c3.9-0.2,7.9-0.7,11.7-1.6
			c1.9-0.4,3.8-1,5.6-1.7c1.8-0.7,3.6-1.5,5.2-2.7c1.6-1.1,3.1-2.5,3.6-4.3c0.2-0.9,0.1-1.9-0.3-2.8c-0.4-0.9-1.1-1.6-1.9-2.2
			c0.8,0.5,1.6,1.2,2.2,2.1c0.5,0.9,0.8,2,0.6,3c-0.2,1-0.7,2-1.3,2.8c-0.6,0.8-1.4,1.6-2.2,2.2c-3.3,2.5-7.1,4-11,5.1
			c-7.8,2.1-16,2.4-24.1,1.8c-4-0.3-8-0.9-12-1.7c-3.9-0.8-7.9-1.8-11.6-3.4c-1.9-0.8-3.7-1.7-5.4-2.9c-1.7-1.2-3.3-2.6-4.3-4.5
			c-0.5-0.9-0.8-2-0.9-3c-0.1-1,0.1-2.1,0.5-3.1C296.2,278.5,297.7,276.9,299.5,276z"/>
	</g>
	<g>
		<path d="M403.9,418.2c-9.7-0.2-19.3-0.6-29-1.2c-4.8-0.2-9.6-0.6-14.4-0.9l-14.4-1.1l-14.4-1.2c-4.8-0.5-9.6-0.9-14.4-1.4
			c-9.6-1-19.2-2.1-28.8-3.5c9.7,0.1,19.3,0.6,29,1.2c4.8,0.2,9.6,0.6,14.4,0.9l14.4,1.1l14.4,1.2c4.8,0.5,9.6,0.9,14.4,1.4
			C384.7,415.7,394.3,416.8,403.9,418.2z"/>
	</g>
	<g>
		<path d="M251.8,334.1c-1.4,5-2.7,9.9-3.9,14.8c-1.1,4.9-2.1,9.8-2.9,14.8c-0.8,4.9-1.2,9.9-1.5,14.9c0,1.3,0,2.5-0.1,3.8
			c0,1.3,0.1,2.5,0.1,3.8l0,1.9c0,0.6,0.1,1.3,0.1,1.9c0.1,1.3,0.2,2.5,0.2,3.9c-0.4-1.2-0.9-2.4-1.2-3.7c-0.2-0.6-0.4-1.2-0.6-1.9
			l-0.4-1.9c-0.2-1.3-0.5-2.6-0.7-3.8c-0.2-1.3-0.2-2.6-0.4-3.9c-0.2-1.3-0.1-2.6-0.1-3.9c0-1.3,0-2.6,0.1-3.9l0.3-3.9l0.5-3.9
			c0.8-5.1,2.1-10.2,3.8-15.1C246.8,343.1,248.9,338.4,251.8,334.1z"/>
	</g>
	<path class="st4" d="M430.5,105.9c0,0,18.9,7.3,25.7,33c7.8,29.8,0,48.9-4.9,54.4c0,0,12.8-24.7-2.4-62.9
		C442.7,115.1,430.5,105.9,430.5,105.9z"/>
	<path class="st4" d="M415.2,91.1c0,0-7.6-14.9-29.7-19.9c-25.7-5.9-41.2,0.4-45.4,4.3c0,0,19.9-10.3,53.2,1.4
		C406.5,81.5,415.2,91.1,415.2,91.1z"/>
	<path class="st4" d="M415.5,85c0,0,0.4-8.9-8.5-17.1c-10.3-9.6-19.2-10.7-22.2-10.1c0,0,12,0.5,24.3,14.8
		C414,78.3,415.5,85,415.5,85z"/>
	<g>
		<g>
			<path d="M274.8,421.8c1.9,0,1.9-3,0-3C272.9,418.8,272.9,421.8,274.8,421.8L274.8,421.8z"/>
		</g>
	</g>
	<path class="st5" d="M370.6,270.3c-2.3-4.3,2.4-21,21.4-22.6c17.6-1.5,20,2.4,22.1,8.1c3.2,8.4,0.7,29-9.3,30.9
		c-10,1.9-22.1,8.8-24.4-9.1C379.6,270.5,374.5,277.4,370.6,270.3z"/>
	<path class="st6" d="M411.7,280.9c-7.2,12.7-26.6,6-26.6,6s0.8,88.7,13.8,117.4c13,28.8,37.7,24.7,46.2,9.6
		C453.7,398.9,411.7,280.9,411.7,280.9z"/>
	<g>
		<path d="M443.1,408.6c2.4-10.7,1.9-21.8,0.3-32.5c-1.7-10.8-4.4-21.3-7.7-31.7c-3.3-10.4-7.2-20.6-11.5-30.6
			c-4.3-10-8.9-20-14-29.5l2.8,0.5c-1.9,1.8-4.1,3.3-6.4,4.6c-2.4,1.2-4.9,2.1-7.6,2.5c-2.7,0.4-5.4,0.4-8-0.1
			c-1.3-0.2-2.6-0.6-3.9-1c-0.6-0.2-1.3-0.5-1.9-0.7c-0.6-0.3-1.2-0.5-1.9-0.9l2.8-1.7c0.8,14,1.7,28,2.9,42c1.2,14,2.4,28,4.2,41.9
			c2,13.8,3.6,28,11,39.8c1.8,2.9,4,5.6,6.5,7.9c2.5,2.3,5.5,4.2,8.7,5.3c3.2,1.1,6.8,1.5,10.2,0.8c3.4-0.6,6.6-2.2,9.3-4.5
			c-2.6,2.4-5.7,4.2-9.2,5.1c-3.5,0.9-7.2,0.7-10.6-0.4c-3.5-1-6.6-2.9-9.4-5.2c-2.8-2.3-5.2-5-7.2-8c-2-3-3.7-6.2-5.1-9.4
			c-1.4-3.3-2.5-6.7-3.4-10.2c-1.7-6.9-2.9-13.9-3.9-20.8c-2-14-3.5-28-4.8-42c-1.2-14-2.3-28-3-42.1l-0.2-3.5l3,1.8
			c0.4,0.2,0.9,0.5,1.4,0.7c0.5,0.2,1.1,0.4,1.6,0.6c1.1,0.4,2.2,0.7,3.3,0.9c2.3,0.4,4.6,0.5,6.8,0.1c2.3-0.3,4.4-1,6.5-2.1
			c2-1,3.9-2.4,5.7-4l1.7-1.6l1,2c5.1,9.8,9.6,19.8,13.7,30c4.1,10.2,7.8,20.5,10.9,31.1c3.1,10.6,5.6,21.3,6.8,32.3
			c0.6,5.5,0.9,11,0.7,16.5C445.4,397.9,444.7,403.4,443.1,408.6z"/>
	</g>
	<path class="st13" d="M294.7,435.6c0,0,2,9.9,8.3,11.5c11,2.6,5.7-15-4.3-17.4c-6.3-1.5-20.4-5.3-27.3,2.8c0,0-10,9-7.4,17.6"/>
	<path class="st14" d="M300.7,465.9l-49-75.3c0,0,2-10.3,11.1-6.9l49.6,75.5l2.2,15.8L300.7,465.9z"/>
	<path class="st5" d="M278.1,435c2.3,3.8,0.1,6.8,14.7,13c9.5,4,17.7-3.3,16.2,6.6c-0.8,4.9-8.9,5.2-8.9,5.2s-7.6,9.4-12.2,9.7
		c-4.9,0.3-15.2,1.4-19.4-5.6c-5.4-9-5.5-32.3,6.9-33.9"/>
	<g>
		<path d="M279.8,436.8c0.4,1,0.7,2.1,1.1,3c0.5,0.9,1.3,1.5,2.1,2.1c1.8,1,3.8,1.8,5.7,2.6l3,1.1c1,0.4,2,0.8,3,1.1
			c1.9,0.6,3.9,0.9,5.9,1c2.1,0.1,4.1-0.2,6.5,0c0.6,0.1,1.3,0.2,2,0.4c0.7,0.3,1.5,0.8,2.1,1.5c0.5,0.7,0.8,1.5,0.9,2.2
			c0.1,0.7,0.1,1.4,0.1,2c0,0.6-0.1,1.2-0.2,1.8c-0.1,0.7-0.3,1.4-0.7,2.1c-0.7,1.3-1.7,2.3-2.7,3.1c-1,0.8-2.1,1.3-3.2,1.8
			c-1.1,0.5-2.2,0.8-3.5,1l1-0.5c-2.5,2.2-4.9,4.3-7.7,6.2c-1.4,0.9-2.8,1.8-4.5,2.5c-0.8,0.4-1.7,0.7-2.7,0.9
			c-1.2,0.2-2,0.1-2.9,0.1c-3.5-0.2-6.8-1.2-9.9-2.6c-3.1-1.5-6-3.5-8.1-6.4c-1-1.5-1.7-3-2.4-4.5c-0.6-1.5-1.2-3.1-1.6-4.7
			c-0.8-3.2-1.1-6.6-0.6-9.9c0.4-3.3,1.7-6.5,3.6-9.1c2-2.7,4.6-4.7,7.5-6.1c-2.7,1.8-5.1,4-6.7,6.6c-1.6,2.7-2.5,5.7-2.7,8.8
			c-0.2,3.1,0.3,6.2,1.2,9.1c0.5,1.5,1,2.9,1.7,4.3c0.7,1.4,1.4,2.8,2.3,3.9c1.8,2.3,4.3,3.9,7.1,5.1c2.8,1.1,5.8,1.8,8.7,2
			c0.7,0,1.5,0,1.9-0.1c0.5-0.1,1.2-0.4,1.8-0.8c1.3-0.7,2.6-1.5,3.8-2.4c2.5-1.8,5-3.7,7.4-5.7l0.4-0.4l0.6-0.1
			c1.7-0.3,3.7-1,5.1-1.9c0.7-0.5,1.3-1,1.6-1.6c0.2-0.3,0.3-0.6,0.3-0.9c0.1-0.5,0.1-0.9,0.2-1.4c0.1-0.9-0.1-1.7-0.2-1.9
			c-0.1-0.1-0.2-0.3-0.5-0.4c-0.3-0.1-0.7-0.2-1.1-0.3c-1.8-0.3-4.1-0.2-6.3-0.4c-2.2-0.2-4.5-0.7-6.6-1.7c-2-0.9-3.9-1.9-5.8-2.9
			c-1.9-1-3.8-2-5.6-3.4c-0.9-0.7-1.7-1.6-2.1-2.7C280.1,438.9,280,437.8,279.8,436.8z"/>
	</g>
	<path class="st6" d="M188.3,398"/>
	<g>
		<path d="M383.3,285.3c-1-0.6-1.7-1.6-2.1-2.7c-0.5-1.1-0.8-2.2-1.2-3.3c-0.3-1.1-0.6-2.2-1.1-3.1c-0.2-0.5-0.5-0.8-0.7-0.9
			c-0.5-0.2-0.9-0.3-1.5-0.4c-1-0.2-2.2-0.3-3.4-0.6c-0.6-0.2-1.3-0.4-1.9-0.8c-0.6-0.4-1.2-1-1.6-1.6c-0.8-1.4-0.8-2.8-0.7-4
			c0-0.6,0.1-1.3,0.2-1.8l0.2-1.7c0.1-1.1,0.3-2.3,0.6-3.5c0.3-1.2,0.8-2.4,1.4-3.6c1.3-2.3,3.3-4,5.3-5.3c2-1.3,4.2-2.4,6.3-3.3
			c2.2-0.9,4.3-1.6,6.6-2.3c4.5-1.2,9.3-2,14.3-1.1c2.4,0.5,4.9,1.5,6.9,3c2.1,1.6,3.6,3.7,4.6,6c1,2.3,1.5,4.7,1.7,7
			c0.2,2.3,0.5,4.5,0.4,6.9c0,1.2-0.1,2.4-0.4,3.6c-0.3,1.2-0.7,2.3-1.2,3.4c-1.1,2.1-2.5,3.9-4.1,5.6c1.1-2,2.2-4,2.9-6.1
			c0.7-2.1,0.8-4.2,0.6-6.3c-0.2-2.2-0.7-4.4-1-6.6c-0.3-2.2-0.9-4.2-1.8-6c-0.9-1.8-2.1-3.4-3.7-4.6c-1.6-1.2-3.5-1.9-5.5-2.2
			c-4-0.7-8.4,0-12.6,1.2c-4.2,1.2-8.5,2.7-12,5c-1.8,1.1-3.3,2.4-4.4,4.1c-1.1,1.6-1.5,3.6-1.9,5.8l-0.3,1.7
			c-0.1,0.6-0.2,1-0.3,1.6c-0.1,1-0.1,1.9,0.2,2.6c0.3,0.7,0.9,1.2,1.9,1.5c0.9,0.4,2.1,0.6,3.2,0.9c0.6,0.2,1.2,0.4,1.7,0.7
			c0.8,0.5,1.1,1.2,1.3,1.8c0.4,1.2,0.5,2.3,0.7,3.4c0.2,1.1,0.4,2.2,0.7,3.3C382,283.5,382.4,284.5,383.3,285.3z"/>
	</g>
	<g>
		<path d="M378.7,255c0.9-0.2,1.9-0.2,2.8-0.1c0.9,0.1,1.9,0.3,2.8,0.6c0.9,0.3,1.8,0.7,2.5,1.3c0.7,0.6,1.4,1.4,1.6,2.3
			c-1.2-1.4-2.8-2.2-4.4-2.7C382.2,255.8,380.5,255.5,378.7,255z"/>
	</g>
	<g>
		<path d="M387.7,251.2c0.9-0.2,1.9-0.2,2.8-0.1c0.9,0.1,1.9,0.3,2.8,0.6c0.9,0.3,1.8,0.7,2.5,1.3c0.7,0.6,1.4,1.4,1.6,2.3
			c-1.2-1.4-2.8-2.2-4.4-2.7C391.3,252,389.5,251.6,387.7,251.2z"/>
	</g>
	<g>
		<path d="M395.8,248.3c0.9-0.2,1.9-0.2,2.8-0.1c0.9,0.1,1.9,0.3,2.8,0.6c0.9,0.3,1.8,0.7,2.5,1.3c0.7,0.6,1.4,1.4,1.6,2.3
			c-1.2-1.4-2.8-2.2-4.4-2.7C399.3,249.1,397.6,248.8,395.8,248.3z"/>
	</g>
	<path class="st15" d="M262.6,428.4"/>
	<g>
		<path d="M301.7,460.8c-3.3-0.3-6.6-0.9-9.8-1.8c-1.6-0.4-3.2-0.9-4.8-1.5c-0.8-0.3-1.6-0.6-2.3-0.9c-0.4-0.2-0.8-0.4-1.1-0.6
			l-0.5-0.3l-0.5-0.4c0.7,0.4,1.5,0.6,2.3,0.8l2.4,0.6l4.8,1.2C295.4,458.8,298.6,459.6,301.7,460.8z"/>
	</g>
	<g>
		<path d="M293.1,466c-1,0.1-2.1,0.1-3.1,0c-1-0.1-2-0.3-3-0.5c-1-0.3-2-0.6-2.9-1c-0.9-0.4-1.9-1-2.5-1.8c0.9,0.4,1.9,0.7,2.8,1
			c1,0.3,1.9,0.5,2.9,0.8C289.2,464.9,291.2,465.3,293.1,466z"/>
	</g>
	<g>
		<path d="M382.6,284.5c-1.1-1.9-1.9-4-2.4-6.1c-0.6-2.1-0.9-4.3-0.9-6.6c0-1.1,0.1-2.3,0.5-3.4c0.1-0.5,0.5-1.2,0.6-1.5
			c0.1-0.4,0.1-0.8-0.2-1.1c-0.2-0.3-0.7-0.6-1.1-0.7c-0.2-0.1-0.5-0.1-0.5-0.1c-0.2,0-0.4,0.2-0.6,0.3c-0.4,0.3-0.8,0.7-1.2,1.1
			c-0.4,0.4-0.8,0.8-1.2,1.2c0.5-1,1-2,1.8-2.8c0.2-0.2,0.4-0.4,0.8-0.6c0.5-0.2,0.8,0,1.1,0c0.6,0.2,1.2,0.5,1.6,1
			c0.4,0.6,0.5,1.4,0.3,2c-0.2,0.7-0.4,1-0.6,1.5c-0.3,1-0.4,2-0.5,3.1c-0.1,2.1,0.2,4.3,0.6,6.4
			C381.3,280.4,381.8,282.5,382.6,284.5z"/>
	</g>
	<g>
		<g>
			<path d="M282.8,150.9c2.7-1.9,6.2-2.7,9.6-2.7c3.4-0.1,6.8,0.7,10,2c3.2,1.2,6,3.1,8.7,5.1c1.3,1.1,2.5,2.2,3.7,3.4
				c1.1,1.3,2.2,2.5,3.2,3.8c-1.4-0.8-2.8-1.8-4.1-2.7c-1.4-0.9-2.7-1.7-4.1-2.6c-2.8-1.5-5.5-3.1-8.5-4.2c-2.9-1.2-5.9-2-9-2.4
				C289.2,150.2,286,150.1,282.8,150.9z"/>
		</g>
		<path d="M306.7,175.4c-0.9,6-4.5,10.5-8,9.9c-3.6-0.5-5.7-5.8-4.8-11.8c0.9-6,4.5-10.5,8-9.9C305.4,164.1,307.6,169.4,306.7,175.4
			z"/>
	</g>
	<g>
		<g>
			<path d="M357.7,171.9c3.2-1,6.6-1.4,10-1.6c3.4-0.2,6.8,0,10.2,0.6c1.7,0.3,3.4,0.7,5,1.3c1.6,0.6,3.2,1.3,4.7,2.4
				c1.5,1,2.8,2.2,3.8,3.7c1,1.5,1.6,3.2,1.7,4.9c-1.4-3.1-3.9-5.2-6.6-6.6c-2.8-1.4-5.9-2.2-9-2.8c-3.2-0.6-6.4-0.9-9.7-1.2
				L357.7,171.9z"/>
		</g>
		<ellipse transform="matrix(0.1412 -0.99 0.99 0.1412 125.1339 532.2609)" cx="369.3" cy="194" rx="11" ry="6.5"/>
	</g>
	<g>
		<path d="M302.6,217.1c0.7,0.8,1.5,1.5,2.3,2.1c0.8,0.6,1.7,1.2,2.6,1.7c1.8,1.1,3.6,1.9,5.5,2.8c1.9,0.8,3.8,1.5,5.8,2.2
			c2,0.7,3.9,1.3,5.9,1.7c4,1,8,1.8,12.1,2.2c4.1,0.3,8.2,0.2,12.2-1.2c-1.7,1.3-3.8,2.1-5.9,2.7c-2.1,0.5-4.3,0.8-6.4,0.9
			c-4.3,0.1-8.7-0.5-12.8-1.6c-4.2-1.1-8.2-2.6-12-4.7c-1.9-1.1-3.7-2.3-5.3-3.7c-0.8-0.7-1.6-1.5-2.3-2.3
			C303.6,219,302.9,218.1,302.6,217.1z"/>
	</g>
	<g>
		<path class="st16" d="M173.7,169c0,0-6-19.1-15.7-23.4c-9.7-4.3-26-29.6-14-44.9s26.4-18,40.1-12.5c13.2,5.3,21.6,25.7,13.1,42
			s2.3,30.7,2.3,30.7L173.7,169z"/>
		<path class="st17" d="M172.4,171.5c0,0-0.1,3.2,5.6,4.5c5.3,1.3,21.5-1.5,22.6-8.1c1.7-10.7-6.7-6.4-6.7-6.4L172.4,171.5z"/>
		<g>
			<path d="M170.7,161.1c-0.9-1.8-2-3.5-3.2-5.1c-1.2-1.6-2.5-3.1-3.9-4.5c-1.4-1.4-3-2.6-4.7-3.6c-0.8-0.5-1.7-0.9-2.6-1.4
				c-0.9-0.5-1.8-1.1-2.6-1.7c-3.3-2.5-6.1-5.7-8.4-9.1c-2.3-3.4-4.1-7.2-5.2-11.2c-1.2-4-1.7-8.2-1.3-12.4
				c0.5-4.2,1.9-8.3,4.2-11.9c2.3-3.6,5.5-6.5,9-8.8c3.5-2.3,7.5-3.9,11.5-4.9c4.1-1,8.3-1.3,12.5-0.9c4.2,0.5,8.4,1.8,12,4.2
				c7.2,4.7,11.9,12.5,13.4,20.8c0.8,4.1,0.7,8.4-0.2,12.6c-0.5,2.1-1.1,4.1-2,6c-0.9,2-1.9,3.6-2.6,5.4c-1.5,3.6-2.4,7.5-2.4,11.4
				c0,1.9,0.3,3.9,0.8,5.8c0.5,1.9,1.3,3.7,2.3,5.3l0.6,1l-1.1,0.1L170.7,161.1z M170.7,161.1l25.9-4.6l-0.4,1.1
				c-1.3-1.8-2.1-3.7-2.7-5.7c-0.6-2-1-4.1-1.1-6.2c-0.2-4.2,0.7-8.4,2.1-12.3c0.7-1.9,1.7-3.8,2.5-5.6c0.8-1.8,1.3-3.6,1.7-5.5
				c0.8-3.8,0.8-7.7,0-11.5c-1.5-7.5-5.9-14.7-12.3-18.8c-3.2-2.1-6.9-3.2-10.7-3.7c-3.8-0.4-7.7-0.2-11.5,0.7
				c-7.5,1.8-14.6,6-18.9,12.4c-2.1,3.2-3.5,6.8-4,10.7c-0.5,3.8-0.1,7.8,0.9,11.5c1,3.8,2.6,7.4,4.7,10.8c2.1,3.3,4.6,6.5,7.7,8.9
				c0.8,0.6,1.6,1.2,2.4,1.7c0.8,0.5,1.8,1,2.6,1.6c1.7,1.2,3.2,2.6,4.6,4.1C167,153.8,169.2,157.3,170.7,161.1z"/>
		</g>
		<path class="st18" d="M170.8,171.5c0,0,1.4,5,6.2,6.4c3.5,1,20.7-1.6,23.3-9.4c2.6-7.7-4.9-3.9-4.9-3.9L170.8,171.5z"/>
		<g>
			<g>
				<path d="M170.8,171.5c0.7,1.7,1.8,3.3,3.3,4.5c0.7,0.6,1.5,1,2.4,1.3l0.6,0.2c0.2,0,0.4,0.1,0.6,0.1c0.4,0,0.9,0,1.3,0
					c3.7-0.2,7.4-1.1,10.9-2.3c1.7-0.6,3.4-1.4,5-2.3c1.5-0.9,3-2.1,3.8-3.5c0.2-0.4,0.4-0.7,0.5-1.1c0.2-0.4,0.3-0.8,0.4-1.2
					c0.2-0.8,0.3-1.7,0.1-2.1c-0.1-0.2-0.2-0.3-0.5-0.3c-0.3-0.1-0.6-0.1-1,0c-0.8,0.1-1.7,0.4-2.4,0.7l-0.1,0l-0.1,0
					c-4,1-8,2-12.2,3L170.8,171.5z M170.8,171.5l11.9-3.9c4.1-1.3,8.2-2.6,12.4-3.8l-0.2,0.1c0.9-0.5,1.9-0.8,2.9-1
					c0.5-0.1,1.1-0.1,1.8,0c0.7,0.1,1.4,0.6,1.7,1.3c0.3,0.7,0.4,1.3,0.4,1.9c0,0.6-0.1,1.1-0.2,1.6c-0.1,0.5-0.2,1-0.4,1.5
					c-0.2,0.5-0.4,1-0.7,1.5c-1.2,1.8-2.8,3.1-4.5,4.1c-1.7,1-3.5,1.7-5.4,2.3c-1.8,0.6-3.7,1-5.6,1.3c-1.9,0.3-3.8,0.5-5.8,0.4
					c-0.5,0-1-0.1-1.5-0.1c-0.2,0-0.5-0.1-0.8-0.2l-0.7-0.3c-0.9-0.4-1.7-1-2.4-1.7C172.3,175.1,171.3,173.4,170.8,171.5z"/>
			</g>
		</g>
		<g>
			<path class="st18" d="M193.3,149.8c-6.4,2-18.5,7.7-24.6,8.4c-4.1,0.5-4.9,10.9,4.3,7.7c4.5-1.6,19.1-4.3,23.5-7
				C201.1,156.1,198.1,148.3,193.3,149.8z"/>
			<path d="M193.3,149.9c-3.2,1-6.1,2.5-9.1,4c-3,1.5-6,2.7-9.3,3.7c-1.6,0.4-3.3,0.8-4.9,1.1l-1.3,0.1c-0.3,0-0.7,0.1-1,0.3
				c-0.6,0.4-1.1,1-1.3,1.8c-0.5,1.4-0.4,3.2,0.6,4.3c1.1,1.1,2.8,1.1,4.3,0.7c0.8-0.2,1.5-0.5,2.3-0.8c0.8-0.3,1.6-0.5,2.4-0.8
				c1.6-0.5,3.2-0.9,4.8-1.4c3.2-0.9,6.4-1.7,9.5-2.7c1.6-0.4,3.1-1,4.6-1.5c0.4-0.1,0.7-0.3,1-0.5c0.3-0.2,0.6-0.3,0.9-0.6
				c0.5-0.4,0.9-1,1.2-1.7c0.2-0.7,0.3-1.4,0.2-2.2c-0.1-0.8-0.3-1.5-0.8-2.2c-0.4-0.7-1-1.2-1.8-1.5
				C194.9,149.7,194.1,149.7,193.3,149.9z M193.3,149.7c0.8-0.2,1.7-0.3,2.5,0c0.8,0.3,1.5,0.8,2.1,1.5c0.6,0.7,1,1.5,1.2,2.3
				c0.2,0.9,0.3,1.8,0.1,2.7c-0.2,0.9-0.6,1.8-1.3,2.5c-0.3,0.3-0.7,0.7-1.1,0.9c-0.4,0.2-0.8,0.5-1.2,0.6c-1.6,0.8-3.2,1.3-4.7,1.8
				c-3.2,1-6.4,1.7-9.7,2.5l-4.8,1.1l-2.4,0.5c-0.8,0.2-1.6,0.5-2.5,0.6c-0.9,0.1-1.8,0.2-2.6,0c-0.9-0.2-1.7-0.6-2.4-1.3
				c-1.2-1.4-1.3-3.4-0.8-5c0.3-0.8,0.7-1.6,1.5-2.2c0.4-0.3,0.8-0.5,1.3-0.6l1.2-0.3c1.6-0.4,3.1-1,4.6-1.6
				c3.1-1.1,6.1-2.3,9.3-3.2C187,151.8,190.1,150.8,193.3,149.7z"/>
		</g>
		<g>
			<path class="st18" d="M197.4,157.3c-5.6,1.7-18.8,6.8-24.8,7.5c-7.4,0.9-4.9,10.9,4.3,7.7c4.5-1.6,16.7-3.6,21.1-6.3
				C202.5,163.4,202.2,155.8,197.4,157.3z"/>
			<path d="M197.4,157.4c-3.1,1-6.1,2.4-9.1,3.7c-3,1.3-6.1,2.4-9.3,3.2c-1.6,0.4-3.2,0.7-4.9,0.9c-0.8,0.1-1.7,0.1-2.4,0.3
				c-0.8,0.1-1.5,0.5-2.1,0.9c-1.1,1-1.5,2.8-0.7,4.1c0.3,0.7,0.9,1.2,1.6,1.5c0.4,0.1,0.7,0.3,1,0.4c0.4,0,0.7,0.2,1.1,0.2
				c0.4,0,0.8,0,1.1,0l1.1-0.2c0.4-0.1,0.7-0.2,1.1-0.4c0.4-0.1,0.7-0.2,1.1-0.4c1.6-0.6,3.2-1,4.7-1.4c3.2-0.8,6.3-1.7,9.4-2.5
				c1.6-0.4,3.1-0.9,4.5-1.5c1.5-0.6,2.7-1.2,3.6-2.4c0.9-1.2,1.5-2.7,1.3-4.3c-0.1-0.8-0.5-1.5-1.1-1.9
				C199,157.2,198.2,157.2,197.4,157.4z M197.4,157.2c0.8-0.2,1.7-0.3,2.5,0.1c0.8,0.4,1.3,1.2,1.5,2c0.2,0.8,0.2,1.7,0.1,2.6
				c-0.1,0.9-0.4,1.7-0.8,2.5c-0.8,1.6-2.4,2.8-4,3.5c-1.5,0.7-3.1,1.2-4.7,1.7c-3.2,0.9-6.4,1.6-9.6,2.3c-1.6,0.4-3.2,0.7-4.7,1.1
				c-0.7,0.2-1.6,0.4-2.5,0.6l-1.3,0.1c-0.4,0-0.9-0.1-1.3-0.1c-0.4,0-0.9-0.2-1.3-0.3c-0.4-0.1-0.8-0.4-1.2-0.6
				c-0.7-0.5-1.4-1.2-1.7-2c-0.9-1.6-0.4-3.7,0.9-4.9c1.3-1.2,3.2-1.5,4.7-1.8c1.6-0.4,3.1-0.9,4.6-1.4c3.1-1,6.2-2,9.3-2.8
				C191.1,159.1,194.3,158.3,197.4,157.2z"/>
		</g>
		<path class="st19" d="M182.1,153.3"/>
		<g>
			<path d="M128.5,103c-1.8-0.4-3.6-1-5.3-1.7c-1.7-0.7-3.4-1.4-5-2.2c-1.6-0.8-3.3-1.7-4.8-2.6c-1.6-0.9-3.1-1.9-4.6-3.1
				c1.8,0.4,3.6,1,5.3,1.7c1.7,0.7,3.4,1.4,5,2.2c1.6,0.8,3.3,1.7,4.8,2.6C125.5,100.9,127,101.9,128.5,103z"/>
		</g>
		<g>
			<path d="M161.9,77.3c-0.7-1.7-1.2-3.5-1.7-5.3c-0.5-1.8-0.8-3.6-1.2-5.4c-0.3-1.8-0.6-3.6-0.7-5.4c-0.2-1.8-0.3-3.7-0.2-5.5
				c0.7,1.7,1.3,3.5,1.7,5.3c0.5,1.8,0.8,3.6,1.2,5.4c0.3,1.8,0.6,3.6,0.7,5.4C161.9,73.6,162,75.4,161.9,77.3z"/>
		</g>
		<g>
			<path d="M199.1,84c0.8-1.7,1.7-3.3,2.7-4.8c1-1.5,2-3,3.1-4.5c1.1-1.5,2.3-2.9,3.5-4.2c1.2-1.4,2.5-2.7,3.9-3.9
				c-0.8,1.7-1.7,3.3-2.7,4.8c-1,1.5-2,3-3.1,4.5c-1.1,1.5-2.3,2.9-3.5,4.2C201.8,81.4,200.5,82.8,199.1,84z"/>
		</g>
		<g>
			<path d="M178.7,155.4c-1-2.8-2.1-5.5-3.3-8.2c-1.2-2.7-2.4-5.4-4-7.7c-1.6-2.4-3.4-4.7-5.5-6.6c-1.1-0.9-2.2-1.7-3.5-2.2
				c-0.6-0.2-1.3-0.4-1.9-0.4c-0.6,0-0.9,0.2-1.1,0.5c-0.2,0.4-0.1,1,0.1,1.6c0.2,0.6,0.6,1.2,1,1.6c0.9,1,2.1,1.5,3.5,1.6
				c2.7,0.2,5.6-0.9,7.8-2.7c1.1-0.9,2-2.1,2.3-3.4c0.4-1.4,0.6-2.9,0.5-4.3c-0.1-1.4-0.4-2.9-1-4.2c-0.6-1.2-1.2-2.9-2.4-3.1
				c-0.6-0.1-1.1,0.3-1.5,0.8c-0.4,0.5-0.6,1.2-0.7,1.8c-0.2,1.4,0.1,2.7,0.7,4.1c0.5,1.3,1.1,2.7,1.8,3.9c0.7,1.2,1.6,2.3,2.7,3
				c0.5,0.4,1.1,0.6,1.7,0.7c0.6,0.1,1.2,0,1.8-0.2c1.3-0.4,2.5-1.1,3.6-2c1.1-0.9,2.1-1.9,2.8-3c0.4-0.5,0.7-1.1,0.7-1.6
				c0-0.1,0-0.2,0-0.4c0-0.2,0-0.3,0-0.5c0-0.3-0.1-0.6-0.2-0.9c-0.1-0.6-0.5-1.1-0.7-1.1c-0.1,0-0.2,0-0.4,0
				c-0.2,0.1-0.5,0.3-0.7,0.4c-0.4,0.3-0.7,1-1,1.6c-0.3,0.6-0.5,1.3-0.7,2c-0.4,1.4-0.7,2.8-0.8,4.2c-0.1,1.4-0.1,2.8,0.2,4.1
				c0.8,2.9,1.2,5.8,1.8,8.7c0.5,2.9,1,5.8,1.4,8.7l-0.2,0l-2.1-8.6c-0.7-2.9-1.4-5.7-2.2-8.5c-0.5-1.5-0.5-3.1-0.5-4.6
				c0.1-1.5,0.4-3,0.8-4.5c0.2-0.7,0.4-1.5,0.8-2.2c0.3-0.7,0.7-1.4,1.4-2.1c0.4-0.3,0.7-0.6,1.2-0.8c0.5-0.2,1.1-0.3,1.7-0.1
				c0.6,0.2,1,0.7,1.3,1.1c0.3,0.4,0.4,0.8,0.5,1.3c0.1,0.4,0.2,0.8,0.2,1.2c0,0.2,0,0.4,0,0.6c0,0.2,0,0.5,0,0.7
				c-0.2,1-0.6,1.7-1,2.4c-0.9,1.3-2,2.4-3.3,3.4c-1.2,0.9-2.6,1.7-4.2,2.2c-0.8,0.2-1.7,0.3-2.5,0.2c-0.9-0.1-1.7-0.5-2.3-1
				c-1.4-1-2.3-2.3-3-3.6c-0.7-1.4-1.3-2.8-1.7-4.2c-0.5-1.4-0.8-3-0.5-4.6c0.2-0.8,0.4-1.6,1-2.2c0.5-0.6,1.3-1.2,2.3-1
				c0.9,0.2,1.5,0.9,1.9,1.6c0.4,0.7,0.7,1.3,0.9,2c0.5,1.4,0.9,2.9,0.9,4.4c0.1,1.5-0.1,3-0.5,4.5c-0.3,1.5-1.3,2.8-2.4,3.8
				c-2.3,2-5.2,3.4-8.4,3.3c-0.8,0-1.6-0.2-2.4-0.4c-0.8-0.3-1.5-0.8-2.1-1.4c-0.6-0.6-1-1.3-1.4-2.1c-0.3-0.8-0.5-1.7-0.2-2.7
				c0.2-0.5,0.6-1,1.1-1.2c0.5-0.2,1-0.3,1.4-0.3c0.9,0,1.6,0.3,2.4,0.5c1.5,0.6,2.8,1.5,3.9,2.5c2.3,2.1,4,4.5,5.6,7
				c1.6,2.5,2.7,5.3,3.8,8.1c1,2.8,1.9,5.6,2.6,8.5L178.7,155.4z"/>
		</g>
	</g>
</g>
</svg>
