<?xml version="1.0" encoding="utf-8"?>
<!-- Generator: Adobe Illustrator 23.0.3, SVG Export Plug-In . SVG Version: 6.00 Build 0)  -->
<svg version="1.1" id="圖層_1" xmlns="http://www.w3.org/2000/svg" xmlns:xlink="http://www.w3.org/1999/xlink" x="0px" y="0px"
	 viewBox="0 0 600 600" style="enable-background:new 0 0 600 600;" xml:space="preserve">
<style type="text/css">
	.st0{fill:#ABD3D0;}
	.st1{fill:#DAF2E9;}
	.st2{fill:#D6E8E1;}
	.st3{fill:#847264;}
	.st4{fill:#FCF3ED;}
	.st5{fill:#B3B3B3;}
	.st6{fill:#707070;}
	.st7{fill:#88BFBC;}
	.st8{fill:#EACEBB;}
</style>
<polygon class="st0" points="88.9,228 319.6,31.8 236.4,31.8 5.7,228 "/>
<circle class="st1" cx="305.9" cy="337.6" r="236.7"/>
<polygon class="st2" points="398.3,581.8 533.8,466.6 485,466.6 349.5,581.8 "/>
<g>
	<path class="st3" d="M406.5,82.5c0,0-21-45-106-31c-42.8,7.1-63,41-73,64s-12.5,65.5-20,116c-5.2,35.3-17.3,49.7-42,71
		C144,321,166,362,166,362s23.5-23.5,45.5-28.5s63-18,66-21s-1,13,4,0s72-8,110,3s73,35,81,47s-39,55-39,55s51,8,64-11
		s43.6-60.4,3-99c-42-40-62-54-52-95C461.1,160.9,457.5,97.5,406.5,82.5z"/>
	<path class="st4" d="M387.5,112.5c0,0-10-24-47-28c-24.2-2.6-48,13-59,21s-42,22-46,82s0,33,0,33s10,38,24,47s27,19,27,19
		s11,25-9,26c0,0,12,10,46,8s43.9-7.6,43.9-7.6s-28.9,5.6-26.9-11.4s0-23,0-23s61-16,72-62c0,0,13,17,21-2s15-39-12-29c0,0-1-5-6-35
		S404.5,113.5,387.5,112.5z"/>
	<path class="st5" d="M447.4,414.3c0,0,4.6,5.5,22,8.5s5.8,14.8,3.5,26.2s-44.2,100.5-54,103.5c-9.9,3-341.2-34.2-340.5-51.6
		S179,394,179,394L447.4,414.3z"/>
	<path class="st6" d="M429.9,436.1c0,0,7.1-0.9,22.7,1.3c15.6,2.2,5.2,15,3.2,23.5s-39.5,74.7-48.3,77S102.3,512.5,103,499.5
		s89.9-86.5,89.9-86.5L429.9,436.1z"/>
	<path class="st7" d="M246,314c0,0-64,38-80,52s-11,33,0,46s61,35,70,29c0,0-5-27,2-30c0,0-32-7-34-21l192,20l-29,12c0,0,20,4,19,20
		c0,0,41-16,66-31s44-34,21-48s-53.1-42.3-98.1-51.1c0,0-7.9,6.1-37.9,7.1c-35,1.2-71.9-0.2-62-10.1c10-9.9,3-5.9,3-5.9L246,314z"/>
	<path class="st8" d="M238,411c0,0,12,16,25,4s12-3,16,5s-9,32-19,30s-22,5-24-9S238,411,238,411z"/>
	<path class="st8" d="M367,422c0,0-37,4-28,12s13,4,13,4s-18,18-7,20s23,16,32,0s9-11,9-11S391,423,367,422z"/>
</g>
<g>
	<g>
		<path d="M392,111.6c-2.9-3.1-6.2-5.9-9.6-8.5s-6.9-5-10.6-7.1c-7.4-4.3-15.3-7.4-23.6-9.2c-8.2-1.8-16.8-2-25.1-0.5
			C319,87,315,88.1,311,89.5c-2,0.7-3.9,1.5-5.8,2.4c-1.9,0.8-3.8,1.8-5.7,2.8c-3.8,2-7.5,4-11.1,6.2c-1.8,1.1-3.6,2.3-5.3,3.4
			c-1.7,1.2-3.5,2.4-5.1,3.7c-3.4,2.5-6.6,5.2-9.7,8.1s-6,5.9-8.6,9.2c-5.4,6.5-9.9,13.6-13.4,21.2s-6,15.7-7.6,24
			c-0.8,4.1-1.3,8.3-1.6,12.5s-0.3,8.4-0.3,12.7c0,8.5,0.2,17.1,0.1,25.7c-0.1,8.6-0.5,17.2-1.6,25.8s-2.8,17.2-6.1,25.3
			c-1.6,4-3.7,8-6.3,11.5c-2.6,3.6-5.8,6.7-9.5,9.2c-0.9,0.6-1.9,1.2-2.8,1.7l-2.9,1.5l-2.8,1.5l-2.7,1.6c-3.6,2.2-7.1,4.6-10.3,7.4
			c-3.2,2.7-6.1,5.8-8.6,9.2c-2.5,3.4-4.6,7.1-6.1,11.1s-2.5,8.1-2.8,12.4c-0.4,4.2-0.2,8.5,0.8,12.7c-2.3-8.3-1.7-17.2,1.1-25.4
			c1.4-4.1,3.4-8,5.9-11.5s5.4-6.8,8.6-9.8c3.2-2.9,6.7-5.5,10.4-7.8l2.8-1.7l2.8-1.6l2.8-1.5c0.9-0.5,1.8-1.1,2.6-1.7
			c3.4-2.4,6.3-5.4,8.6-8.8c2.4-3.4,4.3-7.1,5.8-11s2.6-8,3.5-12.1s1.5-8.3,2-12.5c0.9-8.4,1.2-16.9,1.3-25.4s-0.1-17.1-0.2-25.6
			c0-4.3,0-8.6,0.3-12.9c0.3-4.4,0.9-8.7,1.7-12.9c1.6-8.5,4.2-16.9,7.9-24.8c3.7-7.9,8.4-15.3,14-21.9
			c11.3-13.3,25.8-23.5,41.2-31.1c2-0.9,3.9-1.9,5.9-2.7c2-0.9,4-1.6,6.1-2.3c4.1-1.4,8.4-2.4,12.7-3.1c8.6-1.3,17.5-0.8,25.9,1.2
			s16.4,5.6,23.7,10.2C379.7,99.7,386.4,105.2,392,111.6z"/>
	</g>
	<g>
		<path d="M420,228c1.4,9.7,2,19.4,3.8,28.9c0.9,4.7,2.1,9.3,3.9,13.7s4.1,8.5,6.9,12.3s6,7.3,9.5,10.6c3.5,3.3,7.2,6.2,11.1,9.1
			c7.9,5.7,15.8,11.5,23.3,17.9c3.7,3.2,7.3,6.6,10.6,10.3c3.3,3.7,6.3,7.7,8.6,12.2c2.3,4.4,3.9,9.3,4.4,14.3
			c0.3,2.5,0.3,5,0.1,7.5l-0.4,3.7c-0.2,1.2-0.4,2.4-0.5,3.6c-3.3,19.5-15,37.1-31.2,47.9c15.9-11.3,26.9-29.1,29.8-48.2l0.5-3.6
			c0.1-1.2,0.2-2.4,0.3-3.6c0.1-2.4,0-4.8-0.4-7.1c-0.6-4.7-2.3-9.2-4.6-13.4c-4.7-8.3-11.7-15.1-19.1-21.2
			c-7.5-6.1-15.4-11.8-23.3-17.4c-8.1-5.6-15.7-12.2-21.6-20.4c-2.9-4.1-5.3-8.6-7-13.3c-1.8-4.7-2.8-9.6-3.5-14.5
			C419.9,247.5,420.1,237.8,420,228z"/>
	</g>
	<g>
		<path d="M400.7,115.8c1.3,0.9,2.4,2,3.5,3.1c1.1,1.2,2,2.4,2.9,3.7c1.8,2.6,3.3,5.4,4.5,8.3c0.7,1.4,1.2,2.9,1.8,4.4
			c0.5,1.5,1.1,3,1.5,4.5l0.7,2.3c0.2,0.8,0.5,1.5,0.7,2.3c0.5,1.6,0.7,3.1,1,4.7c1,6.2,1.4,12.5,1.5,18.7l0.1,4.7v4.6
			c0,1.6,0,3.1,0.1,4.6c0,0.8,0.1,1.5,0.2,2.3c0,0.4,0.1,0.8,0.2,1.1s0.2,0.7,0.6,0.8c-0.4,0.1-0.8-0.3-1-0.6s-0.4-0.7-0.6-1.1
			c-0.3-0.7-0.6-1.5-0.8-2.3c-0.5-1.5-0.8-3.1-1.1-4.6c-0.3-1.6-0.5-3.1-0.7-4.7c-0.2-1.6-0.3-3.1-0.5-4.7
			c-0.6-6.2-0.8-12.4-1.1-18.6c-0.2-3.1-0.2-6.1-1.1-9.1c-0.3-1.5-0.8-3-1.2-4.5c-0.5-1.5-0.9-2.9-1.5-4.4c-1.1-2.9-2.3-5.7-3.9-8.4
			C404.9,120.4,403.1,117.8,400.7,115.8z"/>
	</g>
	<g>
		<path d="M396.9,100.6c0.1-2.4,0.8-4.8,1.7-7c1-2.2,2.2-4.3,3.8-6.2c1.6-1.9,3.5-3.5,5.6-4.8c2.2-1.2,4.7-1.9,7.1-1.8
			c-2,1.4-3.8,2.7-5.4,4.2s-3,3.1-4.4,4.8c-1.4,1.7-2.7,3.4-4.1,5.2C399.9,96.9,398.5,98.8,396.9,100.6z"/>
	</g>
	<g>
		<path d="M396.9,69.5c-4-2.4-8.1-4.5-12.3-6.5c-4.2-2-8.5-3.8-12.8-5.5c-8.7-3.3-17.6-5.9-26.7-7.7c-9.1-1.7-18.3-2.5-27.5-2.1
			s-18.3,2.1-26.9,5.3c-8.6,3.1-16.5,7.9-23.9,13.4c-7.3,5.6-13.9,12-19.6,19.2c-11.5,14.3-19.7,31.1-25.3,48.7
			c-2.8,8.8-4.9,17.8-6.4,26.9c-0.8,4.5-1.3,9.1-1.9,13.8l-1.8,13.9c-1.2,9.2-2.4,18.5-4,27.7S204,235,201.2,244
			c-1.4,4.5-2.8,8.9-4.3,13.3c-0.7,2.2-1.5,4.4-2.3,6.6l-1.1,3.3c-0.4,1.1-0.8,2.2-1.3,3.3c-1.9,4.4-4.5,8.5-7.8,12.1
			c-1.6,1.8-3.4,3.4-5.2,4.9c-1.9,1.5-3.8,2.9-5.7,4.2c-3.9,2.6-8,4.9-11.4,7.8c-1.7,1.5-3.1,3.2-3.9,5.3c-0.9,2-1.1,4.3-1,6.6
			c0.2,4.6,0.5,9.3,1.5,13.8c0.9,4.5,2.5,9,5.8,12.4c-1.7-1.6-3-3.6-4.1-5.7c-1-2.1-1.8-4.4-2.3-6.6c-1.1-4.5-1.6-9.2-2-13.9
			c-0.2-2.3-0.1-4.9,0.8-7.2c0.8-2.3,2.3-4.4,4.1-6c1.7-1.7,3.6-3.1,5.6-4.5c1.9-1.4,3.9-2.6,5.7-4c3.8-2.7,7.3-5.6,10.2-9
			s5.3-7.3,6.9-11.5c0.4-1,0.8-2.1,1.2-3.2l1.1-3.3c0.8-2.2,1.5-4.4,2.2-6.6c1.5-4.4,2.9-8.8,4.2-13.3c2.7-8.9,4.8-17.9,6.3-27
			s2.6-18.4,3.8-27.6l1.7-13.9c0.6-4.6,1.1-9.2,1.9-13.9c1.5-9.3,3.6-18.4,6.5-27.4s6.4-17.7,10.7-26.1s9.4-16.4,15.4-23.7
			s12.8-13.9,20.4-19.6c7.6-5.6,15.9-10.4,24.9-13.5c8.9-3.2,18.4-4.8,27.8-5s18.8,0.8,28,2.8s18.1,4.9,26.7,8.5
			C380.8,60.2,389.1,64.4,396.9,69.5z"/>
	</g>
	<g>
		<path d="M235.8,222.3c1.2,4.8,3.1,9.4,5.1,13.9s4.4,8.9,6.9,13.1c2.6,4.2,5.4,8.3,8.5,12.1c1.5,1.9,3.2,3.7,4.9,5.5
			c0.9,0.9,1.8,1.6,2.7,2.5l1.4,1.2l1.4,1.1c1,0.7,1.9,1.5,2.9,2.2l3,2c1,0.7,2.1,1.2,3.2,1.8c0.5,0.3,1.1,0.6,1.6,0.9l1.7,0.7
			l1.7,0.7c0.5,0.2,1.1,0.5,1.7,0.7l3.4,1.2c1.1,0.4,2.3,0.6,3.5,0.9l1.8,0.4l1.8,0.3c4.8,0.9,9.6,1,14.5,1l3.6-0.2
			c0.6,0,1.2-0.1,1.8-0.1l1.8-0.2l3.6-0.5c1.2-0.2,2.4-0.5,3.6-0.7c2.4-0.5,4.8-1,7.1-1.7c2.4-0.6,4.7-1.4,7-2.1
			c4.7-1.5,9.3-3.3,13.8-5.1c4.6-1.9,9-3.9,13.5-6.1c4.4-2.2,8.8-4.5,12.9-7s8.2-5.3,12-8.4c3.7-3.1,7.2-6.5,9.9-10.4
			c1.3-1.9,2.5-4.1,3.7-6.3s2.3-4.3,3.4-6.5s2-4.4,2.9-6.7c0.4-1.1,0.8-2.3,1-3.4c0.1-0.3,0.1-0.6,0.2-0.8c0.1-0.3,0.1-0.5,0.1-0.8
			s0-0.5,0-0.7v-0.3v-0.1l0,0l0,0c0,0,0,0.1,0.1,0.1l2.5-1.8c2.2,2.4,5.1,4.6,8.1,5.8c3.1,1.2,6.5,1.4,9.4-0.1c3-1.4,5.3-4,7.2-6.9
			c1.9-2.9,3.5-6.1,4.6-9.4c0.6-1.6,1-3.4,1.3-5.1c0.3-1.7,0.4-3.5,0.3-5.2c-0.2-3.4-1.4-6.9-4-9.2c-2.5-2.4-6.1-3.4-9.6-3
			s-6.8,2.1-9.5,4.5c2.5-2.5,5.8-4.5,9.4-5.1s7.6,0.3,10.4,2.8c2.9,2.5,4.4,6.2,4.8,9.9s-0.2,7.5-1.3,11c-1.1,3.5-2.6,6.9-4.5,10.1
			c-2,3.1-4.5,6.2-8,8c-1.8,0.9-3.8,1.4-5.8,1.4s-4-0.4-5.8-1c-1.8-0.7-3.5-1.6-5.1-2.7c-1.6-1.1-3-2.3-4.4-3.7l2.5-1.8
			c0.3,0.6,0.2,0.7,0.3,1c0,0.2,0,0.4,0.1,0.6c0,0.4,0,0.8,0,1.1c0,0.4-0.1,0.7-0.1,1s-0.1,0.7-0.2,1c-0.3,1.3-0.7,2.5-1.1,3.8
			c-0.9,2.4-1.8,4.8-2.9,7c-1.1,2.3-2.2,4.5-3.4,6.7c-1.2,2.2-2.3,4.4-3.8,6.6c-1.5,2.2-3.1,4.1-4.9,6s-3.7,3.6-5.6,5.2
			c-3.9,3.2-8.1,6.1-12.4,8.8c-8.6,5.3-17.6,9.6-26.9,13.4c-4.6,1.9-9.3,3.6-14.1,5.2c-4.8,1.5-9.6,3-14.6,3.8
			c-1.2,0.2-2.5,0.5-3.7,0.7l-3.8,0.5l-1.9,0.2c-0.6,0.1-1.3,0.1-1.9,0.1l-3.8,0.2c-1.3,0-2.5,0-3.8,0s-2.5,0-3.8-0.2l-3.8-0.4
			c-1.3-0.2-2.5-0.4-3.8-0.7l-1.9-0.4l-1.8-0.5c-1.2-0.4-2.5-0.6-3.7-1l-3.6-1.3c-0.6-0.2-1.2-0.5-1.8-0.7l-1.7-0.8l-1.7-0.8
			c-0.6-0.3-1.1-0.6-1.7-0.9c-1.1-0.6-2.2-1.2-3.3-1.9l-3.1-2.2c-1-0.7-2-1.6-3-2.4l-1.5-1.2l-1.4-1.3c-0.9-0.9-1.8-1.7-2.7-2.6
			c-1.7-1.9-3.4-3.7-4.9-5.8c-3.1-4-5.7-8.2-8.2-12.6c-2.4-4.4-4.6-8.9-6.5-13.5C238.4,231.9,236.8,227.2,235.8,222.3z"/>
	</g>
	<g>
		<path d="M283.2,282.7c2.3,1.6,4.1,4,5.3,6.6c1.2,2.6,1.7,5.9,1,8.9c-0.2,0.8-0.4,1.5-0.8,2.2c-0.1,0.4-0.4,0.7-0.5,1l-0.5,0.9
			c-0.7,1.1-1.4,2.3-2.2,3.4c-1.5,2.3-3.1,4.5-4.8,6.7c0.3-2.8,1.2-5.5,2.2-8c0.5-1.3,1.1-2.5,1.7-3.8c0.1-0.3,0.3-0.6,0.4-0.9
			s0.2-0.5,0.3-0.8c0.2-0.5,0.4-1.1,0.5-1.6c0.5-2.2,0.4-4.6-0.2-7.1C285.1,287.8,284.2,285.3,283.2,282.7z"/>
	</g>
	<g>
		<path d="M340.1,286.4c1.1,3.9,2.2,7.7,3.5,11.3c0.7,1.8,1.4,3.5,2.4,5.1c0.5,0.8,1,1.6,1.4,2.1c0.5,0.5,1.2,1.1,1.9,1.5
			c3,1.8,6.8,3,10.5,4.1s7.6,2.1,11.4,3.2c-4,0.5-8.1,0.3-12.1-0.3c-2-0.3-4-0.7-6-1.3c-2-0.6-4-1.4-5.8-2.5
			c-0.9-0.6-1.9-1.3-2.7-2.2c-0.4-0.5-0.8-1-1-1.5c-0.3-0.5-0.6-0.9-0.8-1.4c-0.9-1.9-1.6-3.9-2-5.9
			C339.9,294.5,339.6,290.4,340.1,286.4z"/>
	</g>
	<g>
		<path d="M279.4,303c-2.1,0.2-4.3,0.4-6.4,0.7s-4.2,0.7-6.3,1.1c-2.1,0.5-4.1,1-6.1,1.7c-1.9,0.7-3.9,1.6-5.2,2.9
			c-0.6,0.7-1,1.4-1,2.2c0,0.8,0.4,1.6,0.9,2.4c1.1,1.5,2.7,2.9,4.4,4.1c3.4,2.4,7.1,4.5,11,6.2c7.7,3.5,15.9,5.9,24.2,7.4
			c8.3,1.5,16.8,2.1,25.3,2.1s17-0.8,25.4-2.1c8.4-1.4,16.7-3.4,24.5-6.5c2-0.8,3.9-1.7,5.7-2.7c1.8-1,3.5-2.2,4.8-3.6
			c0.6-0.7,1.2-1.5,1.4-2.2c0.1-0.4,0.1-0.8,0.1-1.1c0-0.2-0.1-0.4-0.2-0.6s-0.2-0.5-0.2-0.7c-0.7-1.8-1.9-3.4-3.5-4.7
			c-3.2-2.5-7.4-3.7-11.6-4.4c-2.1-0.3-4.2-0.5-6.4-0.6c-2.1-0.1-4.3-0.1-6.4,0.1c4.3-0.6,8.6-0.8,12.9-0.5c2.2,0.2,4.3,0.5,6.5,1.2
			c2.1,0.6,4.2,1.5,6.1,2.8s3.4,3.2,4.4,5.3c0.1,0.3,0.2,0.5,0.3,0.8c0.1,0.3,0.2,0.5,0.3,0.9c0.1,0.7,0.1,1.4,0,2.1
			c-0.3,1.3-1,2.4-1.8,3.3c-1.5,1.8-3.4,3.1-5.3,4.3c-1.9,1.2-3.9,2.2-5.9,3.1c-8,3.6-16.5,5.7-25.1,7.3c-8.6,1.5-17.3,2.3-26,2.4
			c-8.7,0-17.4-0.7-26-2.3c-8.6-1.7-17-4.3-24.9-8.2c-3.9-2-7.7-4.2-11.2-6.9c-0.9-0.7-1.7-1.4-2.5-2.2c-0.8-0.8-1.6-1.7-2.2-2.7
			c-0.6-1-1.2-2.3-1.1-3.7c0-0.7,0.2-1.4,0.5-2s0.7-1.1,1.2-1.5c0.9-0.9,1.9-1.4,3-1.9s2.1-0.8,3.1-1.1c2.1-0.6,4.3-1,6.4-1.3
			C270.8,303.2,275.1,303,279.4,303z"/>
	</g>
	<g>
		<path d="M221.8,441c-15.5-1.5-30.6-7.1-43.6-15.9c-1.6-1.1-3.2-2.3-4.8-3.4c-1.5-1.2-3.1-2.5-4.6-3.8c-3-2.6-5.8-5.4-8.4-8.4
			s-5-6.2-7.1-9.6s-3.9-7-5-11c-0.5-2-0.9-4.1-0.9-6.3l0.1-1.7c0.1-0.5,0.2-1.1,0.3-1.7c0.3-1.1,0.8-2.2,1.4-3.1l0.4-0.7l0.4-0.6
			l0.9-1.3c0.7-0.8,1.3-1.6,2-2.3c0.7-0.7,1.4-1.5,2.1-2.2c0.7-0.7,1.4-1.4,2.1-2c5.9-5.3,12.1-10,18.5-14.4
			c12.9-8.8,26.2-16.8,39.9-24c-12.9,8.6-25.8,17.2-38.2,26.4c-6.2,4.6-12.3,9.3-17.8,14.6c-1.4,1.3-2.7,2.6-3.9,4
			c-0.6,0.7-1.2,1.4-1.8,2.1l-0.8,1.1l-0.4,0.5l-0.3,0.6c-0.5,0.8-0.7,1.5-1,2.2c-0.1,0.4-0.2,0.8-0.2,1.2l-0.1,1.2
			c0,1.7,0.3,3.5,0.8,5.2c1,3.5,2.6,6.9,4.5,10.1s4.2,6.3,6.6,9.2c4.9,5.8,10.6,11,16.7,15.5C192.2,431.7,206.6,438,221.8,441z"/>
	</g>
	<g>
		<path d="M235.4,363c-5.2,4-10.5,7.8-15.6,11.7c-2.5,2-5.1,4-7.4,6.1c-1.2,1.1-2.3,2.1-3.4,3.2c-1,1.1-2,2.3-2.5,3.4l-0.2,0.4
			c0,0.1-0.1,0.2-0.1,0.3c-0.1,0.1,0,0.2,0,0.3c0,0.1,0,0.1,0,0.2c0,0.3,0.3,0.9,0.7,1.4c0.8,1,1.9,2,3.1,3c2.4,1.9,5.2,3.5,8,5.1
			c5.6,3.1,11.5,5.9,17.3,8.9c-6.4-1.5-12.6-3.6-18.6-6.2c-3-1.3-6-2.9-8.8-4.8c-1.4-1-2.8-2.1-4-3.6c-0.6-0.8-1.2-1.7-1.4-3
			s0.1-2.6,0.6-3.5c0.9-1.9,2.1-3.1,3.2-4.4c1.2-1.2,2.4-2.4,3.7-3.4c2.6-2.1,5.3-4,8.1-5.8C223.7,368.7,229.4,365.5,235.4,363z"/>
	</g>
	<g>
		<path d="M243,410.7c-1.1,2.6-2.2,5.1-3.3,7.6s-2.1,4.9-2.9,7.4c-0.8,2.5-1.5,4.9-1.8,7.5c-0.1,1.3-0.2,2.5-0.2,3.9
			c0,1.3,0.2,2.6,0.5,4.1c-1-1-1.7-2.3-2.3-3.6c-0.6-1.4-0.9-2.8-1-4.3c-0.2-3,0.2-5.9,1.2-8.6c0.9-2.7,2.3-5.3,3.9-7.6
			C238.8,414.5,240.7,412.4,243,410.7z"/>
	</g>
	<g>
		<path d="M246.1,418.3c0.7,1.5,1.5,2.9,2.6,4c1.1,1,2.3,1.7,3.6,1.9c0.3,0,0.6,0.1,1,0.1c0.3,0,0.7,0,1,0s0.7-0.1,1-0.2
			c0.3,0,0.7-0.1,1-0.2c0.7-0.2,1.4-0.4,2.1-0.7c0.7-0.3,1.4-0.5,2.1-0.9c2.8-1.3,5.5-2.8,7.8-4.8s4.3-4.3,5.2-7.6
			c0.5,1.6,0.2,3.5-0.4,5.1c-0.6,1.7-1.5,3.2-2.6,4.5c-2.3,2.7-5.2,4.7-8.3,6.1c-1.5,0.7-3.2,1.4-5,1.7c-0.4,0.1-0.9,0.1-1.4,0.2
			c-0.5,0-0.9,0.1-1.4,0l-1.4-0.2c-0.5-0.1-0.9-0.3-1.4-0.4c-1.9-0.7-3.4-2.1-4.2-3.7C246.3,421.7,245.9,420,246.1,418.3z"/>
	</g>
	<g>
		<path d="M246.1,444.8c4.8,1.1,9.7,1.4,14.3,0.4c4.5-0.9,8.7-3.1,11.7-6.4c0.4-0.4,0.8-0.8,1.1-1.2l1-1.4c0.4-0.4,0.6-1,0.9-1.4
			c0.2-0.5,0.6-1,0.8-1.5c1-2,1.4-4.3,1.8-6.6c0.6-4.6,0.4-9.5-0.4-14.4c1.2,2.2,2,4.6,2.6,7.1c0.5,2.5,0.9,5,0.8,7.6
			c0,0.6-0.1,1.3-0.1,2c0,0.6-0.1,1.3-0.3,2c-0.1,0.6-0.2,1.3-0.4,1.9l-0.6,1.9c-1,2.5-2.3,4.9-4.3,6.8c-3.6,3.9-8.8,6.4-14.1,6.8
			C255.5,448.6,250.3,447.4,246.1,444.8z"/>
	</g>
	<g>
		<path d="M420.4,328.8c7,3.4,13.9,7,20.8,10.6c6.9,3.7,13.7,7.5,20.3,11.6c3.3,2.1,6.7,4.1,9.7,6.9c3,2.7,5.7,5.8,7.8,9.4
			c2.1,3.6,3.4,7.6,3.6,11.9c0.2,4.2-0.9,8.5-2.9,12.2s-4.7,6.8-7.7,9.5c-0.8,0.7-1.5,1.4-2.3,2s-1.6,1.2-2.4,1.8
			c-1.6,1.1-3.1,2.4-4.8,3.4c-6.5,4.4-13.2,8.5-20,12.3C429,428,415,434.9,400.7,441c13.6-7.6,27.1-15.2,40.4-23.2
			c6.6-4.1,13.2-8.2,19.4-12.7c3.1-2.2,6.3-4.5,9-7c2.8-2.5,5.1-5.4,6.8-8.6c1.7-3.2,2.6-6.7,2.5-10.3c-0.1-3.6-1.2-7.1-3-10.3
			c-1.8-3.2-4.1-6.1-6.9-8.7c-1.4-1.3-2.8-2.4-4.4-3.5c-1.5-1.1-3.1-2.2-4.7-3.3c-6.4-4.3-13-8.4-19.6-12.5L420.4,328.8z"/>
	</g>
	<g>
		<path d="M391.6,358.4c5.1,1.6,10,3.4,15,5.4c4.9,2,9.8,4.1,14.6,6.5c2.4,1.2,4.8,2.5,7,4c1.1,0.7,2.3,1.5,3.4,2.4s2.2,1.8,3.1,3.3
			c0.4,0.7,0.9,1.8,0.7,3.1c-0.1,0.3-0.2,0.6-0.3,0.9c-0.1,0.1-0.2,0.3-0.2,0.4l-0.2,0.3c-0.3,0.3-0.6,0.7-0.8,0.9
			c-1.1,1.1-2.2,1.9-3.3,2.7c-2.2,1.6-4.4,3.1-6.7,4.5c-9.1,5.6-18.4,10.7-27.8,15.5c-9.4,4.9-19,9.5-28.7,13.7
			c9-5.6,18.1-10.9,27.3-16.2l13.7-8c4.5-2.7,9.1-5.4,13.5-8.2c2.2-1.4,4.4-2.8,6.5-4.3c1-0.8,2.1-1.5,2.9-2.3
			c0.4-0.4,0.7-0.8,0.6-0.7c0,0,0-0.2-0.2-0.6c-0.4-0.8-1.3-1.7-2.2-2.5c-0.9-0.8-2-1.6-3-2.3c-2.1-1.5-4.3-2.8-6.6-4.1
			C410.6,367.7,401.1,363.1,391.6,358.4z"/>
	</g>
	<g>
		<path d="M375.4,423.7c1.3,0,2.6,0.2,3.8,0.6c0.6,0.2,1.2,0.5,1.8,0.7c0.6,0.3,1.1,0.6,1.7,1c2.2,1.5,4.1,3.6,5.2,6.1
			c0.2,0.3,0.3,0.6,0.4,1l0.3,1l0.3,1c0,0.3,0.1,0.7,0.1,1c0.1,0.7,0.2,1.3,0.2,2s-0.1,1.3-0.1,2s-0.2,1.3-0.4,1.9
			c-0.2,0.6-0.3,1.2-0.5,1.9c-0.5,1.2-1.1,2.3-1.8,3.4c-0.1-1.3-0.1-2.5-0.1-3.7c0-0.6-0.1-1.2-0.1-1.8s0-1.1-0.1-1.7
			s-0.2-1.1-0.2-1.7c-0.1-0.5-0.2-1.1-0.4-1.6c-0.1-0.3-0.1-0.5-0.2-0.8l-0.3-0.8c-0.2-0.5-0.3-1-0.6-1.5c-0.8-2-2.1-3.7-3.6-5.4
			C379.2,426.6,377.4,425.1,375.4,423.7z"/>
	</g>
	<g>
		<path d="M355.2,434.2c-2.6,1.3-5.1,2.8-7.2,4.5c-2.2,1.7-4,3.8-5,6.1c-0.9,2.3-0.8,4.8,0.2,7.1c0.5,1.1,1.1,2.3,1.9,3.4
			c0.7,1.1,1.6,2.1,2.5,3.1c0.9,0.9,1.9,1.8,3,2.4c1.1,0.7,2.2,1.2,3.5,1.6c2.4,0.8,5.1,1,7.8,0.7c2.7-0.3,5.4-1,8-2.1
			c1.3-0.5,2.6-1.1,3.8-1.8c0.6-0.3,1.2-0.7,1.8-1.1c0.6-0.4,1.2-0.8,1.7-1.3c-0.8,1.2-1.9,2.3-3,3.2c-1.1,1-2.3,1.8-3.6,2.6
			c-2.5,1.5-5.3,2.7-8.4,3.3c-3,0.7-6.2,0.6-9.3-0.2c-1.5-0.4-3-1.1-4.4-1.9s-2.6-1.9-3.7-3c-2.2-2.3-3.9-4.8-5.1-7.9
			c-0.5-1.5-0.8-3.2-0.8-4.9c0-1.7,0.5-3.3,1.3-4.8c1.5-2.9,4.1-4.9,6.6-6.4C349.6,435.8,352.4,434.7,355.2,434.2z"/>
	</g>
	<g>
		<path d="M355.2,422.1c-2.2,1.2-4.3,2.1-6.3,3.1s-4.1,2-5.6,3.2c-0.8,0.6-1.3,1.2-1.5,1.8c0,0.2-0.1,0.3-0.1,0.5c0,0.1,0,0.2,0,0.4
			c0,0.2,0,0.4,0.3,0.7c0.4,0.5,1.4,1.1,2.4,1.5s2.2,0.7,3.4,1c-1.1,0.5-2.4,0.7-3.6,0.8c-1.3,0-2.6-0.1-4.1-1
			c-0.2-0.1-0.4-0.2-0.5-0.4c-0.2-0.2-0.3-0.4-0.5-0.5c-0.3-0.4-0.5-0.8-0.6-1.3c-0.1-0.4-0.2-0.9-0.2-1.4c0-0.4,0.1-0.8,0.2-1.2
			c0.5-1.7,1.6-2.9,2.6-3.8c2.2-1.7,4.6-2.5,7-3C350.3,421.9,352.8,421.7,355.2,422.1z"/>
	</g>
	<g>
		<path d="M221,325.8c1.8-1.9,3.9-3.4,6.1-4.7c2.2-1.3,4.4-2.5,6.8-3.4c2.4-0.9,4.8-1.7,7.4-2.2c2.5-0.5,5.2-0.7,7.8-0.3
			c-2.4,1.1-4.6,2.1-6.9,3.1c-2.3,1-4.5,2-6.8,2.9s-4.6,1.8-7,2.6C226,324.6,223.6,325.3,221,325.8z"/>
	</g>
	<g>
		<path d="M380.2,312.9c3-0.3,5.9-0.2,8.8,0.2c2.9,0.4,5.8,1,8.6,1.9c2.8,0.9,5.6,2,8.1,3.6c1.3,0.8,2.5,1.7,3.6,2.7
			c1.1,1.1,2.1,2.3,2.6,3.7c-2.4-1.8-4.9-2.8-7.6-3.8c-2.6-1-5.3-1.8-8-2.7s-5.4-1.7-8.1-2.6C385.7,315.1,383,314.1,380.2,312.9z"/>
	</g>
	<g>
		<path d="M130.4,436.5c-4.7,4.5-9.2,9-13.7,13.6s-8.9,9.3-13.2,14.1c-4.3,4.8-8.4,9.7-12.3,14.8c-3.8,5.1-7.6,10.4-10.2,16.1
			c-0.3,0.7-0.5,1.5-0.8,2.2c-0.2,0.7-0.4,1.5-0.6,2.2l-0.1,1.1c0,0.2-0.1,0.4,0,0.4l0.1,0.2c0.2,0.4,0.8,0.9,1.4,1.3
			c1.2,0.8,2.7,1.5,4.1,2.1c1.5,0.6,2.9,1.1,4.5,1.7c6.1,2,12.3,3.6,18.5,5.1c12.5,2.9,25.1,5.4,37.8,7.7
			c50.7,9.2,101.6,16.7,152.7,23.5c25.5,3.5,51.1,6.8,76.6,9.8c12.8,1.5,25.6,2.9,38.4,4c3.2,0.2,6.4,0.5,9.5,0.5c0.4,0,0.8,0,1.1,0
			c0.1,0,0.3,0,0.3,0s0.1-0.1,0.2-0.1c0.4-0.2,0.9-0.8,1.4-1.2c1-1.1,1.9-2.4,2.8-3.7c3.5-5.2,6.6-10.9,9.6-16.6
			c6-11.4,11.5-23,16.8-34.7c5.4-11.7,10.5-23.5,15.5-35.4c2.5-5.9,5-11.9,7.3-17.9c1.2-3,2.3-6,3.3-9c0.2-0.8,0.5-1.5,0.6-2.3
			l0.5-2.4c0.4-1.6,0.8-3.1,1.1-4.7c0.3-1.5,0.4-3.1-0.4-4.4c-0.8-1.2-2.3-1.9-3.7-2.5c-3-1.1-6.2-1.7-9.3-2.3
			c-3.2-0.6-6.3-1.1-9.5-1.3c-1.6-0.1-3.2-0.1-4.8,0c-0.8,0.1-1.6,0.2-2.4,0.4c-0.8,0.2-1.6,0.5-2.1,1.1c0.5-0.7,1.3-1,2.1-1.2
			c0.8-0.2,1.6-0.4,2.4-0.5c1.6-0.2,3.2-0.2,4.8-0.1c3.2,0.1,6.4,0.5,9.6,1s6.4,1,9.5,2.1c0.8,0.3,1.5,0.6,2.3,1
			c0.7,0.4,1.4,1,1.9,1.7s0.7,1.7,0.8,2.5c0,0.9,0,1.7-0.2,2.5c-0.3,1.6-0.6,3.2-1,4.8l-0.5,2.4c-0.2,0.8-0.4,1.6-0.6,2.4
			c-0.9,3.1-2,6.1-3.1,9.2c-2.2,6.1-4.6,12.1-7,18.1c-4.8,12-9.9,23.8-15,35.6c-5.2,11.8-10.6,23.5-16.4,35.1
			c-3,5.8-5.9,11.5-9.5,17c-0.9,1.4-1.9,2.7-3,4c-0.6,0.7-1.2,1.3-2.2,1.9c-0.3,0.1-0.6,0.3-0.9,0.4c-0.4,0.1-0.6,0.1-0.9,0.1
			c-0.5,0-0.9,0-1.3,0c-3.4,0-6.5-0.3-9.8-0.5c-12.9-1-25.7-2.4-38.5-3.8c-25.6-2.9-51.2-6.1-76.8-9.5c-25.5-3.5-51-7.2-76.5-11.2
			c-12.7-2-25.5-4.1-38.2-6.2c-12.7-2.1-25.4-4.5-38.1-7c-12.6-2.5-25.3-5.1-37.8-8.3c-6.3-1.6-12.5-3.2-18.7-5.4
			c-1.5-0.5-3.1-1.1-4.6-1.8c-1.5-0.7-3-1.4-4.4-2.4c-0.7-0.5-1.4-1.1-2-2.1c-0.1-0.3-0.2-0.5-0.3-0.9c-0.1-0.4,0-0.6,0-0.8l0.2-1.3
			c0.2-0.8,0.4-1.7,0.7-2.5c0.3-0.8,0.6-1.6,0.9-2.3c2.8-6,6.7-11.2,10.7-16.3c4.1-5,8.3-9.9,12.7-14.6
			C111.6,454.1,120.9,445.1,130.4,436.5z"/>
	</g>
	<g>
		<path d="M150,444.7c-4.2,3.5-8.3,7.2-12.3,10.9c-4,3.7-8,7.4-11.9,11.3s-7.7,7.8-11.2,12c-1.8,2.1-3.5,4.2-5,6.4
			c-1.5,2.2-3,4.5-3.9,7c-0.1,0.3-0.2,0.6-0.3,0.9c-0.1,0.3-0.2,0.6-0.2,0.9l-0.1,0.5v0.2v0.1l0,0c0,0,0.1,0.1,0.2,0.3
			c0.3,0.4,0.9,0.7,1.4,1c0.6,0.3,1.2,0.6,1.8,0.8c2.5,1,5.1,1.8,7.7,2.5c5.2,1.4,10.6,2.6,15.9,3.7c10.7,2.1,21.5,4,32.3,5.7
			c21.6,3.4,43.3,6.5,65,9.4c21.7,2.9,43.4,5.7,65.2,8.2c21.7,2.7,43.5,5.1,65.2,7.5c10.9,1.2,21.8,2.3,32.7,3.2
			c2.7,0.2,5.4,0.5,8.2,0.6c1.4,0.1,2.7,0.2,4.1,0.2c1.3,0.1,2.7,0.1,3.9,0.1c0.4,0.1,1.5-0.8,2.3-1.7c0.9-0.9,1.7-2,2.5-3
			c1.6-2.2,3.1-4.4,4.5-6.7c5.8-9.2,11-18.8,16.1-28.5s10-19.5,14.7-29.3c2.4-4.9,4.7-9.9,7-14.9c1.1-2.5,2.2-5,3.2-7.5
			c0.2-0.6,0.5-1.3,0.6-1.9l0.5-2c0.4-1.3,0.8-2.6,1-3.9c0.1-0.6,0.1-1.3,0.1-1.9c-0.1-0.6-0.4-1.1-0.9-1.5
			c-0.9-0.8-2.2-1.3-3.5-1.6c-2.6-0.8-5.3-1.2-8-1.7s-5.4-0.8-8.1-1c-1.4-0.1-2.7-0.1-4.1,0c-0.7,0-1.4,0.1-2,0.3
			c-0.6,0.2-1.4,0.4-1.8,0.9c0.5-0.5,1.2-0.7,1.8-0.9c0.7-0.2,1.4-0.3,2-0.4c1.4-0.2,2.7-0.2,4.1-0.1c2.8,0.1,5.5,0.3,8.2,0.7
			c2.7,0.4,5.4,0.8,8.1,1.5l1,0.3l1,0.4c0.3,0.1,0.6,0.3,1,0.5c0.2,0.1,0.3,0.2,0.5,0.3l0.4,0.4c0.3,0.2,0.5,0.5,0.8,0.9
			c0.1,0.1,0.2,0.4,0.3,0.5c0.1,0.2,0.2,0.4,0.2,0.6c0.1,0.8,0.1,1.5,0,2.2c-0.2,1.4-0.6,2.7-0.9,4.1l-0.5,2c-0.2,0.7-0.4,1.4-0.6,2
			c-0.9,2.6-2,5.2-3,7.7c-2.1,5.1-4.3,10.1-6.6,15.1c-4.6,10-9.3,19.8-14.3,29.6c-5,9.8-10,19.5-15.8,29c-1.4,2.4-2.9,4.7-4.5,7
			c-0.8,1.1-1.7,2.3-2.6,3.3c-0.5,0.5-1,1.1-1.6,1.6c-0.2,0.1-0.3,0.3-0.5,0.4l-0.6,0.4c-0.3,0.1-0.5,0.2-0.8,0.3s-0.5,0.1-0.8,0.1
			c-1.6,0.1-2.9,0-4.3,0s-2.8-0.1-4.1-0.2c-2.8-0.2-5.5-0.4-8.2-0.6c-10.9-0.9-21.9-1.9-32.8-3c-21.8-2.2-43.6-4.7-65.3-7.3
			c-43.5-5.3-87-11-130.2-18.5c-10.8-1.9-21.6-3.9-32.3-6.2c-5.4-1.2-10.7-2.4-16-3.9c-2.7-0.8-5.3-1.6-7.9-2.7
			c-0.7-0.3-1.3-0.6-1.9-1s-1.3-0.7-1.9-1.4c-0.3-0.4-0.7-0.8-0.7-1.5c0-0.1,0-0.2,0-0.2v-0.1v-0.3l0.1-0.6c0-0.4,0.2-0.7,0.3-1.1
			s0.2-0.7,0.3-1c1.1-2.7,2.6-5,4.3-7.3c1.6-2.2,3.4-4.3,5.2-6.4c3.7-4.1,7.6-8,11.5-11.8C133.1,458.6,141.4,451.5,150,444.7z"/>
	</g>
	<g>
		<path d="M385.5,406.9c-14.6-0.4-29.2-1.1-43.7-2c-7.3-0.4-14.5-1-21.8-1.4l-21.8-1.6l-21.8-1.9c-7.3-0.7-14.5-1.3-21.8-2.1
			c-14.5-1.5-29-3-43.5-5c14.6,0.4,29.2,1.1,43.7,2c7.3,0.4,14.5,1,21.8,1.4l21.8,1.6l21.8,1.9c7.3,0.7,14.5,1.3,21.8,2.1
			C356.6,403.4,371.1,405,385.5,406.9z"/>
	</g>
	<g>
		<path class="st5" d="M253.6,415.3L240,373.6c0,0-0.8-9.9,13.6-6.8l14.4,44"/>
		<path d="M253.6,415.3c-1.4-3.4-2.8-6.8-4.1-10.2c-1.4-3.4-2.6-6.8-3.9-10.3c-1.2-3.4-2.5-6.9-3.7-10.3c-1.2-3.5-2.4-6.9-3.6-10.4
			l-0.1-0.2v-0.2c0-0.6,0-1,0.1-1.5s0.2-0.9,0.3-1.4c0.3-0.9,0.6-1.8,1.2-2.6c1.1-1.6,2.8-2.8,4.5-3.3c0.9-0.4,1.7-0.4,2.6-0.6
			c0.8,0,1.7-0.1,2.5-0.1c0.8,0.1,1.6,0.1,2.4,0.2l2.4,0.4l1,0.2l0.3,1c1.2,3.7,2.3,7.4,3.4,11c1.1,3.7,2.2,7.4,3.3,11.1
			c1.1,3.7,2.1,7.4,3.1,11.2c1,3.7,2,7.5,2.8,11.2c-1.5-3.6-3-7.1-4.4-10.7s-2.8-7.2-4.1-10.8c-1.3-3.6-2.7-7.2-3.9-10.9
			c-1.3-3.6-2.6-7.3-3.8-10.9l1.4,1.2l-2.1-0.3c-0.7-0.1-1.4-0.1-2-0.2c-0.7,0-1.3,0-2,0.1c-0.6,0.1-1.3,0.2-1.8,0.4
			c-1.1,0.4-2,1-2.6,1.8c-0.3,0.4-0.5,0.9-0.7,1.5c-0.1,0.3-0.1,0.5-0.2,0.8c-0.1,0.3-0.1,0.6-0.1,0.8l-0.1-0.4
			c1.1,3.5,2.1,7,3.2,10.5c1.1,3.5,2.1,7,3.1,10.5s2,7,2.9,10.6C251.9,408.1,252.8,411.7,253.6,415.3z"/>
	</g>
	<g>
		<path d="M421,91c6.2,3.7,11.5,8.9,16.1,14.5c2.3,2.8,4.4,5.8,6.3,8.9c1,1.5,1.8,3.2,2.7,4.7c0.8,1.6,1.7,3.2,2.4,4.9
			c3,6.6,5.2,13.6,6.8,20.8c1.5,7.1,2.4,14.4,2.7,21.7c0.3,7.3,0,14.6-0.7,21.8l-1.2,10.8c-0.2,1.8-0.3,3.6-0.5,5.4
			c-0.2,1.8-0.3,3.6-0.4,5.4c-0.4,7.1-0.5,14.3,0.1,21.4c0.5,7.1,1.6,14.1,3.7,20.9c2,6.7,5,13.2,9.2,18.8
			c4.1,5.7,9.2,10.6,14.7,15.2c5.4,4.6,11.2,9.2,16.3,14.6c5,5.3,9.4,11.3,13.1,17.6c3.7,6.4,6.6,13.1,8.6,20.2
			c1.9,7.1,2.9,14.4,2.5,21.8s-2,14.5-4.8,21.2c-1.4,3.4-3.1,6.6-5,9.7c-2,3.1-4.1,6-6.5,8.7c4.4-5.7,8-12,10.6-18.7
			c2.5-6.7,3.9-13.8,3.9-21c0.1-7.1-1-14.2-3-21c-2.1-6.8-5-13.3-8.7-19.4s-8.1-11.7-13-16.8c-4.9-5.1-10.6-9.5-16.2-14.1
			s-11-9.8-15.4-15.8s-7.6-12.8-9.8-19.9c-2.2-7.1-3.2-14.4-3.8-21.7c-0.5-7.3-0.4-14.6,0.1-21.9c0.1-1.8,0.2-3.6,0.4-5.4
			s0.3-3.6,0.5-5.4l1.3-10.8c0.8-7.1,1.2-14.3,1.1-21.4c-0.3-14.3-2.7-28.6-8.2-41.8c-0.6-1.7-1.4-3.3-2.2-4.9
			c-0.8-1.6-1.6-3.2-2.5-4.8c-1.7-3.1-3.7-6.2-5.8-9c-2.1-2.9-4.5-5.6-7-8.2C426.7,95.4,424,93,421,91z"/>
	</g>
	<g>
		<path d="M268,311c3.1,2.1,6.4,3.9,9.8,5.5c3.3,1.6,6.8,2.9,10.3,3.9c1.8,0.5,3.5,0.9,5.3,1.2c1.8,0.3,3.6,0.5,5.4,0.6
			s3.7,0.1,5.6,0.2s3.7,0.1,5.6,0.1c3.7,0,7.4,0.1,11.1,0l5.6-0.1l5.6-0.2c7.4-0.4,14.9-0.8,22.4-1.7c-7.1,2.5-14.6,3.8-22.1,4.7
			c-3.8,0.5-7.5,0.7-11.3,0.9c-3.8,0.1-7.5,0.2-11.3,0.1s-7.5-0.2-11.3-0.6c-3.9-0.3-7.7-1.3-11.3-2.6c-3.6-1.3-7-3.1-10.2-5.1
			C273.7,316,270.7,313.7,268,311z"/>
	</g>
</g>
</svg>
