<?xml version="1.0" encoding="utf-8"?>
<!-- Generator: Adobe Illustrator 23.0.3, SVG Export Plug-In . SVG Version: 6.00 Build 0)  -->
<svg version="1.1" id="Layer_1" xmlns="http://www.w3.org/2000/svg" xmlns:xlink="http://www.w3.org/1999/xlink" x="0px" y="0px"
	 viewBox="0 0 30 30" style="enable-background:new 0 0 30 30;" xml:space="preserve">
<style type="text/css">
	.st0{fill:none;stroke:#F05F5C;stroke-width:1.5;stroke-linecap:round;stroke-miterlimit:10;}
</style>
<g>
	<path class="st0" d="M14.2,8.6l2-2l2.6-2.6c1.9-1.9,5-1.9,6.9,0l0.3,0.3c1.9,1.9,1.9,5,0,6.9L20,17.3c-1.9,1.9-5,1.9-6.9,0
		l-0.3-0.3c-0.5-0.5-0.9-1.2-1.2-1.9"/>
	<path class="st0" d="M15.8,21.4l-2,2l-2.6,2.6c-1.9,1.9-5,1.9-6.9,0l-0.3-0.3c-1.9-1.9-1.9-5,0-6.9l6.1-6.1c1.9-1.9,5-1.9,6.9,0
		l0.3,0.3c0.5,0.5,0.9,1.2,1.2,1.9"/>
</g>
</svg>
