<?xml version="1.0" encoding="utf-8"?>
<!-- Generator: Adobe Illustrator 23.0.3, SVG Export Plug-In . SVG Version: 6.00 Build 0)  -->
<svg version="1.1" id="圖層_1" xmlns="http://www.w3.org/2000/svg" xmlns:xlink="http://www.w3.org/1999/xlink" x="0px" y="0px"
	 viewBox="0 0 561.82 300" style="enable-background:new 0 0 561.82 300;" xml:space="preserve">
<style type="text/css">
	.st0{fill:none;stroke:#000000;stroke-width:19.0909;stroke-miterlimit:10;}
	.st1{fill:none;}
</style>
<g>
	<path class="st0" d="M237.27,82.61"/>
	<polygon points="261.82,0 222.01,0 117.86,83.8 157.67,83.8 	"/>
	<polygon points="21.82,161.07 21.82,0 0,0 0,300 21.82,300 21.82,193.1 96.21,133.24 230.38,300 261.82,300 115.3,117.89 
		75.49,117.89 	"/>
	<rect x="321.82" y="117.89" class="st1" width="218.18" height="160.29"/>
	<rect x="540" width="21.82" height="83.8"/>
	<polygon points="540,278.18 321.82,278.18 321.82,117.89 300,117.89 300,300 321.82,300 540,300 561.82,300 561.82,278.18 
		561.82,117.89 540,117.89 	"/>
	<rect x="300" width="21.82" height="83.8"/>
</g>
</svg>
