<?xml version="1.0" encoding="utf-8"?>
<!-- Generator: Adobe Illustrator 23.0.3, SVG Export Plug-In . SVG Version: 6.00 Build 0)  -->
<svg version="1.1" id="圖層_1" xmlns="http://www.w3.org/2000/svg" xmlns:xlink="http://www.w3.org/1999/xlink" x="0px" y="0px"
	 viewBox="0 0 200 200" style="enable-background:new 0 0 200 200;" xml:space="preserve">
<style type="text/css">
	.st0{fill:#FFFFFF;}
	.st1{fill:none;stroke:#ED8B8A;stroke-width:3;stroke-linecap:round;stroke-linejoin:round;stroke-miterlimit:10;}
	.st2{fill:#FFFFFF;stroke:#ED8B8A;stroke-width:3;stroke-linecap:round;stroke-linejoin:round;stroke-miterlimit:10;}
	.st3{fill:#FFCFCF;stroke:#ED8B8A;stroke-width:3;stroke-linecap:round;stroke-linejoin:round;stroke-miterlimit:10;}
</style>
<g>
	<g>
		<g>
			<path class="st0" d="M169.1,91.5c0,2.6-2.2,4.8-4.8,4.8H75c-2.6,0-4.8-2.2-4.8-4.8V29c0-2.6,2.2-4.8,4.8-4.8h89.3
				c2.6,0,4.8,2.2,4.8,4.8V91.5L169.1,91.5z"/>
			<path class="st1" d="M169.1,91.5c0,2.6-2.2,4.8-4.8,4.8H75c-2.6,0-4.8-2.2-4.8-4.8V29c0-2.6,2.2-4.8,4.8-4.8h89.3
				c2.6,0,4.8,2.2,4.8,4.8V91.5L169.1,91.5z"/>
		</g>
		<line class="st1" x1="159.1" y1="63.8" x2="159.1" y2="56.7"/>
	</g>
	<g>
		<g>
			<path class="st0" d="M155.6,138.7c-1.3,0-2.4-1.1-2.4-2.4V85.2c0-1.3,1.1-2.4,2.4-2.4h27c1.3,0,2.4,1.1,2.4,2.4v51.2
				c0,1.3-1.1,2.4-2.4,2.4L155.6,138.7L155.6,138.7z"/>
			<path class="st1" d="M155.6,138.7c-1.3,0-2.4-1.1-2.4-2.4V85.2c0-1.3,1.1-2.4,2.4-2.4h27c1.3,0,2.4,1.1,2.4,2.4v51.2
				c0,1.3-1.1,2.4-2.4,2.4L155.6,138.7L155.6,138.7z"/>
		</g>
		<line class="st1" x1="153.4" y1="127.1" x2="184.8" y2="127.1"/>
		<line class="st1" x1="167.5" y1="133.1" x2="170.7" y2="133.1"/>
	</g>
	<g>
		<g>
			<line class="st2" x1="52.6" y1="166.1" x2="99.1" y2="166.1"/>
			<g>
				<polyline class="st2" points="65.5,164 65.5,142.5 86.2,142.8 86.2,164 				"/>
			</g>
		</g>
		<g id="web_form">
			<g>
				<path class="st2" d="M109.1,142.7H22.9c-4.4,0-7.9-3.5-7.9-7.9v-72c0-4.4,3.5-7.9,7.9-7.9h106c4.4,0,7.9,3.5,7.9,7.9V135
					c0,4.4-3.5,7.9-7.9,7.9h-14.1"/>
				<line class="st1" x1="15" y1="76.6" x2="136.7" y2="76.6"/>
				<g>
					<circle class="st2" cx="25.7" cy="65.8" r="3"/>
					<circle class="st2" cx="35.6" cy="65.8" r="3"/>
					<circle class="st2" cx="45.4" cy="65.8" r="3"/>
				</g>
			</g>
			<g>
				<polyline class="st2" points="102,127 54.3,127 54.3,91.8 125,91.8 125,127 				"/>
				<line class="st1" x1="26.7" y1="91.8" x2="42.4" y2="91.8"/>
				<line class="st1" x1="26.7" y1="101.1" x2="42.4" y2="101.1"/>
			</g>
			<polygon class="st3" points="97,109.4 97,152.6 108.8,142.7 120.5,162.4 130.4,156.5 118.6,136.9 132.4,133 			"/>
		</g>
	</g>
</g>
</svg>
