<?xml version="1.0" encoding="utf-8"?>
<!-- Generator: Adobe Illustrator 23.0.3, SVG Export Plug-In . SVG Version: 6.00 Build 0)  -->
<svg version="1.1" id="圖層_1" xmlns="http://www.w3.org/2000/svg" xmlns:xlink="http://www.w3.org/1999/xlink" x="0px" y="0px"
	 viewBox="0 0 200 200" style="enable-background:new 0 0 200 200;" xml:space="preserve">
<style type="text/css">
	.st0{fill:#FFFFFF;}
	.st1{fill:none;stroke:#ED8B8A;stroke-width:3;stroke-linecap:round;stroke-linejoin:round;stroke-miterlimit:10;}
	.st2{fill:#FFFFFF;stroke:#ED8B8A;stroke-width:3;stroke-linecap:round;stroke-linejoin:round;stroke-miterlimit:10;}
	.st3{fill:#FFCFCF;stroke:#ED8B8A;stroke-width:3;stroke-linecap:round;stroke-linejoin:round;stroke-miterlimit:10;}
</style>
<g>
	<g>
		<path class="st0" d="M185,165.4c0,4.5-3.7,8.2-8.2,8.2H23.2c-4.5,0-8.2-3.7-8.2-8.2V57.8c0-4.5,3.7-8.2,8.2-8.2h153.6
			c4.5,0,8.2,3.7,8.2,8.2V165.4z"/>
		<path class="st1" d="M185,165.4c0,4.5-3.7,8.2-8.2,8.2H23.2c-4.5,0-8.2-3.7-8.2-8.2V57.8c0-4.5,3.7-8.2,8.2-8.2h153.6
			c4.5,0,8.2,3.7,8.2,8.2V165.4z"/>
	</g>
</g>
<circle class="st2" cx="31.4" cy="111.6" r="8.5"/>
<path class="st2" d="M167.8,162.3H55c-3.3,0-6-2.7-6-6V66.8c0-3.3,2.7-6,6-6h112.8c3.3,0,6,2.7,6,6v89.5
	C173.8,159.6,171.1,162.3,167.8,162.3z"/>
<g>
	<polygon class="st3" points="173.8,35.3 120.5,115.4 103.4,125.7 106.5,106 160,25.8 	"/>
</g>
</svg>
