<?xml version="1.0" encoding="utf-8"?>
<!-- Generator: Adobe Illustrator 23.0.3, SVG Export Plug-In . SVG Version: 6.00 Build 0)  -->
<svg version="1.1" id="圖層_1" xmlns="http://www.w3.org/2000/svg" xmlns:xlink="http://www.w3.org/1999/xlink" x="0px" y="0px"
	 viewBox="0 0 200 200" style="enable-background:new 0 0 200 200;" xml:space="preserve">
<style type="text/css">
	.st0{fill:#FFFFFF;stroke:#ED8B8A;stroke-width:3;stroke-linecap:round;stroke-linejoin:round;stroke-miterlimit:10;}
	.st1{fill:none;stroke:#ED8B8A;stroke-width:3;stroke-linecap:round;stroke-linejoin:round;stroke-miterlimit:10;}
	.st2{fill:#FFCFCF;stroke:#ED8B8A;stroke-width:3;stroke-linecap:round;stroke-linejoin:round;stroke-miterlimit:10;}
</style>
<g>
	<path class="st0" d="M32.2,147.4v-86c0-2.6,2.1-4.6,4.6-4.6h69.6H121h42.2c2.6,0,4.6,2.1,4.6,4.6v86"/>
	<path class="st0" d="M188,152v-5h-73.1h-1c-0.7,2.4-2.9,2.4-5.5,2.4H91.6c-2.6,0-4.8,0-5.5-2.4h-1H12v5c0,0,6.1,4.5,10.6,4.5h56
		h42.9h56C181.9,156.5,188,152,188,152z"/>
</g>
<g>
	<g>
		<path class="st1" d="M81.4,96.1c1.9,0,3.4,1.5,3.4,3.4c0,1.9-1.5,3.4-3.4,3.4c-1.9,0-3.4-1.5-3.4-3.4C78,97.6,79.6,96.1,81.4,96.1
			"/>
	</g>
	<polyline class="st1" points="44,124.8 63.4,104.1 83,124.8 	"/>
	<rect x="43.9" y="87.4" class="st1" width="57.6" height="44.9"/>
	<polyline class="st1" points="81.5,116.9 88.2,109.8 101.4,124 	"/>
</g>
<g>
	<line class="st1" x1="126.9" y1="110.1" x2="152.7" y2="110.1"/>
	<line class="st1" x1="133.1" y1="120.4" x2="146.5" y2="120.4"/>
	<g>
		<g>
			<g>
				<path class="st2" d="M139.8,26.2c-19,0-34.4,15.2-34.4,33.9c0,8.9,2.7,15.1,6.5,19.6c6.3,6.8,12.8,9.9,13.9,21.6h14h14.4
					c1.1-11.7,7.6-14.7,13.9-21.6c4.3-5,6.3-10.7,6.3-19.6C174.3,41.4,158.8,26.2,139.8,26.2L139.8,26.2z"/>
			</g>
		</g>
	</g>
	<line class="st1" x1="139.8" y1="17.4" x2="139.8" y2="10.1"/>
	<g>
		<line class="st1" x1="174.3" y1="33.4" x2="180.1" y2="27.4"/>
		<line class="st1" x1="99.4" y1="27.4" x2="105.4" y2="33.4"/>
	</g>
</g>
</svg>
